<?xml version="1.0" encoding="utf-8"?>
<!-- Generator: Adobe Illustrator 20.0.0, SVG Export Plug-In . SVG Version: 6.00 Build 0)  -->
<!DOCTYPE svg PUBLIC "-//W3C//DTD SVG 1.1//EN" "http://www.w3.org/Graphics/SVG/1.1/DTD/svg11.dtd">
<svg version="1.1" id="Layer_1" xmlns="http://www.w3.org/2000/svg" xmlns:xlink="http://www.w3.org/1999/xlink" x="0px" y="0px"
	 viewBox="0 0 34 53" style="enable-background:new 0 0 34 53;" xml:space="preserve">
<style type="text/css">
	.st0{clip-path:url(#SVGID_2_);fill:none;stroke:#232323;stroke-width:0.9;stroke-miterlimit:10;}
</style>
<g>
	<defs>
		<rect id="SVGID_1_" x="2" y="2.6" width="29.3" height="46.8"/>
	</defs>
	<clipPath id="SVGID_2_">
		<use xlink:href="#SVGID_1_"  style="overflow:visible;"/>
	</clipPath>
	<path class="st0" d="M18.1,31.1V42c0,0.8-0.6,1.4-1.4,1.4c-0.8,0-1.4-0.6-1.4-1.4V31.1 M30.8,15.3c0,0.6-0.5,1.1-1.1,1.1
		c-0.6,0-1.1-0.5-1.1-1.1c0-0.6,0.5-1.1,1.1-1.1C30.3,14.2,30.8,14.7,30.8,15.3z M4.7,15.3c0,0.6-0.5,1.1-1.1,1.1s-1.1-0.5-1.1-1.1
		c0-0.6,0.5-1.1,1.1-1.1S4.7,14.7,4.7,15.3z M23.3,15.3h5.2 M4.7,15.3h5.2 M18.1,41.2c3.8,0.7,6.7,3.9,6.7,7.7H8.5
		c0-3.8,2.8-6.9,6.4-7.7c0.1,0,0.2,0,0.2,0 M26.7,12.4v9.1c0,5.4-4.6,9.8-10.2,9.8S6.4,26.9,6.4,21.5v-9.1 M16.6,27.6L16.6,27.6
		c-3.7,0-6.7-2.9-6.7-6.5V9.5c0-3.6,3-6.5,6.7-6.5c3.7,0,6.7,2.9,6.7,6.5v11.6C23.3,24.7,20.3,27.6,16.6,27.6z"/>
</g>
</svg>
