<?xml version="1.0" encoding="utf-8"?>
<!-- Generator: Adobe Illustrator 20.0.0, SVG Export Plug-In . SVG Version: 6.00 Build 0)  -->
<!DOCTYPE svg PUBLIC "-//W3C//DTD SVG 1.1//EN" "http://www.w3.org/Graphics/SVG/1.1/DTD/svg11.dtd">
<svg version="1.1" id="Layer_1" xmlns="http://www.w3.org/2000/svg" xmlns:xlink="http://www.w3.org/1999/xlink" x="0px" y="0px"
	 viewBox="0 0 109.7 58.1" style="enable-background:new 0 0 109.7 58.1;" xml:space="preserve">
<style type="text/css">
	.st0{fill:#232323;}
	.st1{clip-path:url(#SVGID_2_);fill:#232323;}
	.st2{clip-path:url(#SVGID_4_);fill:#232323;}
	.st3{clip-path:url(#SVGID_6_);fill:#232323;}
	.st4{clip-path:url(#SVGID_8_);fill:#232323;}
</style>
<polygon class="st0" points="57,38 57,37.2 53.8,37.2 53.8,38.1 55.8,38.1 53.8,41.4 53.8,42.1 57.1,42.1 57.1,41.3 55,41.3 "/>
<polygon class="st0" points="62.9,37.8 61.2,37.8 61.2,34.8 60.1,34.8 60.1,42.1 61.2,42.1 61.2,38.8 62.9,38.8 62.9,42.1 64,42.1 
	64,34.8 62.9,34.8 "/>
<rect x="65.4" y="35" class="st0" width="1.1" height="1.1"/>
<rect x="65.4" y="37.2" class="st0" width="1.1" height="4.9"/>
<g>
	<defs>
		<rect id="SVGID_1_" x="22.6" y="16.4" width="64.5" height="27.7"/>
	</defs>
	<clipPath id="SVGID_2_">
		<use xlink:href="#SVGID_1_"  style="overflow:visible;"/>
	</clipPath>
	<path class="st1" d="M69.1,39.1c-0.4-0.2-0.8-0.3-0.8-0.7c0-0.3,0.2-0.4,0.5-0.4c0.3,0,0.5,0.1,0.5,0.6v0.1h1v-0.3
		c0-0.8-0.7-1.1-1.4-1.1c-1,0-1.5,0.5-1.5,1.4c0,1,0.7,1.3,1.3,1.5c0.4,0.2,0.7,0.4,0.7,0.7v0c0,0.4-0.2,0.6-0.6,0.6
		c-0.4,0-0.6-0.2-0.6-0.6v-0.1h-0.9V41c0,0.8,0.6,1.1,1.5,1.1c1,0,1.6-0.5,1.6-1.3v-0.2C70.4,39.7,69.7,39.4,69.1,39.1"/>
	<path class="st1" d="M72.5,40.5v-2.4h0.8v-0.8h-0.8v-2L71.5,36v1.2h-0.6v0.8h0.6v2.4c0,1.3,0.5,1.7,1.6,1.7c0.1,0,0.3,0,0.4-0.1
		v-0.8C72.8,41.3,72.5,41.2,72.5,40.5"/>
	<path class="st1" d="M75.9,37.2c-1.1,0-1.8,0.6-1.8,1.8v1.3c0,1.3,0.6,1.8,1.8,1.8c1.1,0,1.8-0.6,1.8-1.8V39
		C77.6,37.7,77,37.2,75.9,37.2 M76.6,40.3c0,0.8-0.2,1.1-0.7,1.1c-0.5,0-0.7-0.3-0.7-1.1v-1.2c0-0.8,0.2-1.1,0.7-1.1
		c0.5,0,0.7,0.3,0.7,1.1V40.3z"/>
	<path class="st1" d="M79.7,38l-0.1-0.8h-0.9v4.9h1.1V39c0-0.5,0.3-0.8,0.8-0.8c0.2,0,0.4,0.1,0.6,0.2l0,0l0.1-1.1
		c-0.1,0-0.2,0-0.4,0C80.3,37.2,79.9,37.5,79.7,38"/>
</g>
<rect x="81.8" y="35" class="st0" width="1.1" height="1.1"/>
<rect x="81.8" y="37.2" class="st0" width="1.1" height="4.9"/>
<g>
	<defs>
		<rect id="SVGID_3_" x="22.6" y="16.4" width="64.5" height="27.7"/>
	</defs>
	<clipPath id="SVGID_4_">
		<use xlink:href="#SVGID_3_"  style="overflow:visible;"/>
	</clipPath>
	<path class="st2" d="M87.1,42.1v-3.4c0-1-0.6-1.5-1.6-1.5c-0.8,0-1.5,0.3-1.5,1.1v0.4h0.9v-0.1c0-0.4,0.2-0.6,0.6-0.6
		c0.4,0,0.6,0.1,0.6,0.6v0.7h-0.7c-1.2,0-1.5,0.7-1.5,1.5c0,1,0.7,1.4,1.3,1.4c0.5,0,0.8-0.2,1-0.6l0.1,0.4
		c-0.5,0.2-0.8,0.6-0.8,1.2c0,0.5,0.3,0.8,1,0.8c0.3,0,0.5-0.1,0.7-0.2v-0.6c-0.1,0.1-0.2,0.1-0.3,0.1c-0.2,0-0.4-0.1-0.4-0.4
		C86.3,42.7,86.5,42.4,87.1,42.1 M86,40.4c0,0.6-0.3,0.9-0.6,0.9c-0.3,0-0.6-0.2-0.6-0.6c0-0.4,0.2-0.7,0.6-0.7H86V40.4z"/>
	<path class="st2" d="M61.8,31.2v-1.5c0-1.2-0.7-1.7-1.4-1.7c-0.5,0-0.9,0.2-1.1,0.6l-0.1-0.6h-0.9v7.1h1.1v-2.7
		c0.2,0.3,0.6,0.5,1,0.5C61.1,32.9,61.8,32.4,61.8,31.2 M59.4,31.4v-2c0-0.4,0.4-0.7,0.7-0.7c0.4,0,0.6,0.3,0.6,0.9v1.5
		c0,0.6-0.2,0.8-0.6,0.8C59.8,32,59.4,31.8,59.4,31.4"/>
</g>
<polygon class="st0" points="71.4,30.4 72.9,32.8 74.1,32.8 72.5,30.2 73.9,27.9 72.8,27.9 71.4,30.1 71.4,25.4 70.3,25.4 
	70.3,32.8 71.4,32.8 "/>
<g>
	<defs>
		<rect id="SVGID_5_" x="22.6" y="16.4" width="64.5" height="27.7"/>
	</defs>
	<clipPath id="SVGID_6_">
		<use xlink:href="#SVGID_5_"  style="overflow:visible;"/>
	</clipPath>
	<path class="st3" d="M76.1,27.9c-0.8,0-1.5,0.3-1.5,1.1v0.4h0.9v-0.1c0-0.4,0.2-0.6,0.6-0.6c0.4,0,0.6,0.1,0.6,0.6V30H76
		c-1.2,0-1.5,0.7-1.5,1.5c0,1,0.7,1.4,1.3,1.4c0.5,0,0.8-0.2,1-0.6l0.1,0.5h0.8v-3.4C77.7,28.4,77.2,27.9,76.1,27.9 M76.7,31.2
		c0,0.6-0.3,0.9-0.6,0.9c-0.3,0-0.6-0.2-0.6-0.6c0-0.4,0.2-0.7,0.6-0.7h0.6V31.2z"/>
	<path class="st3" d="M79.9,29.7c0-0.7,0.3-1.1,0.7-1.1c0.4,0,0.6,0.2,0.6,0.8v3.3h1.1v-3.6c0-0.9-0.5-1.4-1.3-1.4
		c-0.5,0-0.9,0.3-1.2,0.7l-0.1-0.6h-0.9v4.9h1.1V29.7z"/>
</g>
<polygon class="st0" points="81.8,25.6 80.7,25.6 80.1,27.3 80.8,27.3 "/>
<g>
	<defs>
		<rect id="SVGID_7_" x="22.6" y="16.4" width="64.5" height="27.7"/>
	</defs>
	<clipPath id="SVGID_8_">
		<use xlink:href="#SVGID_7_"  style="overflow:visible;"/>
	</clipPath>
	<path class="st4" d="M66.3,31v-1.3c0-1.3-0.6-1.8-1.8-1.8c-1.1,0-1.8,0.6-1.8,1.8V31c0,1.3,0.6,1.8,1.8,1.8
		C65.6,32.9,66.3,32.3,66.3,31 M65.2,31c0,0.8-0.2,1.1-0.7,1.1c-0.5,0-0.7-0.3-0.7-1.1v-1.2c0-0.8,0.2-1.1,0.7-1.1
		c0.5,0,0.7,0.3,0.7,1.1V31z"/>
	<path class="st4" d="M67.5,31.2c0,1.3,0.5,1.7,1.6,1.7c0.1,0,0.3,0,0.4-0.1V32c-0.7,0.1-1-0.1-1-0.8v-2.4h0.8v-0.8h-0.8v-2
		l-1.1,0.7v1.2h-0.6v0.8h0.6V31.2z"/>
	<path class="st4" d="M55.9,28.6c-0.6-0.3-1.1-0.5-1.1-1.2c0-0.6,0.2-0.9,0.8-0.9c0.6,0,0.8,0.2,0.8,0.7v0.3h1V27
		c0-1-0.7-1.5-1.8-1.5c-1.1,0-1.9,0.6-1.9,1.9c0,1.4,1,1.8,1.8,2.2c0.6,0.2,1,0.5,1,1.2v0c0,0.8-0.3,1.1-0.9,1.1
		c-0.6,0-0.9-0.2-0.9-0.9v-0.3h-1v0.4c0,1.2,0.7,1.7,1.9,1.7c1.3,0,2-0.7,2-2v-0.1C57.5,29.3,56.6,28.9,55.9,28.6"/>
	<path class="st4" d="M64.6,20.6c0-0.7,0.3-1.1,0.7-1.1c0.4,0,0.6,0.2,0.6,0.8v3.3H67v-3.3c0.1-0.5,0.3-0.8,0.7-0.8
		c0.4,0,0.6,0.2,0.6,0.8v3.3h1.1v-3.6c0-0.9-0.5-1.4-1.3-1.4c-0.5,0-1,0.3-1.2,0.8c-0.2-0.5-0.6-0.8-1.2-0.8c-0.5,0-0.9,0.3-1.2,0.7
		l-0.1-0.6h-0.9v4.9h1.1V20.6z"/>
	<path class="st4" d="M55.8,16.4h-0.9h-1.1v7.3h0.5h1.5c1.3,0,2.1-0.6,2.1-2v-3.2C57.9,17,57.2,16.4,55.8,16.4 M56.8,21.5
		c0,1-0.3,1.3-1,1.3h-0.9v-5.4h0.9c0.7,0,1,0.3,1,1.3V21.5z"/>
	<path class="st4" d="M60.7,23.7c1.1,0,1.8-0.6,1.8-1.8v-1.3c0-1.3-0.6-1.8-1.8-1.8c-1.1,0-1.8,0.6-1.8,1.8v1.3
		C59,23.2,59.6,23.7,60.7,23.7 M60,20.6c0-0.8,0.2-1.1,0.7-1.1c0.5,0,0.7,0.3,0.7,1.1v1.2c0,0.8-0.2,1.1-0.7,1.1
		c-0.5,0-0.7-0.3-0.7-1.1V20.6z"/>
</g>
<polygon class="st0" points="28.6,22.4 28.6,36.6 30.9,36.6 30.9,30.7 40.5,30.7 40.5,36.6 42.8,36.6 42.8,22.4 40.5,22.4 
	40.5,28.3 30.9,28.3 30.9,22.4 "/>
<polygon class="st0" points="22.6,16.4 22.6,16.4 22.6,16.4 22.6,27.7 24.9,27.7 24.9,18.7 34.5,18.7 34.5,24.7 36.9,24.7 
	36.9,18.7 46.5,18.7 46.5,27.7 48.8,27.7 48.8,16.4 48.8,16.4 "/>
<polygon class="st0" points="46.5,31.3 46.5,40.3 36.9,40.3 36.9,34.3 34.5,34.3 34.5,40.3 24.9,40.3 24.9,31.3 22.6,31.3 
	22.6,42.6 22.6,42.6 48.8,42.6 48.8,31.3 "/>
</svg>
