<?xml version="1.0" encoding="utf-8"?>
<!-- Generator: Adobe Illustrator 20.0.0, SVG Export Plug-In . SVG Version: 6.00 Build 0)  -->
<!DOCTYPE svg PUBLIC "-//W3C//DTD SVG 1.1//EN" "http://www.w3.org/Graphics/SVG/1.1/DTD/svg11.dtd">
<svg version="1.1" id="Layer_1" xmlns="http://www.w3.org/2000/svg" xmlns:xlink="http://www.w3.org/1999/xlink" x="0px" y="0px"
	 viewBox="0 0 109.7 58.1" style="enable-background:new 0 0 109.7 58.1;" xml:space="preserve">
<style type="text/css">
	.st0{clip-path:url(#SVGID_2_);fill:#232323;}
</style>
<g>
	<defs>
		<rect id="SVGID_1_" x="20.4" y="17.9" width="72.8" height="20.9"/>
	</defs>
	<clipPath id="SVGID_2_">
		<use xlink:href="#SVGID_1_"  style="overflow:visible;"/>
	</clipPath>
	<path class="st0" d="M26.3,38.5c1.1-1,1.2-2.1,1.2-3.6V21.5c0-1.5-0.1-2.6-1.2-3.6h5.6c-1.1,1-1.2,2.1-1.2,3.6v13.3
		c0,1.5,0.1,2.6,1.2,3.6H26.3z"/>
	<path class="st0" d="M41.7,38.5c-2.6,0-3.6-1-5.2-3.3l-5.3-7.5l4.8-6.4c0.6-0.8,1-1.5,1-1.9c0-0.4-0.2-0.9-0.8-1.4h5.1l-6.6,9.2
		l6,8.5c0.5,0.7,1.4,1.7,2.7,2.8H41.7z"/>
	<path class="st0" d="M56.2,38.4c-2.9,0-4.1-1-4.1-3.4v-4.3c-4.2,1.1-6.2,1.6-6.2,3.5c0,1.5,1.3,2.5,3.3,2.5c0.6,0,1.3-0.1,2.1-0.3
		l-1.6,2.2c-0.7,0.2-1.3,0.2-1.9,0.2c-3,0-5.1-2-5.1-4.5c0-1,0.4-1.9,1-2.6c1.1-1.1,2.7-1.3,4.9-1.8c2.4-0.5,3.3-0.9,3.3-2
		c0-1.2-1.2-2.1-3.3-2.1c-1,0-2.3,0.4-3.8,1.1l1.9-3.1c1.1-0.2,2-0.2,2.7-0.2c1.5,0,2.7,0.3,3.6,1c1.5,1.1,1.7,2.5,1.7,4.7v3.5
		c0,2.6,0.1,3.4,2.6,3.6L56.2,38.4z"/>
	<path class="st0" d="M65.6,26.3c-2.1,0-3.2,1.4-3.2,4.1v5.4c0,1.2,0.3,2,1,2.7h-4.8c0.8-0.7,1-1.5,1-2.7v-9c0-1.2-0.3-2.1-1-2.7
		h0.3c1,0,2.1-0.1,3.3-0.3l0.2,2.3c0.9-1.5,2-2.3,3.4-2.3c0.4,0,0.8,0.1,1.2,0.1v2.8C66.6,26.4,66.2,26.3,65.6,26.3"/>
	<path class="st0" d="M75.1,26.2H73v7c0,2.5,0.8,3.7,2.6,3.7c0.4,0,0.8-0.1,1.3-0.2l-1.5,2.1c-0.3,0-0.6,0.1-0.9,0.1
		c-2.9,0-4.4-1.5-4.4-4.3v-8.4h-2v-1.1c2.3-0.2,3.8-2.2,3.9-5.6H73v4.6h4.3v2.7C76.8,26.3,76.1,26.2,75.1,26.2"/>
	<path class="st0" d="M92,38.4c-2.9,0-4.1-1-4.1-3.4v-4.3c-4.2,1.1-6.2,1.6-6.2,3.5c0,1.5,1.3,2.5,3.3,2.5c0.6,0,1.3-0.1,2.1-0.3
		l-1.6,2.2c-0.7,0.2-1.3,0.2-1.9,0.2c-3,0-5.1-2-5.1-4.5c0-1,0.4-1.9,1-2.6c1.1-1.1,2.7-1.3,4.9-1.8c2.4-0.5,3.3-0.9,3.3-2
		c0-1.2-1.2-2.1-3.3-2.1c-1,0-2.3,0.4-3.8,1.1l1.9-3.1c1.1-0.2,2-0.2,2.7-0.2c1.5,0,2.7,0.3,3.6,1c1.5,1.1,1.7,2.5,1.7,4.7v3.5
		c0,2.6,0.1,3.4,2.6,3.6L92,38.4z"/>
	<path class="st0" d="M21,36.9c0,0.8,0.9,1,2.2,1c1.3,0,2.2-0.2,2.2-1c0-0.8-0.9-1-2.2-1C21.9,35.9,21,36.1,21,36.9 M25.9,36.9
		c0,1.2-1.1,1.7-2.7,1.7c-1.6,0-2.7-0.5-2.7-1.7c0-1.2,1.1-1.7,2.7-1.7C24.8,35.2,25.9,35.7,25.9,36.9"/>
	<path class="st0" d="M25.9,33.8c0,0.4-0.2,1.1-0.4,1.1c0,0-0.1,0-0.1,0l-0.2-0.1c-0.1,0-0.1,0-0.1-0.1c0-0.1,0.3-0.5,0.3-1
		c0-0.3-0.2-0.6-0.5-0.6c-0.8,0-0.6,1.7-1.7,1.7c-0.6,0-1-0.5-1-1.1c0-0.3,0.1-0.7,0.2-0.9c0-0.1,0.1-0.1,0.1-0.1c0,0,0,0,0.1,0
		l0.2,0.1c0.1,0,0.1,0,0.1,0.1c0,0.1-0.2,0.4-0.2,0.8c0,0.3,0.1,0.6,0.5,0.6c0.8,0,0.6-1.7,1.8-1.7C25.5,32.6,25.9,33.2,25.9,33.8
		 M20.9,32.7l0.6,1.2c0,0,0,0,0,0.1c0,0,0,0-0.1,0.1l-0.1,0.1c0,0-0.1,0-0.1,0c0,0,0,0-0.1-0.1L20.4,33c0,0,0,0,0-0.1s0-0.1,0.1-0.1
		l0.3-0.2C20.8,32.7,20.8,32.6,20.9,32.7C20.9,32.6,20.9,32.7,20.9,32.7"/>
	<path class="st0" d="M22.3,30.3l0.4,0.2c0,0,0.1,0,0.1,0c0,0-0.1,0.1-0.1,0.2c0,0.3,0.4,0.5,0.6,0.7h2.5c0.1,0,0.1,0,0.1,0.1V32
		c0,0.1,0,0.1-0.1,0.1h-2.6c-0.1,0-0.4,0-0.6,0.1c-0.1,0.1-0.2,0.1-0.2,0.1c0,0-0.1,0-0.1-0.1l-0.2-0.3c0,0,0-0.1,0-0.1
		c0-0.1,0.5-0.3,0.6-0.3c-0.2-0.2-0.6-0.5-0.6-0.9C22.1,30.5,22.1,30.3,22.3,30.3C22.2,30.3,22.2,30.3,22.3,30.3"/>
	<path class="st0" d="M22.5,29c0,0.7,0.6,0.9,1.4,0.9c0.9,0,1.5-0.2,1.5-0.9c0-0.7-0.6-0.9-1.5-0.9C23.2,28.1,22.5,28.3,22.5,29
		 M25.9,29c0,1-0.8,1.4-1.9,1.4c-1,0-1.9-0.4-1.9-1.5c0-1,0.8-1.5,1.9-1.5C25,27.5,25.9,27.9,25.9,29"/>
	<path class="st0" d="M22.8,24.9c-0.1,0.2-0.2,0.5-0.2,0.9c0,0.6,0.7,0.7,1.5,0.7c0.6,0,1.3-0.1,1.3-0.7c0-0.4-0.3-0.7-0.4-0.9H22.8
		z M25.7,24.2l0.2,0.3c0,0,0,0,0,0.1c0,0.1-0.3,0.2-0.4,0.3c0.1,0.2,0.4,0.5,0.4,1.1c0,0.8-0.9,1.2-1.8,1.2c-1.1,0-2-0.4-2-1.2
		c0-0.5,0.1-0.7,0.3-0.9h-1.8c-0.1,0-0.1,0-0.1-0.1l-0.1-0.4c0-0.1,0,0,0-0.1c0-0.1,0.1-0.1,0.1-0.1h4.1c0.3,0,0.6,0,0.7-0.1
		C25.4,24.2,25.6,24.1,25.7,24.2C25.6,24.1,25.7,24.2,25.7,24.2"/>
	<path class="st0" d="M22.5,22.5c0,0.7,0.7,0.8,1.1,0.8v-1.6C23.2,21.7,22.5,21.8,22.5,22.5 M24.1,21.2v2.1c0.5,0,1.3-0.2,1.3-1
		c0-0.5-0.3-0.9-0.3-0.9c0,0,0,0,0,0l0.3-0.1c0,0,0,0,0.1,0c0.1,0,0.4,0.6,0.4,1.2c0,1-0.8,1.6-1.9,1.6c-1.1,0-1.9-0.6-1.9-1.5
		c0-1.2,1.2-1.4,1.9-1.4C24,21.1,24.1,21.1,24.1,21.2"/>
	<path class="st0" d="M25.7,18l0.2,0.3c0,0,0,0.1,0,0.1c0,0,0,0.1-0.1,0.1L23.9,20v0h1.8c0.1,0,0.1,0,0.1,0.1v0.4
		c0,0.1,0,0.1-0.1,0.1h-5.1c-0.1,0-0.1,0-0.1-0.1l-0.1-0.4c0-0.1,0,0,0-0.1c0-0.1,0.1-0.1,0.1-0.1h3.4l-1.7-1.5c0,0-0.1,0-0.1-0.1
		c0,0,0-0.1,0-0.1l0.2-0.3c0,0,0,0,0.1,0c0,0,0.1,0,0.1,0.1l1.4,1.3l1.7-1.3C25.5,18,25.6,18,25.7,18C25.6,18,25.6,18,25.7,18"/>
</g>
</svg>
