<?xml version="1.0" encoding="utf-8"?>
<!-- Generator: Adobe Illustrator 16.0.0, SVG Export Plug-In . SVG Version: 6.00 Build 0)  -->
<!DOCTYPE svg PUBLIC "-//W3C//DTD SVG 1.1//EN" "http://www.w3.org/Graphics/SVG/1.1/DTD/svg11.dtd">
<svg version="1.1" id="Layer_1" xmlns="http://www.w3.org/2000/svg" xmlns:xlink="http://www.w3.org/1999/xlink" x="0px" y="0px"
	 width="612px" height="792px" viewBox="0 0 612 792" enable-background="new 0 0 612 792" xml:space="preserve">
<g>
	<g>
		<defs>
			<rect id="SVGID_1_" x="110.983" y="340.895" width="267.518" height="134.55"/>
		</defs>
		<clipPath id="SVGID_2_">
			<use xlink:href="#SVGID_1_"  overflow="visible"/>
		</clipPath>
		<path clip-path="url(#SVGID_2_)" fill="#232323" d="M164.478,381.628v-9.582c0-0.399,0-1.597,0-3.593
			c-0.399,1.597-0.799,2.794-0.799,3.593l-2.396,9.582h-4.391l-2.396-9.182c-0.399-1.198-0.399-2.396-0.799-3.593
			c0,1.597,0,2.794,0,3.593v9.182h-5.589v-19.562h7.585l2.795,9.582c0,0.399,0.399,1.197,0.798,2.794
			c0.399-1.597,0.399-2.396,0.799-2.794l2.795-9.582h7.585v19.562H164.478z"/>
	</g>
</g>
<path fill="#232323" d="M174.059,367.256h5.589v14.372h-5.589V367.256z M174.059,361.667h5.589v3.992h-5.589V361.667z"/>
<g>
	<g>
		<defs>
			<rect id="SVGID_3_" x="110.983" y="245.895" width="753.322" height="229.55"/>
		</defs>
		<clipPath id="SVGID_4_">
			<use xlink:href="#SVGID_3_"  overflow="visible"/>
		</clipPath>
		<path clip-path="url(#SVGID_4_)" fill="#232323" d="M193.221,381.628v-7.585c0-1.996-0.399-2.794-1.996-2.794
			s-1.996,0.798-1.996,2.794v7.585h-5.589v-14.372h5.189v1.996c1.198-1.597,2.795-2.395,4.791-2.395
			c1.597,0,3.193,0.399,3.992,1.597c1.197,1.198,1.197,3.194,1.197,5.589v7.585H193.221z"/>
	</g>
</g>
<path fill="#232323" d="M202.802,367.256h5.59v14.372h-5.59V367.256z M202.802,361.667h5.59v3.992h-5.59V361.667z"/>
<g>
	<g>
		<defs>
			<rect id="SVGID_5_" x="110.983" y="245.895" width="753.322" height="229.55"/>
		</defs>
		<clipPath id="SVGID_6_">
			<use xlink:href="#SVGID_5_"  overflow="visible"/>
		</clipPath>
		<path clip-path="url(#SVGID_6_)" fill="#232323" d="M218.371,382.027c-4.391,0-6.786-1.597-7.186-5.19h5.589
			c0,1.198,0.799,1.996,1.996,1.996c1.198,0,1.996-0.399,1.996-1.197c0-1.198-0.798-1.198-2.395-1.597
			c-4.392-0.798-6.388-1.597-6.388-4.791s2.396-4.791,6.786-4.791c4.392,0,6.388,1.597,6.787,4.392h-5.189
			c0-0.799-0.799-1.597-1.598-1.597c-1.197,0-1.597,0.399-1.597,0.798c0,1.198,0.799,1.198,2.795,1.597
			c4.391,0.798,5.988,1.597,5.988,4.791C225.957,380.431,223.562,382.027,218.371,382.027"/>
	</g>
	<g>
		<defs>
			<rect id="SVGID_7_" x="110.983" y="245.895" width="753.322" height="229.55"/>
		</defs>
		<clipPath id="SVGID_8_">
			<use xlink:href="#SVGID_7_"  overflow="visible"/>
		</clipPath>
		<path clip-path="url(#SVGID_8_)" fill="#232323" d="M234.34,381.628c-3.593,0-4.79-1.198-4.79-3.992v-7.186h-1.996v-3.194h1.996
			v-4.391h5.589v4.391h2.795v3.194h-2.795v5.589c0,1.198,0.399,1.198,1.996,1.198c0.399,0,0.399,0,0.799,0v3.992
			C236.736,381.628,235.538,381.628,234.34,381.628"/>
	</g>
	<g>
		<defs>
			<rect id="SVGID_9_" x="110.983" y="245.895" width="753.322" height="229.55"/>
		</defs>
		<clipPath id="SVGID_10_">
			<use xlink:href="#SVGID_9_"  overflow="visible"/>
		</clipPath>
		<path clip-path="url(#SVGID_10_)" fill="#232323" d="M247.914,370.051c-1.598,0-2.396,0.799-2.396,2.795h5.189
			C250.309,370.85,249.511,370.051,247.914,370.051 M245.519,375.64c0,1.996,0.798,2.794,2.794,2.794
			c1.198,0,1.996-0.399,1.996-1.198h5.19c-0.799,3.194-3.593,4.791-7.984,4.791c-4.791,0-7.984-3.194-7.984-7.585
			c0-4.791,3.193-7.984,7.984-7.984c5.189,0,7.984,3.194,7.984,8.783v0.399H245.519L245.519,375.64z"/>
	</g>
	<g>
		<defs>
			<rect id="SVGID_11_" x="110.983" y="245.895" width="753.322" height="229.55"/>
		</defs>
		<clipPath id="SVGID_12_">
			<use xlink:href="#SVGID_11_"  overflow="visible"/>
		</clipPath>
		<path clip-path="url(#SVGID_12_)" fill="#232323" d="M267.076,372.446c-2.396,0-3.194,1.198-3.194,3.194v5.988h-5.589v-14.372
			h5.19v2.396c0.798-1.996,1.996-3.194,4.391-3.194h0.399v5.589C267.874,372.446,267.476,372.446,267.076,372.446"/>
	</g>
	<g>
		<defs>
			<rect id="SVGID_13_" x="110.983" y="245.895" width="753.322" height="229.55"/>
		</defs>
		<clipPath id="SVGID_14_">
			<use xlink:href="#SVGID_13_"  overflow="visible"/>
		</clipPath>
		<path clip-path="url(#SVGID_14_)" fill="#232323" d="M277.456,382.027c-4.392,0-6.787-1.597-7.187-5.19h5.589
			c0,1.198,0.799,1.996,1.996,1.996c1.198,0,1.996-0.399,1.996-1.197c0-1.198-0.798-1.198-2.395-1.597
			c-4.392-0.798-6.388-1.597-6.388-4.791s2.396-4.791,6.786-4.791c4.392,0,6.388,1.597,6.787,4.392h-5.189
			c0-0.799-0.799-1.597-1.598-1.597c-1.197,0-1.597,0.399-1.597,0.798c0,1.198,0.799,1.198,2.795,1.597
			c4.392,0.798,5.988,1.597,5.988,4.791C285.041,380.431,282.246,382.027,277.456,382.027"/>
	</g>
	<g>
		<defs>
			<rect id="SVGID_15_" x="110.983" y="245.895" width="753.322" height="229.55"/>
		</defs>
		<clipPath id="SVGID_16_">
			<use xlink:href="#SVGID_15_"  overflow="visible"/>
		</clipPath>
		<path clip-path="url(#SVGID_16_)" fill="#232323" d="M293.425,381.628c-3.594,0-4.791-1.198-4.791-3.992v-7.186h-1.996v-3.194
			h1.996v-4.391h5.589v4.391h2.795v3.194h-2.795v5.589c0,1.198,0.399,1.198,1.996,1.198c0.399,0,0.399,0,0.799,0v3.992
			C295.82,381.628,294.622,381.628,293.425,381.628"/>
	</g>
</g>
<polygon fill="#232323" points="318.575,381.628 312.986,381.628 310.99,373.245 308.994,381.628 303.405,381.628 298.615,367.256 
	304.203,367.256 306.599,375.64 308.595,367.256 313.385,367.256 315.381,375.64 317.777,367.256 322.966,367.256 "/>
<g>
	<g>
		<defs>
			<rect id="SVGID_17_" x="110.983" y="245.895" width="753.322" height="229.55"/>
		</defs>
		<clipPath id="SVGID_18_">
			<use xlink:href="#SVGID_17_"  overflow="visible"/>
		</clipPath>
		<path clip-path="url(#SVGID_18_)" fill="#232323" d="M331.35,370.45c-1.597,0-2.396,1.198-2.396,3.593
			c0,2.396,0.799,3.593,2.396,3.593s2.396-1.198,2.396-3.593C333.745,371.648,333.346,370.45,331.35,370.45 M331.35,382.027
			c-4.79,0-7.984-2.794-7.984-7.585s3.194-7.585,7.984-7.585c4.791,0,7.984,2.794,7.984,7.585
			C339.334,378.833,336.54,382.027,331.35,382.027"/>
	</g>
</g>
<polygon fill="#232323" points="164.876,414.764 158.49,403.984 156.493,406.38 156.493,414.764 148.509,414.764 148.509,388.415 
	156.493,388.415 156.493,397.197 164.078,388.415 173.659,388.415 164.478,397.996 174.857,414.764 "/>
<g>
	<g>
		<defs>
			<rect id="SVGID_19_" x="110.983" y="245.895" width="753.322" height="229.55"/>
		</defs>
		<clipPath id="SVGID_20_">
			<use xlink:href="#SVGID_19_"  overflow="visible"/>
		</clipPath>
		<path clip-path="url(#SVGID_20_)" fill="#232323" d="M189.628,414.764v-2.795c-1.597,2.396-3.992,3.193-6.787,3.193
			c-2.395,0-3.992-0.798-5.589-2.395c-1.597-1.598-1.597-3.992-1.597-7.586v-9.98h7.585v9.98c0,2.795,0.399,3.992,2.396,3.992
			s2.795-1.197,2.795-3.992v-9.98h7.585v19.562H189.628z"/>
	</g>
</g>
<rect x="201.205" y="388.415" fill="#232323" width="7.585" height="26.349"/>
<g>
	<g>
		<defs>
			<rect id="SVGID_21_" x="110.983" y="245.895" width="753.322" height="229.55"/>
		</defs>
		<clipPath id="SVGID_22_">
			<use xlink:href="#SVGID_21_"  overflow="visible"/>
		</clipPath>
		<path clip-path="url(#SVGID_22_)" fill="#232323" d="M221.166,414.764c-4.791,0-6.388-1.198-6.388-5.59v-9.581h-2.794v-4.391
			h2.794v-5.988h7.585v5.988h3.594v4.391h-3.594v7.585c0,1.198,0.799,1.598,2.396,1.598c0.399,0,0.799,0,1.198,0v5.589
			C224.36,414.764,222.763,414.764,221.166,414.764"/>
	</g>
	<g>
		<defs>
			<rect id="SVGID_23_" x="110.983" y="245.895" width="753.322" height="229.55"/>
		</defs>
		<clipPath id="SVGID_24_">
			<use xlink:href="#SVGID_23_"  overflow="visible"/>
		</clipPath>
		<path clip-path="url(#SVGID_24_)" fill="#232323" d="M243.123,414.764v-2.795c-1.597,2.396-3.992,3.193-6.787,3.193
			c-2.395,0-3.992-0.798-5.589-2.395c-1.597-1.598-1.597-3.992-1.597-7.586v-9.98h7.585v9.98c0,2.795,0.399,3.992,2.396,3.992
			s2.795-1.197,2.795-3.992v-9.98h7.585v19.562H243.123z"/>
	</g>
	<g>
		<defs>
			<rect id="SVGID_25_" x="110.983" y="245.895" width="753.322" height="229.55"/>
		</defs>
		<clipPath id="SVGID_26_">
			<use xlink:href="#SVGID_25_"  overflow="visible"/>
		</clipPath>
		<path clip-path="url(#SVGID_26_)" fill="#232323" d="M266.677,402.388c-3.193,0-4.392,1.197-4.392,4.392v7.984H254.7v-19.562
			h7.187v3.593c1.197-2.795,2.794-3.993,5.988-3.993h0.798v7.585C267.874,402.388,267.076,402.388,266.677,402.388"/>
	</g>
	<g>
		<defs>
			<rect id="SVGID_27_" x="110.983" y="245.895" width="753.322" height="229.55"/>
		</defs>
		<clipPath id="SVGID_28_">
			<use xlink:href="#SVGID_27_"  overflow="visible"/>
		</clipPath>
		<path clip-path="url(#SVGID_28_)" fill="#232323" d="M285.441,414.364c-0.799,3.193-1.598,5.189-2.795,6.388
			c-1.597,1.597-3.193,1.597-5.988,1.597c-0.799,0-1.996,0-3.992,0v-5.589h1.996c1.597,0,1.996-0.399,1.996-1.598
			c0-0.398,0-1.197-0.399-1.996l-6.387-17.565h7.585l3.193,11.577l3.193-11.577h7.187L285.441,414.364z"/>
	</g>
</g>
<path fill="#232323" d="M148.11,427.938h5.589v14.372h-5.589V427.938z M148.11,422.349h5.589v3.992h-5.589V422.349z"/>
<g>
	<g>
		<defs>
			<rect id="SVGID_29_" x="110.983" y="245.895" width="753.322" height="229.55"/>
		</defs>
		<clipPath id="SVGID_30_">
			<use xlink:href="#SVGID_29_"  overflow="visible"/>
		</clipPath>
		<path clip-path="url(#SVGID_30_)" fill="#232323" d="M174.458,427.938h-1.598v9.581h1.598c3.193,0,3.992-1.197,3.992-4.79
			C178.45,429.135,177.252,427.938,174.458,427.938 M179.648,441.511c-1.597,0.799-3.992,0.799-6.787,0.799h-6.387v-19.562h7.585
			c2.794,0,4.79,0,6.786,1.197c2.795,1.597,3.992,4.392,3.992,8.783C184.837,437.119,182.841,439.914,179.648,441.511"/>
	</g>
</g>
<polygon fill="#232323" points="186.435,442.31 186.435,438.317 192.822,432.329 186.833,432.329 186.833,427.938 199.609,427.938 
	199.609,431.93 193.221,437.918 199.609,437.918 199.609,442.31 "/>
<path fill="#232323" d="M202.404,427.938h5.589v14.372h-5.589V427.938z M202.404,422.349h5.589v3.992h-5.589V422.349z"/>
<g>
	<g>
		<defs>
			<rect id="SVGID_31_" x="110.983" y="245.895" width="753.322" height="229.55"/>
		</defs>
		<clipPath id="SVGID_32_">
			<use xlink:href="#SVGID_31_"  overflow="visible"/>
		</clipPath>
		<path clip-path="url(#SVGID_32_)" fill="#232323" d="M218.771,430.732c-1.597,0-2.396,0.798-2.396,2.794h5.19
			C221.166,431.53,220.367,430.732,218.771,430.732 M216.375,436.321c0,1.996,0.799,2.794,2.795,2.794
			c1.197,0,1.996-0.398,1.996-1.197h5.189c-0.798,3.193-3.593,4.79-7.984,4.79c-4.79,0-7.983-3.193-7.983-7.585
			c0-4.79,3.193-7.984,7.983-7.984c5.19,0,7.984,3.194,7.984,8.783v0.399H216.375z"/>
	</g>
	<g>
		<defs>
			<rect id="SVGID_33_" x="110.983" y="245.895" width="753.322" height="229.55"/>
		</defs>
		<clipPath id="SVGID_34_">
			<use xlink:href="#SVGID_33_"  overflow="visible"/>
		</clipPath>
		<path clip-path="url(#SVGID_34_)" fill="#232323" d="M236.736,431.93c-1.597,0-2.396,1.197-2.396,3.193s0.799,3.194,2.396,3.194
			s2.396-1.198,2.396-3.194S238.332,431.93,236.736,431.93 M239.531,442.31v-1.598c-1.198,1.598-2.795,2.396-4.791,2.396
			c-3.593,0-5.988-2.794-5.988-7.585c0-4.79,2.396-7.585,5.988-7.585c1.597,0,3.194,0.799,3.992,1.996v-6.787h5.589v19.562h-4.79
			V442.31z"/>
	</g>
</g>
<polygon fill="#232323" points="246.716,442.31 246.716,438.317 253.104,432.329 247.115,432.329 247.115,427.938 259.891,427.938 
	259.891,431.93 253.503,437.918 259.891,437.918 259.891,442.31 "/>
<path fill="#232323" d="M262.685,427.938h5.589v14.372h-5.589V427.938z M262.685,422.349h5.589v3.992h-5.589V422.349z"/>
<g>
	<g>
		<defs>
			<rect id="SVGID_35_" x="110.983" y="245.895" width="753.322" height="229.55"/>
		</defs>
		<clipPath id="SVGID_36_">
			<use xlink:href="#SVGID_35_"  overflow="visible"/>
		</clipPath>
		<path clip-path="url(#SVGID_36_)" fill="#232323" d="M278.254,442.708c-5.189,0-7.984-3.193-7.984-7.585
			c0-4.79,3.194-7.585,7.984-7.585c4.791,0,7.585,2.396,7.585,5.988h-5.589c0-1.197-0.798-1.996-1.996-1.996
			c-1.597,0-2.396,1.198-2.396,3.593c0,2.396,0.799,3.593,2.396,3.593c1.198,0,1.996-0.798,1.996-1.995h5.589
			C285.839,440.313,283.045,442.708,278.254,442.708"/>
	</g>
	<g>
		<defs>
			<rect id="SVGID_37_" x="110.983" y="245.895" width="753.322" height="229.55"/>
		</defs>
		<clipPath id="SVGID_38_">
			<use xlink:href="#SVGID_37_"  overflow="visible"/>
		</clipPath>
		<path clip-path="url(#SVGID_38_)" fill="#232323" d="M294.223,442.708c-3.593,0-4.79-1.197-4.79-3.992v-7.186h-1.996v-3.193h1.996
			v-4.392h5.589v4.392h2.794v3.193h-2.794v5.589c0,1.198,0.399,1.198,1.996,1.198c0.399,0,0.399,0,0.798,0v3.992
			C296.618,442.31,295.421,442.708,294.223,442.708"/>
	</g>
</g>
<polygon fill="#232323" points="318.974,442.31 313.385,442.31 311.389,433.926 309.393,442.31 303.804,442.31 299.412,427.938 
	305.002,427.938 306.998,436.721 308.994,427.938 313.784,427.938 316.18,436.721 318.176,427.938 323.365,427.938 "/>
<g>
	<g>
		<defs>
			<rect id="SVGID_39_" x="110.983" y="245.895" width="753.322" height="229.55"/>
		</defs>
		<clipPath id="SVGID_40_">
			<use xlink:href="#SVGID_39_"  overflow="visible"/>
		</clipPath>
		<path clip-path="url(#SVGID_40_)" fill="#232323" d="M333.745,435.922c-2.795,1.197-4.392,0.799-4.392,1.996
			c0,0.798,0.399,1.197,1.597,1.197c1.996,0,2.795-0.798,2.795-2.794C333.745,436.321,333.745,436.321,333.745,435.922
			 M334.145,442.31l-0.399-1.198c-1.597,1.198-3.193,1.996-5.189,1.996c-3.194,0-5.19-1.597-5.19-4.391
			c0-3.194,1.996-3.992,5.988-4.791c2.795-0.399,3.992-0.399,3.992-1.597c0-0.799-0.798-1.198-1.996-1.198
			c-1.197,0-1.597,0.399-1.996,1.598h-5.589c0-3.194,2.795-4.791,7.585-4.791c2.396,0,4.392,0.399,5.589,1.197
			c1.598,1.198,1.996,1.996,1.996,3.992v7.984c0,0.399,0.399,0.799,0.799,1.198v0.398h-5.589V442.31z"/>
	</g>
	<g>
		<defs>
			<rect id="SVGID_41_" x="110.983" y="245.895" width="753.322" height="229.55"/>
		</defs>
		<clipPath id="SVGID_42_">
			<use xlink:href="#SVGID_41_"  overflow="visible"/>
		</clipPath>
		<path clip-path="url(#SVGID_42_)" fill="#232323" d="M160.486,469.456l-5.19-8.783c-0.398-0.398-0.798-1.597-1.197-2.794
			c0,0.798,0,1.996,0,2.794v8.783h-5.988v-19.562h5.988l5.189,9.182c0.399,0.399,0.799,1.597,1.198,2.795c0-0.799,0-1.597,0-2.795
			v-9.182h5.988v19.562H160.486z"/>
	</g>
	<g>
		<defs>
			<rect id="SVGID_43_" x="110.983" y="245.895" width="753.322" height="229.55"/>
		</defs>
		<clipPath id="SVGID_44_">
			<use xlink:href="#SVGID_43_"  overflow="visible"/>
		</clipPath>
		<path clip-path="url(#SVGID_44_)" fill="#232323" d="M178.849,463.068c-2.794,1.198-4.391,0.799-4.391,1.996
			c0,0.799,0.398,1.198,1.597,1.198c1.996,0,2.794-0.799,2.794-2.795V463.068 M179.648,469.456l-0.399-1.197
			c-1.597,1.197-3.193,1.996-5.189,1.996c-3.194,0-5.19-1.598-5.19-4.392c0-3.194,1.996-3.992,5.988-4.791
			c2.795-0.399,3.992-0.399,3.992-1.597c0-0.799-0.798-1.197-1.996-1.197c-1.197,0-1.597,0.398-1.996,1.597h-5.589
			c0-3.194,2.795-4.791,7.585-4.791c2.396,0,4.392,0.399,5.59,1.198c1.597,1.197,1.996,1.996,1.996,3.992v7.984
			c0,0.398,0.398,0.798,0.798,1.197l0,0H179.648z"/>
	</g>
	<g>
		<defs>
			<rect id="SVGID_45_" x="110.983" y="245.895" width="753.322" height="229.55"/>
		</defs>
		<clipPath id="SVGID_46_">
			<use xlink:href="#SVGID_45_"  overflow="visible"/>
		</clipPath>
		<path clip-path="url(#SVGID_46_)" fill="#232323" d="M196.415,460.274c-2.396,0-3.194,1.197-3.194,3.193v5.988h-5.589v-14.372
			h5.189v2.396c0.799-1.996,1.996-3.193,4.392-3.193h0.399v5.589C197.213,460.274,196.814,460.274,196.415,460.274"/>
	</g>
	<g>
		<defs>
			<rect id="SVGID_47_" x="110.983" y="245.895" width="753.322" height="229.55"/>
		</defs>
		<clipPath id="SVGID_48_">
			<use xlink:href="#SVGID_47_"  overflow="visible"/>
		</clipPath>
		<path clip-path="url(#SVGID_48_)" fill="#232323" d="M206.794,458.278c-1.597,0-2.395,1.197-2.395,3.593s0.798,3.593,2.395,3.593
			c1.598,0,2.396-1.197,2.396-3.593S208.392,458.278,206.794,458.278 M206.794,469.855c-4.79,0-7.984-2.795-7.984-7.585
			c0-4.791,3.194-7.586,7.984-7.586c4.791,0,7.984,2.795,7.984,7.586C214.779,467.061,211.985,469.855,206.794,469.855"/>
	</g>
	<g>
		<defs>
			<rect id="SVGID_49_" x="110.983" y="245.895" width="753.322" height="229.55"/>
		</defs>
		<clipPath id="SVGID_50_">
			<use xlink:href="#SVGID_49_"  overflow="visible"/>
		</clipPath>
		<path clip-path="url(#SVGID_50_)" fill="#232323" d="M224.36,459.076c-1.597,0-2.395,1.198-2.395,3.194s0.798,3.193,2.395,3.193
			c1.598,0,2.396-1.197,2.396-3.193C226.356,460.274,225.957,459.076,224.36,459.076 M227.155,469.456v-1.597
			c-1.197,1.597-2.795,2.396-4.791,2.396c-3.593,0-5.988-2.795-5.988-7.586c0-4.79,2.396-7.585,5.988-7.585
			c1.598,0,3.194,0.799,3.992,1.996v-6.786h5.59v19.162H227.155z"/>
	</g>
	<g>
		<defs>
			<rect id="SVGID_51_" x="110.983" y="245.895" width="753.322" height="229.55"/>
		</defs>
		<clipPath id="SVGID_52_">
			<use xlink:href="#SVGID_51_"  overflow="visible"/>
		</clipPath>
		<path clip-path="url(#SVGID_52_)" fill="#232323" d="M241.926,458.278c-1.598,0-2.396,1.197-2.396,3.593s0.798,3.593,2.396,3.593
			c1.597,0,2.395-1.197,2.395-3.593S243.922,458.278,241.926,458.278 M241.926,469.855c-4.791,0-7.984-2.795-7.984-7.585
			c0-4.791,3.193-7.586,7.984-7.586c4.79,0,7.984,2.795,7.984,7.586C249.91,467.061,247.115,469.855,241.926,469.855"/>
	</g>
</g>
<polygon fill="#232323" points="270.27,469.456 264.681,469.456 262.685,461.072 260.689,469.456 255.1,469.456 250.309,455.084 
	255.899,455.084 257.895,463.867 260.289,455.084 265.08,455.084 267.076,463.867 269.073,455.084 274.661,455.084 "/>
<g>
	<g>
		<defs>
			<rect id="SVGID_53_" x="110.983" y="245.895" width="753.322" height="229.55"/>
		</defs>
		<clipPath id="SVGID_54_">
			<use xlink:href="#SVGID_53_"  overflow="visible"/>
		</clipPath>
		<path clip-path="url(#SVGID_54_)" fill="#232323" d="M283.045,457.879c-1.597,0-2.396,0.798-2.396,2.794h5.189
			C285.441,458.677,284.642,457.879,283.045,457.879 M280.65,463.468c0,1.996,0.799,2.795,2.795,2.795
			c1.197,0,1.996-0.399,1.996-1.198h5.189c-0.799,3.194-3.593,4.791-7.984,4.791c-4.791,0-7.984-3.194-7.984-7.585
			c0-4.791,3.193-7.984,7.984-7.984c5.189,0,7.984,3.193,7.984,8.782v0.399H280.65z"/>
	</g>
	<g>
		<defs>
			<rect id="SVGID_55_" x="110.983" y="245.895" width="753.322" height="229.55"/>
		</defs>
		<clipPath id="SVGID_56_">
			<use xlink:href="#SVGID_55_"  overflow="visible"/>
		</clipPath>
		<path clip-path="url(#SVGID_56_)" fill="#232323" d="M300.611,458.677c-1.597,0-2.396,1.198-2.396,3.194
			c0,2.396,0.799,3.593,2.396,3.593s2.396-1.197,2.396-3.193C303.006,459.875,302.207,458.677,300.611,458.677 M300.611,475.045
			c-3.992,0-6.388-1.597-6.787-4.392h5.589c0,0.799,0.799,0.799,1.598,0.799c1.996,0,1.996-0.799,1.996-3.193v-0.799
			c-0.799,0.799-2.396,1.597-3.992,1.597c-3.992,0-6.388-2.794-6.388-7.186c0-4.791,2.396-7.585,5.988-7.585
			c1.996,0,3.593,0.798,4.79,2.395v-1.996h4.791v13.175C308.595,473.448,306.199,475.045,300.611,475.045"/>
	</g>
	<g>
		<defs>
			<rect id="SVGID_57_" x="110.983" y="245.895" width="753.322" height="229.55"/>
		</defs>
		<clipPath id="SVGID_58_">
			<use xlink:href="#SVGID_57_"  overflow="visible"/>
		</clipPath>
		<path clip-path="url(#SVGID_58_)" fill="#232323" d="M318.575,458.278c-1.598,0-2.396,1.197-2.396,3.593s0.798,3.593,2.396,3.593
			c1.597,0,2.395-1.197,2.395-3.593S320.172,458.278,318.575,458.278 M318.575,469.855c-4.791,0-7.984-2.795-7.984-7.585
			c0-4.791,3.193-7.586,7.984-7.586c4.79,0,7.984,2.795,7.984,7.586C326.56,467.061,323.365,469.855,318.575,469.855"/>
	</g>
</g>
<rect x="330.552" y="460.673" fill="#232323" width="8.782" height="8.783"/>
</svg>
