<?xml version="1.0" encoding="utf-8"?>
<!-- Generator: Adobe Illustrator 20.0.0, SVG Export Plug-In . SVG Version: 6.00 Build 0)  -->
<!DOCTYPE svg PUBLIC "-//W3C//DTD SVG 1.1//EN" "http://www.w3.org/Graphics/SVG/1.1/DTD/svg11.dtd">
<svg version="1.1" id="Layer_1" xmlns="http://www.w3.org/2000/svg" xmlns:xlink="http://www.w3.org/1999/xlink" x="0px" y="0px"
	 viewBox="0 0 39.8 53" style="enable-background:new 0 0 39.8 53;" xml:space="preserve">
<style type="text/css">
	.st0{fill:none;}
	.st1{fill:none;stroke:#232323;stroke-width:0.9;stroke-miterlimit:10;}
	.st2{fill:none;stroke:#232323;stroke-width:0.8082;stroke-miterlimit:10;}
</style>
<rect x="1.9" y="3" class="st0" width="34.2" height="47"/>
<line class="st1" x1="33.4" y1="21.1" x2="33.4" y2="35.9"/>
<circle class="st1" cx="7.8" cy="14" r="1.1"/>
<circle class="st1" cx="7.5" cy="35.6" r="1.1"/>
<circle class="st1" cx="19.6" cy="10.9" r="1.1"/>
<circle class="st1" cx="19.6" cy="10.9" r="7.6"/>
<path class="st2" d="M12.3,14c0,2.5-2,4.5-4.5,4.5S3.3,16.4,3.3,14c0-2.5,2-4.5,4.5-4.5C10.2,9.5,12.3,11.6,12.3,14z"/>
<line class="st1" x1="7.5" y1="21.1" x2="22.3" y2="21.1"/>
<polyline class="st1" points="21.8,38.4 23.4,49.6 22.2,49.6 17.8,38.4 "/>
<polyline class="st1" points="9,38.4 7.5,49.5 8.7,49.5 13,38.4 "/>
<polygon class="st1" points="33.4,35.9 25.5,31 25.5,26 33.4,21.1 35.6,21.1 35.6,35.9 "/>
<rect x="4.8" y="18.6" class="st1" width="20.7" height="19.8"/>
</svg>
