<?xml version="1.0" standalone="no"?>
<!DOCTYPE svg PUBLIC "-//W3C//DTD SVG 1.1//EN" "http://www.w3.org/Graphics/SVG/1.1/DTD/svg11.dtd" >
<svg xmlns="http://www.w3.org/2000/svg" xmlns:xlink="http://www.w3.org/1999/xlink" version="1.1">
<metadata>
Created by FontForge 20160111 at Wed Dec  7 14:14:03 2016
 By root
Copyright (C) 2001, 2010 Hoefler &#38; Co. http://www.typography.com
</metadata>
<defs>
<font id="GothamSSm-Medium" horiz-adv-x="528" >
  <font-face 
    font-family="Gotham SSm Medium"
    font-weight="350"
    font-stretch="normal"
    units-per-em="1000"
    panose-1="0 0 0 0 0 0 0 0 0 0"
    ascent="800"
    descent="-200"
    x-height="548"
    cap-height="728"
    bbox="-23 -279 1125 1005"
    underline-thickness="50"
    underline-position="-100"
    unicode-range="U+0020-2122"
  />
<missing-glyph horiz-adv-x="500" 
d="M0 800h500v-1000h-500v1000zM250 360l179 390h-358zM222 300l-172 376v-752zM278 300l172 -376v752zM71 -150h358l-179 390z" />
    <glyph glyph-name=".notdef" horiz-adv-x="500" 
d="M0 800h500v-1000h-500v1000zM250 360l179 390h-358zM222 300l-172 376v-752zM278 300l172 -376v752zM71 -150h358l-179 390z" />
    <glyph glyph-name="space" unicode=" " horiz-adv-x="320" 
 />
    <glyph glyph-name="exclam" unicode="!" horiz-adv-x="319" 
d="M89 689v39h141v-39l-37 -461h-67zM93 139h133v-139h-133v139z" />
    <glyph glyph-name="quotedbl" unicode="&#x22;" horiz-adv-x="509" 
d="M317 728h137v-5l-99 -303h-63zM92 728h137v-5l-99 -303h-63z" />
    <glyph glyph-name="numbersign" unicode="#" horiz-adv-x="736" 
d="M652 169h-125l-29 -169h-106l28 169h-173l-29 -169h-106l29 169h-96v104h113l32 186h-106v104h124l28 165h107l-28 -165h173l29 165h106l-28 -165h95v-104h-113l-32 -186h107v-104zM263 270h177l33 192h-177z" />
    <glyph glyph-name="dollar" unicode="$" horiz-adv-x="675" 
d="M528 553c-23.333 17.333 -47.002 31.6641 -71.002 42.9971s-48 19.666 -72 24.999v-206c78.667 -19.333 136 -45.666 172 -78.999s53.667 -77.666 53 -132.999v-2c0 -28.667 -5.33301 -54.667 -16 -78s-25.667 -43.666 -45 -60.999s-42.666 -31.333 -69.999 -42
s-57.333 -17.334 -90 -20.001v-102h-88v104c-46 5.33301 -89.5 16.833 -130.5 34.5s-79.167 40.834 -114.5 69.501l64 91c30 -24.667 59.667 -44.834 89 -60.501s61.333 -26.167 96 -31.5v212c-38 10 -71 21.167 -99 33.5s-51 26.833 -69 43.5s-31.5 35.834 -40.5 57.501
s-13.5 47.167 -13.5 76.5v2c0 28 5.33301 53.5 16 76.5s25.5 43 44.5 60s41.833 30.667 68.5 41s56.334 16.833 89.001 19.5v61h88v-63c38 -4.66699 72.833 -13.667 104.5 -27s62.167 -30.666 91.5 -51.999zM492.998 195.998c0 23.333 -7.50098 43.001 -22.501 59.001
s-43.5 30.333 -85.5 43v-197c34.667 3.33301 61.334 13.166 80.001 29.499s28 37.5 28 63.5v2zM199.997 535.999c0 -11.333 1.49805 -21.833 4.49805 -31.5s8.33301 -18.5 16 -26.5s18.334 -15.5 32.001 -22.5s31.167 -13.833 52.5 -20.5v192
c-34 -3.33301 -60.167 -13.333 -78.5 -30s-27.166 -36.667 -26.499 -60v-1z" />
    <glyph glyph-name="percent" unicode="%" horiz-adv-x="889" 
d="M224 364c-25.333 0 -48.332 4.83301 -68.999 14.5s-38.5 23 -53.5 40s-26.667 36.5 -35 58.5s-12.5 45.667 -12.5 71v2c0 25.333 4.16699 49.166 12.5 71.499s20 42 35 59s33.167 30.5 54.5 40.5s44.666 15 69.999 15s48.5 -4.83301 69.5 -14.5s39 -23 54 -40
s26.5 -36.667 34.5 -59s12 -45.833 12 -70.5v-2c0 -25.333 -4.16699 -49.166 -12.5 -71.499s-20 -42 -35 -59s-33 -30.5 -54 -40.5s-44.5 -15 -70.5 -15zM224.001 659c-24.667 0 -44.167 -10.5 -58.5 -31.5s-21.5 -46.167 -21.5 -75.5v-2c0 -15.333 2 -29.5 6 -42.5
s9.66699 -24.5 17 -34.5s16 -17.833 26 -23.5s21 -8.5 33 -8.5c25.333 0 45 10.5 59 31.5s21 46.167 21 75.5v2c0 30 -7.66699 55.667 -23 77s-35 32 -59 32zM661.001 728h100l-287 -387l-246 -341h-100l286 386zM663.001 -8c-25.333 0 -48.5 4.83301 -69.5 14.5
s-39 23 -54 40s-26.5 36.5 -34.5 58.5s-12 45.667 -12 71v2c0 25.333 4.16699 49.166 12.5 71.499s20 42 35 59s33 30.5 54 40.5s44.5 15 70.5 15c25.333 0 48.5 -4.83301 69.5 -14.5s39 -23 54 -40s26.5 -36.667 34.5 -59s12 -45.833 12 -70.5v-2
c0 -25.333 -4.16699 -49.166 -12.5 -71.499s-20 -42 -35 -59s-33 -30.5 -54 -40.5s-44.5 -15 -70.5 -15zM665.001 69c25.333 0 45 10.5 59 31.5s21 46.167 21 75.5v2c0 14.667 -2 28.667 -6 42s-9.66699 25 -17 35s-16 17.833 -26 23.5s-21 8.5 -33 8.5
c-25.333 0 -45 -10.5 -59 -31.5s-21 -46.167 -21 -75.5v-2c0 -30.667 7.66699 -56.5 23 -77.5s35 -31.5 59 -31.5z" />
    <glyph glyph-name="ampersand" unicode="&#x26;" horiz-adv-x="732" 
d="M507 86c-32 -30 -66.334 -53.5029 -103.001 -70.5029s-77.334 -25.5 -122.001 -25.5c-34 0 -65.333 4.83301 -94 14.5s-53.667 23.5 -75 41.5s-38 39.833 -50 65.5s-18 54.167 -18 85.5v2c0 47.333 13.667 87.833 41 121.5s66.333 61.167 117 82.5
c-21.333 27.333 -37 53 -47 77s-15 49.333 -15 76v2c0 24.667 4.83301 48 14.5 70s23.334 41.333 41.001 58s39.334 29.834 65.001 39.501s54.5 14.5 86.5 14.5c28.667 0 54.667 -4.5 78 -13.5s43.5 -21.333 60.5 -37s30.167 -34.167 39.5 -55.5s14 -44 14 -68v-2
c0 -24 -3.83301 -45.5 -11.5 -64.5s-18.5 -36.333 -32.5 -52s-31 -29.5 -51 -41.5s-42.333 -22.333 -67 -31l130 -132c14 21.333 27.5 43.833 40.5 67.5s25.833 48.834 38.5 75.501l93 -49c-15.333 -30 -31 -59.167 -47 -87.5s-33.667 -55.166 -53 -80.499l117 -118l-91 -66
zM312.999 440.997c38.667 13.333 67.834 29.333 87.501 48s29.5 41.334 29.5 68.001v2c0 25.333 -7.83301 45.666 -23.5 60.999s-36.167 23 -61.5 23c-26.667 0 -48.334 -8.33301 -65.001 -25s-25 -38 -25 -64v-2c0 -18.667 4.33301 -36 13 -52s23.667 -35.667 45 -59z
M293.999 90.9971c26.667 0 51.833 6.00098 75.5 18.001s46.167 28.333 67.5 49l-166 170c-36 -15.333 -62 -34 -78 -56s-24 -44.667 -24 -68v-2c0 -32.667 11.667 -59.334 35 -80.001s53.333 -31 90 -31z" />
    <glyph glyph-name="quotesingle" unicode="'" horiz-adv-x="285" 
d="M92 728h139v-5l-100 -303h-64z" />
    <glyph glyph-name="parenleft" unicode="(" horiz-adv-x="465" 
d="M358 -147c-95.333 52 -167.166 114.668 -215.499 188.001s-72.5 159 -72.5 257v1c0 97.333 24.167 182.833 72.5 256.5s120.166 136.5 215.499 188.5l53 -81c-37.333 -24.667 -69.833 -50.167 -97.5 -76.5s-50.5 -54.333 -68.5 -84s-31.5 -61.334 -40.5 -95.001
s-13.5 -70.167 -13.5 -109.5v-1c0 -77.333 18 -144.833 54 -202.5s91.333 -111.167 166 -160.5l-53 -81v0z" />
    <glyph glyph-name="parenright" unicode=")" horiz-adv-x="465" 
d="M55 -66c74 49.333 129.167 102.832 165.5 160.499s54.5 125.5 54.5 203.5v1c0 77.333 -18.167 145 -54.5 203s-91.5 111.667 -165.5 161l53 81c94.667 -52 166.334 -114.667 215.001 -188s73 -159.333 73 -258v-1c0 -97.333 -24.333 -182.666 -73 -255.999
s-120.334 -136 -215.001 -188z" />
    <glyph glyph-name="asterisk" unicode="*" horiz-adv-x="455" 
d="M206 527l-104 -77l-36 63l118 52l-118 52l36 62l104 -76l-14 127h71l-14 -127l104 76l36 -62l-118 -52l118 -52l-36 -63l-104 77l14 -128h-71z" />
    <glyph glyph-name="plus" unicode="+" horiz-adv-x="666" 
d="M276 311h-201v110h201v200h114v-200h202v-110h-202v-200h-114v200z" />
    <glyph glyph-name="comma" unicode="," horiz-adv-x="285" 
d="M41 -97c62 12.667 91 45 87 97h-52v139h133v-118c0 -56 -13.167 -97 -39.5 -123s-64.833 -41.333 -115.5 -46z" />
    <glyph glyph-name="hyphen" unicode="-" horiz-adv-x="432" 
d="M63 377h306v-119h-306v119z" />
    <glyph glyph-name="period" unicode="." horiz-adv-x="285" 
d="M76 139h133v-139h-133v139z" />
    <glyph glyph-name="slash" unicode="/" horiz-adv-x="548" 
d="M450 830h105l-471 -963h-105z" />
    <glyph glyph-name="zero" unicode="0" horiz-adv-x="760" 
d="M379 -12c-48 0 -91.334 9.66699 -130.001 29s-71.667 46 -99 80s-48.5 73.667 -63.5 119s-22.5 94 -22.5 146v2c0 52 7.5 100.833 22.5 146.5s36.333 85.5 64 119.5s61 60.833 100 80.5s82.5 29.5 130.5 29.5c47.333 0 90.333 -9.66699 129 -29s71.834 -46 99.501 -80
s49 -73.667 64 -119s22.5 -94 22.5 -146v-2c0 -52 -7.5 -100.833 -22.5 -146.5s-36.333 -85.5 -64 -119.5s-61 -60.833 -100 -80.5s-82.5 -29.5 -130.5 -29.5zM380.999 99c28.667 0 54.6689 6.83398 78.002 20.501s43.166 32.5 59.499 56.5s28.833 52 37.5 84s13 66 13 102
v2c0 36 -4.5 70.167 -13.5 102.5s-21.833 60.5 -38.5 84.5s-36.667 43 -60 57s-49.333 21 -78 21s-54.667 -6.83301 -78 -20.5s-43.166 -32.334 -59.499 -56.001s-28.833 -51.5 -37.5 -83.5s-13 -66.333 -13 -103v-2c0 -36 4.5 -70.167 13.5 -102.5s21.667 -60.5 38 -84.5
s36.166 -43 59.499 -57s49.666 -21 78.999 -21z" />
    <glyph glyph-name="one" unicode="1" horiz-adv-x="415" 
d="M189 608l-131 -37l-27 100l194 62h86v-733h-122v608z" />
    <glyph glyph-name="two" unicode="2" horiz-adv-x="644" 
d="M55 97l252.003 215c25.333 22 46.666 41.667 63.999 59s31.5 33.666 42.5 48.999s19 30.333 24 45s7.5 30.334 7.5 47.001c0 36.667 -11.667 65.167 -35 85.5s-52 30.5 -86 30.5c-34.667 0 -64.834 -9.16699 -90.501 -27.5s-52.5 -45.833 -80.5 -82.5l-87 68
c17.333 24 34.833 45.5 52.5 64.5s37 35 58 48s44.333 22.833 70 29.5s54.5 10 86.5 10c35.333 0 67.5 -5.16699 96.5 -15.5s54 -25 75 -44s37.333 -41.833 49 -68.5s17.5 -56 17.5 -88v-2c0 -28.667 -3.66699 -54.5 -11 -77.5s-18.833 -45.167 -34.5 -66.5
s-35.334 -43 -59.001 -65s-51.5 -46.333 -83.5 -73l-155 -130h351v-108h-524v97z" />
    <glyph glyph-name="three" unicode="3" horiz-adv-x="650" 
d="M327 -12c-63.333 0 -117.67 11.6631 -163.003 34.9961s-83.666 54 -114.999 92l87 80c26 -31.333 54.5 -55.333 85.5 -72s66.833 -25 107.5 -25c37.333 0 68.333 10.333 93 31s37 48.334 37 83.001v2c0 37.333 -15.667 65.833 -47 85.5s-73 29.5 -125 29.5h-57l-21 77
l201 215h-320v107h479v-92l-206 -213c28 -3.33301 55.167 -9.5 81.5 -18.5s49.666 -21.667 69.999 -38s36.5 -36.666 48.5 -60.999s18 -53.166 18 -86.499v-2c0 -33.333 -6.16699 -64 -18.5 -92s-29.666 -52.167 -51.999 -72.5s-49.166 -36.166 -80.499 -47.499
s-65.666 -17 -102.999 -17z" />
    <glyph glyph-name="four" unicode="4" horiz-adv-x="715" 
d="M435 164h-369l-24 88l406 481h105v-468h105v-101h-105v-164h-118v164zM435 265v298l-247 -298h247z" />
    <glyph glyph-name="five" unicode="5" horiz-adv-x="654" 
d="M320 -12c-55.333 0 -104.999 10.165 -148.999 30.498s-83 47.5 -117 81.5l76 88c30 -28 60.5 -49.833 91.5 -65.5s63.5 -23.5 97.5 -23.5c45.333 0 81.333 11.833 108 35.5s40 55.167 40 94.5v2c0 18.667 -3.83301 35.834 -11.5 51.501s-18.167 28.834 -31.5 39.501
s-29.5 19 -48.5 25s-39.833 9 -62.5 9c-26.667 0 -51.167 -3.33301 -73.5 -10s-43.166 -14.667 -62.499 -24l-75 49l21 357h434v-109h-328l-12 -178c17.333 6.66699 35.166 12 53.499 16s40.166 6 65.499 6c35.333 0 68.333 -4.83301 99 -14.5s57.5 -24 80.5 -43
s41 -42.667 54 -71s19.5 -61.5 19.5 -99.5v-2c0 -37.333 -6.5 -71 -19.5 -101s-31.333 -55.667 -55 -77s-52 -37.833 -85 -49.5s-69.5 -17.5 -109.5 -17.5z" />
    <glyph glyph-name="six" unicode="6" horiz-adv-x="689" 
d="M354 -12c-44 0 -82.5 6.5 -115.5 19.5s-61.833 31.833 -86.5 56.5c-14 14 -26.333 29.333 -37 46s-19.834 36.167 -27.501 58.5s-13.5 47.666 -17.5 75.999s-6 60.833 -6 97.5v2c0 56 6.66699 108 20 156s33 89.833 59 125.5s58.333 63.667 97 84s83.667 30.5 135 30.5
c46.667 0 87.334 -7.16699 122.001 -21.5s68 -34.166 100 -59.499l-67 -95c-25.333 20.667 -50.166 36.667 -74.499 48s-52.833 17 -85.5 17c-32 0 -59.333 -7.5 -82 -22.5s-41.167 -34.333 -55.5 -58s-24.833 -49.834 -31.5 -78.501s-10.334 -56.334 -11.001 -83.001h1
c21.333 23.333 46.333 42.333 75 57s63 21.667 103 21c34.667 0 67.5 -5.16699 98.5 -15.5s58 -25.166 81 -44.499s41.167 -43.166 54.5 -71.499s20 -60.5 20 -96.5v-2c0 -36 -6.83301 -69.167 -20.5 -99.5s-32.5 -56.5 -56.5 -78.5s-52.5 -39 -85.5 -51
s-68.5 -18 -106.5 -18zM351 94c23.333 0 44.166 3.5 62.499 10.5s34 16.5 47 28.5s22.833 26.167 29.5 42.5s10 34.166 10 53.499v2c0 38 -13.667 69.333 -41 94s-64 37 -110 37c-23.333 0 -44.5 -3.5 -63.5 -10.5s-35 -16.5 -48 -28.5s-23 -26 -30 -42s-10.5 -33 -10.5 -51
v-2c0 -19.333 3.66699 -37.166 11 -53.499s17.833 -30.5 31.5 -42.5s29.834 -21.333 48.501 -28s39.667 -10 63 -10z" />
    <glyph glyph-name="seven" unicode="7" horiz-adv-x="640" 
d="M445 620h-370v108h509v-92l-328 -636h-138z" />
    <glyph glyph-name="eight" unicode="8" horiz-adv-x="663" 
d="M332 -10c-40 0 -76.835 5 -110.502 15s-63 24 -88 42s-44.5 39.833 -58.5 65.5s-21 54.167 -21 85.5v2c0 44 11.833 80.333 35.5 109s56.167 51.334 97.5 68.001c-30.667 16.667 -56.334 37.834 -77.001 63.501s-31 58.834 -31 99.501v2c0 28 6.5 54 19.5 78
s30.667 44.667 53 62s49 31 80 41s64.5 15 100.5 15s69.333 -4.83301 100 -14.5s57.334 -23.334 80.001 -41.001s40.334 -38.5 53.001 -62.5s19 -50 19 -78v-2c0 -40.667 -10.167 -73.834 -30.5 -99.501s-46.166 -46.834 -77.499 -63.501
c40 -17.333 72.167 -39.833 96.5 -67.5s36.5 -63.167 36.5 -106.5v-2c0 -32.667 -7 -62 -21 -88s-33.333 -48.167 -58 -66.5s-54 -32.333 -88 -42s-70.667 -14.5 -110 -14.5zM331.998 419c38.667 0 70.501 10.166 95.501 30.499s37.5 46.5 37.5 78.5v3
c0 14 -3.16699 27.333 -9.5 40s-15.333 23.834 -27 33.501s-25.667 17.167 -42 22.5s-34.5 8 -54.5 8s-38.167 -2.66699 -54.5 -8s-30.5 -12.666 -42.5 -21.999s-21.167 -20.333 -27.5 -33s-9.5 -26.334 -9.5 -41.001v-2c0 -16 3.33301 -30.667 10 -44s16 -25 28 -35
s26.167 -17.667 42.5 -23s34.166 -8 53.499 -8zM331.999 92.999c49.333 0 87.667 10.833 115 32.5s41 48.167 41 79.5v2c0 16.667 -4 32 -12 46s-19 26 -33 36s-30.5 17.667 -49.5 23s-39.5 8 -61.5 8s-42.667 -2.66699 -62 -8s-36 -13 -50 -23s-25 -22 -33 -36
s-12 -29.333 -12 -46v-2c0 -30.667 13.667 -57 41 -79s66 -33 116 -33z" />
    <glyph glyph-name="nine" unicode="9" horiz-adv-x="689" 
d="M318 99c32.667 0 60.501 7.50098 83.501 22.501s41.667 34.167 56 57.5s25 49 32 77s10.5 55 10.5 81h-1c-21.333 -24 -46.166 -43.5 -74.499 -58.5s-62.166 -22.167 -101.499 -21.5c-38.667 0 -73.834 5.5 -105.501 16.5s-58.667 26.5 -81 46.5
s-39.666 44.167 -51.999 72.5s-18.5 59.833 -18.5 94.5v2c0 36 6.5 69.167 19.5 99.5s31.5 56.833 55.5 79.5s52.5 40.334 85.5 53.001s69.5 19 109.5 19c46 0 84.667 -6.5 116 -19.5s59.666 -32.167 84.999 -57.5c13.333 -13.333 25.5 -28.5 36.5 -45.5
s20.333 -36.667 28 -59s13.5 -47.833 17.5 -76.5s6 -61 6 -97v-2c0 -58 -7 -111.333 -21 -160s-34.333 -90.334 -61 -125.001s-59.167 -61.667 -97.5 -81s-81.833 -29 -130.5 -29c-50.667 0 -94.334 8.16699 -131.001 24.5s-70.334 37.166 -101.001 62.499l66 94
c28 -23.333 55.167 -40.833 81.5 -52.5s55.5 -17.5 87.5 -17.5zM341.001 360.001c23.333 0 44.499 3.66797 63.499 11.001s35 17.166 48 29.499s23 26.666 30 42.999s10.5 33.5 10.5 51.5v2c0 19.333 -3.66699 37.333 -11 54s-17.833 31.167 -31.5 43.5s-30.167 22 -49.5 29
s-40.666 10.5 -63.999 10.5s-44.166 -3.66699 -62.499 -11s-33.833 -17.166 -46.5 -29.499s-22.334 -27 -29.001 -44s-10 -35.167 -10 -54.5v-2c0 -19.333 3.66699 -37.166 11 -53.499s17.5 -30.333 30.5 -42s28.833 -20.834 47.5 -27.501s39.667 -10 63 -10z" />
    <glyph glyph-name="colon" unicode=":" horiz-adv-x="295" 
d="M81 548h133v-139h-133v139zM81 139h133v-139h-133v139z" />
    <glyph glyph-name="semicolon" unicode=";" horiz-adv-x="295" 
d="M81 548h133v-139h-133v139zM46 -97c62 12.667 91 45 87 97h-52v139h133v-118c0 -56 -13 -97 -39 -123s-64.667 -41.333 -116 -46z" />
    <glyph glyph-name="less" unicode="&#x3c;" horiz-adv-x="666" 
d="M73 312v108l496 231v-115l-375 -169l375 -170v-116z" />
    <glyph glyph-name="equal" unicode="=" horiz-adv-x="666" 
d="M84 551h499v-112h-499v112zM84 293h499v-112h-499v112z" />
    <glyph glyph-name="greater" unicode="&#x3e;" horiz-adv-x="666" 
d="M97 196l376 169l-376 170v116l496 -231v-108l-496 -231v115z" />
    <glyph glyph-name="question" unicode="?" horiz-adv-x="570" 
d="M200 396l5.00098 4.99805c67.333 2.66699 116.5 14.334 147.5 35.001s46.5 49 46.5 85v2c0 30 -10.833 54.667 -32.5 74s-51.5 29 -89.5 29c-34 0 -64.833 -7.16699 -92.5 -21.5s-54.167 -35.166 -79.5 -62.499l-75 79c30 34.667 65 62.667 105 84s88.333 32 145 32
c36 0 69 -5 99 -15s55.5 -24.167 76.5 -42.5s37.333 -40.5 49 -66.5s17.5 -55 17.5 -87v-2c0 -32.667 -5.5 -61 -16.5 -85s-26 -44.5 -45 -61.5s-41.333 -30.667 -67 -41s-52.834 -17.833 -81.501 -22.5l-11 -86h-80zM192.001 138.998h134v-139h-134v139z" />
    <glyph glyph-name="at" unicode="@" horiz-adv-x="1027" 
d="M523 -168c-66.667 0 -128.335 11.999 -185.002 35.999s-105.667 56.5 -147 97.5s-73.666 89 -96.999 144s-35 113.5 -35 175.5s11.833 120.667 35.5 176s56 103.666 97 144.999s89.167 74 144.5 98s115 36 179 36c63.333 0 122.666 -11.333 177.999 -34
s103.333 -53 144 -91s72.667 -81.667 96 -131s35 -101 35 -155c0 -44 -5.5 -82.167 -16.5 -114.5s-25.833 -59.166 -44.5 -80.499s-40 -37.166 -64 -47.499s-49.333 -15.5 -76 -15.5c-40 0 -72.667 7.33301 -98 22s-43.666 32 -54.999 52c-19.333 -20 -42 -37.333 -68 -52
s-57.333 -22 -94 -22c-26 0 -50.5 4.5 -73.5 13.5s-43 22 -60 39s-30.333 37.5 -40 61.5s-14.5 51 -14.5 81c0 36.667 6.66699 70.834 20 102.501s31 59.167 53 82.5s47.167 41.666 75.5 54.999s57.5 20 87.5 20c38 0 68.667 -7.83301 92 -23.5s42 -33.834 56 -54.501l12 63
l97 -15l-45 -259c-1.33301 -9.33301 -2.5 -18.166 -3.5 -26.499s-1.5 -15.166 -1.5 -20.499c0 -22.667 7.16699 -40.834 21.5 -54.501s34.5 -20.5 60.5 -20.5c18.667 0 36.334 4.5 53.001 13.5s31.334 22.333 44.001 40s22.667 39.834 30 66.501s11 58 11 94
c0 48 -10.5 94.333 -31.5 139s-49.833 84.334 -86.5 119.001s-80.167 62.5 -130.5 83.5s-104.833 31.5 -163.5 31.5c-59.333 0 -114.333 -11 -165 -33s-94.5 -51.833 -131.5 -89.5s-66 -81.834 -87 -132.501s-31.5 -104.667 -31.5 -162s10.5 -111.333 31.5 -162
s50.167 -94.667 87.5 -132s81.833 -66.833 133.5 -88.5s108.5 -32.5 170.5 -32.5c52 0 97.833 5.83301 137.5 17.5s79.5 29.167 119.5 52.5l19 -30c-40.667 -24.667 -83.334 -43.834 -128.001 -57.501s-94 -20.5 -148 -20.5zM478.999 156.999
c17.333 0 34.166 3.66797 50.499 11.001s30.833 17.666 43.5 30.999c15.333 15.333 27.833 33.833 37.5 55.5s14.5 45.167 14.5 70.5c0 34 -10.5 61.5 -31.5 82.5s-47.5 31.5 -79.5 31.5c-37.333 0 -69.666 -14.333 -96.999 -43c-15.333 -15.333 -27.5 -33.5 -36.5 -54.5
s-13.5 -44.167 -13.5 -69.5c0 -36.667 10.333 -65 31 -85s47.667 -30 81 -30z" />
    <glyph glyph-name="A" unicode="A" horiz-adv-x="830" 
d="M358 733h114l321 -733h-129l-76 177h-350l-76 -177h-126zM543 287l-130 300l-130 -300h260z" />
    <glyph glyph-name="A" unicode="&#x1fa;" horiz-adv-x="830" 
d="M358 733h114l321 -733h-129l-76 177h-350l-76 -177h-126zM543 287l-130 300l-130 -300h260z" />
    <glyph glyph-name="A" unicode="&#x104;" horiz-adv-x="830" 
d="M358 733h114l321 -733h-129l-76 177h-350l-76 -177h-126zM543 287l-130 300l-130 -300h260z" />
    <glyph glyph-name="A" unicode="&#x102;" horiz-adv-x="830" 
d="M358 733h114l321 -733h-129l-76 177h-350l-76 -177h-126zM543 287l-130 300l-130 -300h260z" />
    <glyph glyph-name="A" unicode="&#x100;" horiz-adv-x="830" 
d="M358 733h114l321 -733h-129l-76 177h-350l-76 -177h-126zM543 287l-130 300l-130 -300h260z" />
    <glyph glyph-name="B" unicode="B" horiz-adv-x="759" 
d="M99 728l325.001 0.00195312c41.333 0 78 -5.5 110 -16.5s58.333 -26.833 79 -47.5c32.667 -32.667 49 -73 49 -121v-2c0 -22 -3 -41.5 -9 -58.5s-13.833 -32.167 -23.5 -45.5s-20.834 -24.833 -33.501 -34.5s-25.667 -17.834 -39 -24.501
c21.333 -7.33301 40.833 -16 58.5 -26s33 -22 46 -36s23.167 -30.5 30.5 -49.5s11 -40.833 11 -65.5v-2c0 -32 -6.5 -60.5 -19.5 -85.5s-31.167 -45.833 -54.5 -62.5s-51.5 -29.334 -84.5 -38.001s-69.833 -13 -110.5 -13h-335v728zM540.001 524.002
c0 30 -11.5 53.333 -34.5 70s-55.5 25 -97.5 25h-189v-200h180c42 0 76 8.5 102 25.5s39 42.833 39 77.5v2zM580.001 214.002c0 32 -12.667 56.833 -38 74.5s-64 26.5 -116 26.5h-207v-206h216c45.333 0 80.833 8.66699 106.5 26s38.5 43 38.5 77v2z" />
    <glyph glyph-name="C" unicode="C" horiz-adv-x="777" 
d="M436 -12c-53.333 0 -102.497 9.66699 -147.497 29s-84 45.833 -117 79.5s-58.833 73.334 -77.5 119.001s-28 94.5 -28 146.5v2c0 52 9.33301 100.833 28 146.5s44.5 85.5 77.5 119.5s72.5 60.833 118.5 80.5s96.333 29.5 151 29.5c33.333 0 63.666 -2.66699 90.999 -8
s52.5 -13 75.5 -23s44.167 -22 63.5 -36s37.666 -29.333 54.999 -46l-80 -91c-29.333 28 -60.333 50.167 -93 66.5s-70.334 24.5 -113.001 24.5c-35.333 0 -68 -6.83301 -98 -20.5s-55.833 -32.167 -77.5 -55.5s-38.667 -51 -51 -83s-18.5 -66 -18.5 -102v-2
c0 -36.667 6.16699 -71 18.5 -103s29.333 -59.833 51 -83.5s47.5 -42.334 77.5 -56.001s62.667 -20.5 98 -20.5c45.333 0 84.166 8.33301 116.499 25s64.166 40 95.499 70l79 -80c-19.333 -19.333 -39.166 -37 -59.499 -53s-42.166 -29.5 -65.499 -40.5s-49 -19.5 -77 -25.5
s-59 -9 -93 -9z" />
    <glyph glyph-name="C" unicode="&#x10c;" horiz-adv-x="777" 
d="M436 -12c-53.333 0 -102.497 9.66699 -147.497 29s-84 45.833 -117 79.5s-58.833 73.334 -77.5 119.001s-28 94.5 -28 146.5v2c0 52 9.33301 100.833 28 146.5s44.5 85.5 77.5 119.5s72.5 60.833 118.5 80.5s96.333 29.5 151 29.5c33.333 0 63.666 -2.66699 90.999 -8
s52.5 -13 75.5 -23s44.167 -22 63.5 -36s37.666 -29.333 54.999 -46l-80 -91c-29.333 28 -60.333 50.167 -93 66.5s-70.334 24.5 -113.001 24.5c-35.333 0 -68 -6.83301 -98 -20.5s-55.833 -32.167 -77.5 -55.5s-38.667 -51 -51 -83s-18.5 -66 -18.5 -102v-2
c0 -36.667 6.16699 -71 18.5 -103s29.333 -59.833 51 -83.5s47.5 -42.334 77.5 -56.001s62.667 -20.5 98 -20.5c45.333 0 84.166 8.33301 116.499 25s64.166 40 95.499 70l79 -80c-19.333 -19.333 -39.166 -37 -59.499 -53s-42.166 -29.5 -65.499 -40.5s-49 -19.5 -77 -25.5
s-59 -9 -93 -9z" />
    <glyph glyph-name="C" unicode="&#x10a;" horiz-adv-x="777" 
d="M436 -12c-53.333 0 -102.497 9.66699 -147.497 29s-84 45.833 -117 79.5s-58.833 73.334 -77.5 119.001s-28 94.5 -28 146.5v2c0 52 9.33301 100.833 28 146.5s44.5 85.5 77.5 119.5s72.5 60.833 118.5 80.5s96.333 29.5 151 29.5c33.333 0 63.666 -2.66699 90.999 -8
s52.5 -13 75.5 -23s44.167 -22 63.5 -36s37.666 -29.333 54.999 -46l-80 -91c-29.333 28 -60.333 50.167 -93 66.5s-70.334 24.5 -113.001 24.5c-35.333 0 -68 -6.83301 -98 -20.5s-55.833 -32.167 -77.5 -55.5s-38.667 -51 -51 -83s-18.5 -66 -18.5 -102v-2
c0 -36.667 6.16699 -71 18.5 -103s29.333 -59.833 51 -83.5s47.5 -42.334 77.5 -56.001s62.667 -20.5 98 -20.5c45.333 0 84.166 8.33301 116.499 25s64.166 40 95.499 70l79 -80c-19.333 -19.333 -39.166 -37 -59.499 -53s-42.166 -29.5 -65.499 -40.5s-49 -19.5 -77 -25.5
s-59 -9 -93 -9z" />
    <glyph glyph-name="C" unicode="&#x106;" horiz-adv-x="777" 
d="M436 -12c-53.333 0 -102.497 9.66699 -147.497 29s-84 45.833 -117 79.5s-58.833 73.334 -77.5 119.001s-28 94.5 -28 146.5v2c0 52 9.33301 100.833 28 146.5s44.5 85.5 77.5 119.5s72.5 60.833 118.5 80.5s96.333 29.5 151 29.5c33.333 0 63.666 -2.66699 90.999 -8
s52.5 -13 75.5 -23s44.167 -22 63.5 -36s37.666 -29.333 54.999 -46l-80 -91c-29.333 28 -60.333 50.167 -93 66.5s-70.334 24.5 -113.001 24.5c-35.333 0 -68 -6.83301 -98 -20.5s-55.833 -32.167 -77.5 -55.5s-38.667 -51 -51 -83s-18.5 -66 -18.5 -102v-2
c0 -36.667 6.16699 -71 18.5 -103s29.333 -59.833 51 -83.5s47.5 -42.334 77.5 -56.001s62.667 -20.5 98 -20.5c45.333 0 84.166 8.33301 116.499 25s64.166 40 95.499 70l79 -80c-19.333 -19.333 -39.166 -37 -59.499 -53s-42.166 -29.5 -65.499 -40.5s-49 -19.5 -77 -25.5
s-59 -9 -93 -9z" />
    <glyph glyph-name="D" unicode="D" horiz-adv-x="821" 
d="M99 728h269c57.333 0 109.666 -9.16699 156.999 -27.5s88 -43.833 122 -76.5s60.5 -71 79.5 -115s28.5 -91.667 28.5 -143v-2c0 -51.333 -9.5 -99.166 -28.5 -143.499s-45.5 -82.833 -79.5 -115.5s-74.667 -58.334 -122 -77.001s-99.666 -28 -156.999 -28h-269v728z
M222 617v-506h146c38.667 0 74 6.33301 106 19s59.167 30.167 81.5 52.5s39.666 48.833 51.999 79.5s18.5 64 18.5 100v2c0 36 -6.16699 69.5 -18.5 100.5s-29.666 57.667 -51.999 80s-49.5 40 -81.5 53s-67.333 19.5 -106 19.5h-146z" />
    <glyph glyph-name="D" unicode="&#x110;" horiz-adv-x="821" 
d="M99 728h269c57.333 0 109.666 -9.16699 156.999 -27.5s88 -43.833 122 -76.5s60.5 -71 79.5 -115s28.5 -91.667 28.5 -143v-2c0 -51.333 -9.5 -99.166 -28.5 -143.499s-45.5 -82.833 -79.5 -115.5s-74.667 -58.334 -122 -77.001s-99.666 -28 -156.999 -28h-269v728z
M222 617v-506h146c38.667 0 74 6.33301 106 19s59.167 30.167 81.5 52.5s39.666 48.833 51.999 79.5s18.5 64 18.5 100v2c0 36 -6.16699 69.5 -18.5 100.5s-29.666 57.667 -51.999 80s-49.5 40 -81.5 53s-67.333 19.5 -106 19.5h-146z" />
    <glyph glyph-name="D" unicode="&#x10e;" horiz-adv-x="821" 
d="M99 728h269c57.333 0 109.666 -9.16699 156.999 -27.5s88 -43.833 122 -76.5s60.5 -71 79.5 -115s28.5 -91.667 28.5 -143v-2c0 -51.333 -9.5 -99.166 -28.5 -143.499s-45.5 -82.833 -79.5 -115.5s-74.667 -58.334 -122 -77.001s-99.666 -28 -156.999 -28h-269v728z
M222 617v-506h146c38.667 0 74 6.33301 106 19s59.167 30.167 81.5 52.5s39.666 48.833 51.999 79.5s18.5 64 18.5 100v2c0 36 -6.16699 69.5 -18.5 100.5s-29.666 57.667 -51.999 80s-49.5 40 -81.5 53s-67.333 19.5 -106 19.5h-146z" />
    <glyph glyph-name="E" unicode="E" horiz-adv-x="705" 
d="M99 728h538v-110h-416v-196h369v-110h-369v-202h421v-110h-543v728z" />
    <glyph glyph-name="F" unicode="F" horiz-adv-x="690" 
d="M99 728h539v-112h-416v-205h370v-112h-370v-299h-123v728z" />
    <glyph glyph-name="G" unicode="G" horiz-adv-x="823" 
d="M443 -12c-57.333 0 -109.168 9.50195 -155.501 28.502s-85.833 45.333 -118.5 79s-58 73.167 -76 118.5s-27 94.666 -27 147.999v2c0 50.667 9.16699 98.834 27.5 144.501s44 85.667 77 120s72.5 61.5 118.5 81.5s96.333 30 151 30c63.333 0 116.5 -8.5 159.5 -25.5
s83.167 -41.167 120.5 -72.5l-78 -93c-28.667 24 -58.5 43 -89.5 57s-69.833 21 -116.5 21c-34.667 0 -66.667 -7 -96 -21s-54.833 -32.833 -76.5 -56.5s-38.5 -51.334 -50.5 -83.001s-18 -65.167 -18 -100.5v-2c0 -38 6 -73.167 18 -105.5s29 -60.333 51 -84
s48.5 -42.167 79.5 -55.5s65.5 -20 103.5 -20c36 0 69.333 5.16699 100 15.5s57.334 24.166 80.001 41.499v141h-190v108h309v-304c-36 -31.333 -79.5 -58 -130.5 -80s-108.5 -33 -172.5 -33z" />
    <glyph glyph-name="G" unicode="&#x122;" horiz-adv-x="823" 
d="M443 -12c-57.333 0 -109.168 9.50195 -155.501 28.502s-85.833 45.333 -118.5 79s-58 73.167 -76 118.5s-27 94.666 -27 147.999v2c0 50.667 9.16699 98.834 27.5 144.501s44 85.667 77 120s72.5 61.5 118.5 81.5s96.333 30 151 30c63.333 0 116.5 -8.5 159.5 -25.5
s83.167 -41.167 120.5 -72.5l-78 -93c-28.667 24 -58.5 43 -89.5 57s-69.833 21 -116.5 21c-34.667 0 -66.667 -7 -96 -21s-54.833 -32.833 -76.5 -56.5s-38.5 -51.334 -50.5 -83.001s-18 -65.167 -18 -100.5v-2c0 -38 6 -73.167 18 -105.5s29 -60.333 51 -84
s48.5 -42.167 79.5 -55.5s65.5 -20 103.5 -20c36 0 69.333 5.16699 100 15.5s57.334 24.166 80.001 41.499v141h-190v108h309v-304c-36 -31.333 -79.5 -58 -130.5 -80s-108.5 -33 -172.5 -33z" />
    <glyph glyph-name="G" unicode="&#x120;" horiz-adv-x="823" 
d="M443 -12c-57.333 0 -109.168 9.50195 -155.501 28.502s-85.833 45.333 -118.5 79s-58 73.167 -76 118.5s-27 94.666 -27 147.999v2c0 50.667 9.16699 98.834 27.5 144.501s44 85.667 77 120s72.5 61.5 118.5 81.5s96.333 30 151 30c63.333 0 116.5 -8.5 159.5 -25.5
s83.167 -41.167 120.5 -72.5l-78 -93c-28.667 24 -58.5 43 -89.5 57s-69.833 21 -116.5 21c-34.667 0 -66.667 -7 -96 -21s-54.833 -32.833 -76.5 -56.5s-38.5 -51.334 -50.5 -83.001s-18 -65.167 -18 -100.5v-2c0 -38 6 -73.167 18 -105.5s29 -60.333 51 -84
s48.5 -42.167 79.5 -55.5s65.5 -20 103.5 -20c36 0 69.333 5.16699 100 15.5s57.334 24.166 80.001 41.499v141h-190v108h309v-304c-36 -31.333 -79.5 -58 -130.5 -80s-108.5 -33 -172.5 -33z" />
    <glyph glyph-name="G" unicode="&#x11e;" horiz-adv-x="823" 
d="M443 -12c-57.333 0 -109.168 9.50195 -155.501 28.502s-85.833 45.333 -118.5 79s-58 73.167 -76 118.5s-27 94.666 -27 147.999v2c0 50.667 9.16699 98.834 27.5 144.501s44 85.667 77 120s72.5 61.5 118.5 81.5s96.333 30 151 30c63.333 0 116.5 -8.5 159.5 -25.5
s83.167 -41.167 120.5 -72.5l-78 -93c-28.667 24 -58.5 43 -89.5 57s-69.833 21 -116.5 21c-34.667 0 -66.667 -7 -96 -21s-54.833 -32.833 -76.5 -56.5s-38.5 -51.334 -50.5 -83.001s-18 -65.167 -18 -100.5v-2c0 -38 6 -73.167 18 -105.5s29 -60.333 51 -84
s48.5 -42.167 79.5 -55.5s65.5 -20 103.5 -20c36 0 69.333 5.16699 100 15.5s57.334 24.166 80.001 41.499v141h-190v108h309v-304c-36 -31.333 -79.5 -58 -130.5 -80s-108.5 -33 -172.5 -33z" />
    <glyph glyph-name="H" unicode="H" horiz-adv-x="798" 
d="M99 728h123v-305h355v305h123v-728h-123v309h-355v-309h-123v728z" />
    <glyph glyph-name="I" unicode="I" horiz-adv-x="335" 
d="M106 728h123v-728h-123v728z" />
    <glyph glyph-name="J" unicode="J" horiz-adv-x="589" 
d="M259 -10c-56 0 -102.667 11.333 -140 34s-68 50.667 -92 84l81 83c21.333 -28 43.5 -49.667 66.5 -65s50.5 -23 82.5 -23c36 0 64.833 12 86.5 36s32.5 61 32.5 111v478h126v-481c0 -43.333 -6 -81 -18 -113s-28.667 -58.667 -50 -80s-46.833 -37.333 -76.5 -48
s-62.5 -16 -98.5 -16z" />
    <glyph glyph-name="K" unicode="K" horiz-adv-x="762" 
d="M99 728h123v-374l353 374h153l-304 -313l317 -415h-150l-251 330l-118 -121v-209h-123v728z" />
    <glyph glyph-name="K" unicode="&#x136;" horiz-adv-x="762" 
d="M99 728h123v-374l353 374h153l-304 -313l317 -415h-150l-251 330l-118 -121v-209h-123v728z" />
    <glyph glyph-name="L" unicode="L" horiz-adv-x="650" 
d="M99 728h123v-616h385v-112h-508v728z" />
    <glyph glyph-name="L" unicode="&#x13f;" horiz-adv-x="650" 
d="M99 728h123v-616h385v-112h-508v728z" />
    <glyph glyph-name="L" unicode="&#x13d;" horiz-adv-x="650" 
d="M99 728h123v-616h385v-112h-508v728z" />
    <glyph glyph-name="L" unicode="&#x13b;" horiz-adv-x="650" 
d="M99 728h123v-616h385v-112h-508v728z" />
    <glyph glyph-name="L" unicode="&#x139;" horiz-adv-x="650" 
d="M99 728h123v-616h385v-112h-508v728z" />
    <glyph glyph-name="M" unicode="M" horiz-adv-x="911" 
d="M99 728h130l226 -351l227 351h130v-728h-122v530l-234 -349h-4l-233 347v-528h-120v728z" />
    <glyph glyph-name="N" unicode="N" horiz-adv-x="830" 
d="M99 728h113l398 -513v513h121v-728h-103l-408 527v-527h-121v728z" />
    <glyph glyph-name="O" unicode="O" horiz-adv-x="892" 
d="M445 -12c-56 0 -107.167 9.83105 -153.5 29.498s-86.166 46.5 -119.499 80.5s-59.333 73.667 -78 119s-28 93.666 -28 144.999v2c0 50.667 9.33301 98.834 28 144.501s44.834 85.667 78.501 120s73.834 61.5 120.501 81.5s98 30 154 30s107.167 -10 153.5 -30
s86.166 -47 119.499 -81s59.333 -73.667 78 -119s28 -93.333 28 -144v-2c0 -51.333 -9.33301 -99.666 -28 -144.999s-44.834 -85.166 -78.501 -119.499s-73.834 -61.5 -120.501 -81.5s-98 -30 -154 -30zM447 100.998c36.667 0 70.334 6.83301 101.001 20.5
s57 32.334 79 56.001s39.167 51.334 51.5 83.001s18.5 65.5 18.5 101.5v2c0 36 -6.16699 70 -18.5 102s-29.666 59.833 -51.999 83.5s-49 42.5 -80 56.5s-64.833 21 -101.5 21s-70.334 -6.83301 -101.001 -20.5s-57 -32.334 -79 -56.001s-39.167 -51.334 -51.5 -83.001
s-18.5 -65.5 -18.5 -101.5v-2c0 -36 6.16699 -70 18.5 -102s29.666 -59.833 51.999 -83.5s49 -42.5 80 -56.5s64.833 -21 101.5 -21z" />
    <glyph glyph-name="O" unicode="&#x1fe;" horiz-adv-x="892" 
d="M445 -12c-56 0 -107.167 9.83105 -153.5 29.498s-86.166 46.5 -119.499 80.5s-59.333 73.667 -78 119s-28 93.666 -28 144.999v2c0 50.667 9.33301 98.834 28 144.501s44.834 85.667 78.501 120s73.834 61.5 120.501 81.5s98 30 154 30s107.167 -10 153.5 -30
s86.166 -47 119.499 -81s59.333 -73.667 78 -119s28 -93.333 28 -144v-2c0 -51.333 -9.33301 -99.666 -28 -144.999s-44.834 -85.166 -78.501 -119.499s-73.834 -61.5 -120.501 -81.5s-98 -30 -154 -30zM447 100.998c36.667 0 70.334 6.83301 101.001 20.5
s57 32.334 79 56.001s39.167 51.334 51.5 83.001s18.5 65.5 18.5 101.5v2c0 36 -6.16699 70 -18.5 102s-29.666 59.833 -51.999 83.5s-49 42.5 -80 56.5s-64.833 21 -101.5 21s-70.334 -6.83301 -101.001 -20.5s-57 -32.334 -79 -56.001s-39.167 -51.334 -51.5 -83.001
s-18.5 -65.5 -18.5 -101.5v-2c0 -36 6.16699 -70 18.5 -102s29.666 -59.833 51.999 -83.5s49 -42.5 80 -56.5s64.833 -21 101.5 -21z" />
    <glyph glyph-name="O" unicode="&#x150;" horiz-adv-x="892" 
d="M445 -12c-56 0 -107.167 9.83105 -153.5 29.498s-86.166 46.5 -119.499 80.5s-59.333 73.667 -78 119s-28 93.666 -28 144.999v2c0 50.667 9.33301 98.834 28 144.501s44.834 85.667 78.501 120s73.834 61.5 120.501 81.5s98 30 154 30s107.167 -10 153.5 -30
s86.166 -47 119.499 -81s59.333 -73.667 78 -119s28 -93.333 28 -144v-2c0 -51.333 -9.33301 -99.666 -28 -144.999s-44.834 -85.166 -78.501 -119.499s-73.834 -61.5 -120.501 -81.5s-98 -30 -154 -30zM447 100.998c36.667 0 70.334 6.83301 101.001 20.5
s57 32.334 79 56.001s39.167 51.334 51.5 83.001s18.5 65.5 18.5 101.5v2c0 36 -6.16699 70 -18.5 102s-29.666 59.833 -51.999 83.5s-49 42.5 -80 56.5s-64.833 21 -101.5 21s-70.334 -6.83301 -101.001 -20.5s-57 -32.334 -79 -56.001s-39.167 -51.334 -51.5 -83.001
s-18.5 -65.5 -18.5 -101.5v-2c0 -36 6.16699 -70 18.5 -102s29.666 -59.833 51.999 -83.5s49 -42.5 80 -56.5s64.833 -21 101.5 -21z" />
    <glyph glyph-name="O" unicode="&#x14e;" horiz-adv-x="892" 
d="M445 -12c-56 0 -107.167 9.83105 -153.5 29.498s-86.166 46.5 -119.499 80.5s-59.333 73.667 -78 119s-28 93.666 -28 144.999v2c0 50.667 9.33301 98.834 28 144.501s44.834 85.667 78.501 120s73.834 61.5 120.501 81.5s98 30 154 30s107.167 -10 153.5 -30
s86.166 -47 119.499 -81s59.333 -73.667 78 -119s28 -93.333 28 -144v-2c0 -51.333 -9.33301 -99.666 -28 -144.999s-44.834 -85.166 -78.501 -119.499s-73.834 -61.5 -120.501 -81.5s-98 -30 -154 -30zM447 100.998c36.667 0 70.334 6.83301 101.001 20.5
s57 32.334 79 56.001s39.167 51.334 51.5 83.001s18.5 65.5 18.5 101.5v2c0 36 -6.16699 70 -18.5 102s-29.666 59.833 -51.999 83.5s-49 42.5 -80 56.5s-64.833 21 -101.5 21s-70.334 -6.83301 -101.001 -20.5s-57 -32.334 -79 -56.001s-39.167 -51.334 -51.5 -83.001
s-18.5 -65.5 -18.5 -101.5v-2c0 -36 6.16699 -70 18.5 -102s29.666 -59.833 51.999 -83.5s49 -42.5 80 -56.5s64.833 -21 101.5 -21z" />
    <glyph glyph-name="O" unicode="&#x14c;" horiz-adv-x="892" 
d="M445 -12c-56 0 -107.167 9.83105 -153.5 29.498s-86.166 46.5 -119.499 80.5s-59.333 73.667 -78 119s-28 93.666 -28 144.999v2c0 50.667 9.33301 98.834 28 144.501s44.834 85.667 78.501 120s73.834 61.5 120.501 81.5s98 30 154 30s107.167 -10 153.5 -30
s86.166 -47 119.499 -81s59.333 -73.667 78 -119s28 -93.333 28 -144v-2c0 -51.333 -9.33301 -99.666 -28 -144.999s-44.834 -85.166 -78.501 -119.499s-73.834 -61.5 -120.501 -81.5s-98 -30 -154 -30zM447 100.998c36.667 0 70.334 6.83301 101.001 20.5
s57 32.334 79 56.001s39.167 51.334 51.5 83.001s18.5 65.5 18.5 101.5v2c0 36 -6.16699 70 -18.5 102s-29.666 59.833 -51.999 83.5s-49 42.5 -80 56.5s-64.833 21 -101.5 21s-70.334 -6.83301 -101.001 -20.5s-57 -32.334 -79 -56.001s-39.167 -51.334 -51.5 -83.001
s-18.5 -65.5 -18.5 -101.5v-2c0 -36 6.16699 -70 18.5 -102s29.666 -59.833 51.999 -83.5s49 -42.5 80 -56.5s64.833 -21 101.5 -21z" />
    <glyph glyph-name="P" unicode="P" horiz-adv-x="703" 
d="M99 728h284.999c42 0 80 -5.83301 114 -17.5s63 -28 87 -49s42.5 -46.333 55.5 -76s19.5 -62.5 19.5 -98.5v-3c0 -40.667 -7.66699 -76.5 -23 -107.5s-36.166 -56.833 -62.499 -77.5s-57 -36.167 -92 -46.5s-72.5 -15.5 -112.5 -15.5h-148v-237h-123v728zM373.999 347
c50 0 89.499 12.5 118.499 37.5s43.5 57.167 43.5 96.5v2c0 44 -14.667 77.333 -44 100s-68.666 34 -117.999 34h-152v-270h152z" />
    <glyph glyph-name="Q" unicode="Q" horiz-adv-x="892" 
d="M756 -22l-88.0039 78.999c-31.333 -21.333 -65.666 -38.166 -102.999 -50.499s-77.333 -18.5 -120 -18.5c-56 0 -107.167 9.83301 -153.5 29.5s-86.166 46.5 -119.499 80.5s-59.333 73.667 -78 119s-28 93.666 -28 144.999v2c0 50.667 9.33301 98.834 28 144.501
s44.834 85.667 78.501 120s73.834 61.5 120.501 81.5s98 30 154 30s107.167 -10 153.5 -30s86.166 -47 119.499 -81s59.333 -73.667 78 -119s28 -93.333 28 -144v-2c0 -42 -6.66699 -82.167 -20 -120.5s-31.666 -73.5 -54.999 -105.5l84 -72zM446.996 100.999
c24.667 0 47.833 3.00195 69.5 9.00195s41.834 14.667 60.501 26l-127 109l80 90l129 -117c12 20.667 21.333 43 28 67s10 49.667 10 77v2c0 36 -6.16699 70 -18.5 102s-29.666 59.833 -51.999 83.5s-49 42.5 -80 56.5s-64.833 21 -101.5 21
s-70.334 -6.83301 -101.001 -20.5s-57 -32.334 -79 -56.001s-39.167 -51.334 -51.5 -83.001s-18.5 -65.5 -18.5 -101.5v-2c0 -36 6.16699 -70 18.5 -102s29.666 -59.833 51.999 -83.5s49 -42.5 80 -56.5s64.833 -21 101.5 -21z" />
    <glyph glyph-name="R" unicode="R" horiz-adv-x="760" 
d="M99 728h323.001c46 0 86.667 -6.33301 122 -19s64.666 -30.667 87.999 -54c39.333 -39.333 59 -91.333 59 -156v-2c0 -60 -16.333 -108 -49 -144s-75 -61 -127 -75l200 -278h-146l-182 257h-165v-257h-123v728zM413.001 366c46.667 0 84 11.333 112 34s42 53 42 91v2
c0 40 -13.667 70.667 -41 92s-65.333 32 -114 32h-190v-251h191z" />
    <glyph glyph-name="R" unicode="&#x158;" horiz-adv-x="760" 
d="M99 728h323.001c46 0 86.667 -6.33301 122 -19s64.666 -30.667 87.999 -54c39.333 -39.333 59 -91.333 59 -156v-2c0 -60 -16.333 -108 -49 -144s-75 -61 -127 -75l200 -278h-146l-182 257h-165v-257h-123v728zM413.001 366c46.667 0 84 11.333 112 34s42 53 42 91v2
c0 40 -13.667 70.667 -41 92s-65.333 32 -114 32h-190v-251h191z" />
    <glyph glyph-name="R" unicode="&#x156;" horiz-adv-x="760" 
d="M99 728h323.001c46 0 86.667 -6.33301 122 -19s64.666 -30.667 87.999 -54c39.333 -39.333 59 -91.333 59 -156v-2c0 -60 -16.333 -108 -49 -144s-75 -61 -127 -75l200 -278h-146l-182 257h-165v-257h-123v728zM413.001 366c46.667 0 84 11.333 112 34s42 53 42 91v2
c0 40 -13.667 70.667 -41 92s-65.333 32 -114 32h-190v-251h191z" />
    <glyph glyph-name="R" unicode="&#x154;" horiz-adv-x="760" 
d="M99 728h323.001c46 0 86.667 -6.33301 122 -19s64.666 -30.667 87.999 -54c39.333 -39.333 59 -91.333 59 -156v-2c0 -60 -16.333 -108 -49 -144s-75 -61 -127 -75l200 -278h-146l-182 257h-165v-257h-123v728zM413.001 366c46.667 0 84 11.333 112 34s42 53 42 91v2
c0 40 -13.667 70.667 -41 92s-65.333 32 -114 32h-190v-251h191z" />
    <glyph glyph-name="S" unicode="S" horiz-adv-x="674" 
d="M353 -10c-56.667 0 -110.335 9.50488 -161.002 28.5049s-98 48.167 -142 87.5l74 88c35.333 -30.667 71.333 -54.167 108 -70.5s78 -24.5 124 -24.5c40.667 0 73 8.66699 97 26s36 40.333 36 69v2c0 13.333 -2.33301 25.166 -7 35.499s-13.167 20 -25.5 29
s-29.333 17.5 -51 25.5s-49.5 16 -83.5 24c-39.333 9.33301 -74.166 19.666 -104.499 30.999s-55.666 25.166 -75.999 41.499s-35.833 36.166 -46.5 59.499s-16 51.666 -16 84.999v2c0 30.667 6.16699 58.834 18.5 84.501s29.333 47.667 51 66s47.667 32.666 78 42.999
s63.5 15.5 99.5 15.5c54 0 102.167 -7.66699 144.5 -23s82.166 -38 119.499 -68l-67 -93c-65.333 50 -131.666 75 -198.999 75c-38.667 0 -68.834 -8.5 -90.501 -25.5s-32.5 -38.167 -32.5 -63.5v-2c0 -14.667 2.5 -27.5 7.5 -38.5s14.167 -21 27.5 -30
s31.333 -17.5 54 -25.5s52 -16 88 -24c38.667 -9.33301 72.5 -20 101.5 -32s53.333 -26.333 73 -43s34.334 -36.167 44.001 -58.5s14.5 -48.5 14.5 -78.5v-2c0 -34 -6.33301 -64.333 -19 -91s-30.5 -49.167 -53.5 -67.5s-50.167 -32.5 -81.5 -42.5s-66 -15 -104 -15z" />
    <glyph glyph-name="S" unicode="&#x218;" horiz-adv-x="674" 
d="M353 -10c-56.667 0 -110.335 9.50488 -161.002 28.5049s-98 48.167 -142 87.5l74 88c35.333 -30.667 71.333 -54.167 108 -70.5s78 -24.5 124 -24.5c40.667 0 73 8.66699 97 26s36 40.333 36 69v2c0 13.333 -2.33301 25.166 -7 35.499s-13.167 20 -25.5 29
s-29.333 17.5 -51 25.5s-49.5 16 -83.5 24c-39.333 9.33301 -74.166 19.666 -104.499 30.999s-55.666 25.166 -75.999 41.499s-35.833 36.166 -46.5 59.499s-16 51.666 -16 84.999v2c0 30.667 6.16699 58.834 18.5 84.501s29.333 47.667 51 66s47.667 32.666 78 42.999
s63.5 15.5 99.5 15.5c54 0 102.167 -7.66699 144.5 -23s82.166 -38 119.499 -68l-67 -93c-65.333 50 -131.666 75 -198.999 75c-38.667 0 -68.834 -8.5 -90.501 -25.5s-32.5 -38.167 -32.5 -63.5v-2c0 -14.667 2.5 -27.5 7.5 -38.5s14.167 -21 27.5 -30
s31.333 -17.5 54 -25.5s52 -16 88 -24c38.667 -9.33301 72.5 -20 101.5 -32s53.333 -26.333 73 -43s34.334 -36.167 44.001 -58.5s14.5 -48.5 14.5 -78.5v-2c0 -34 -6.33301 -64.333 -19 -91s-30.5 -49.167 -53.5 -67.5s-50.167 -32.5 -81.5 -42.5s-66 -15 -104 -15z" />
    <glyph glyph-name="S" unicode="&#x15e;" horiz-adv-x="674" 
d="M353 -10c-56.667 0 -110.335 9.50488 -161.002 28.5049s-98 48.167 -142 87.5l74 88c35.333 -30.667 71.333 -54.167 108 -70.5s78 -24.5 124 -24.5c40.667 0 73 8.66699 97 26s36 40.333 36 69v2c0 13.333 -2.33301 25.166 -7 35.499s-13.167 20 -25.5 29
s-29.333 17.5 -51 25.5s-49.5 16 -83.5 24c-39.333 9.33301 -74.166 19.666 -104.499 30.999s-55.666 25.166 -75.999 41.499s-35.833 36.166 -46.5 59.499s-16 51.666 -16 84.999v2c0 30.667 6.16699 58.834 18.5 84.501s29.333 47.667 51 66s47.667 32.666 78 42.999
s63.5 15.5 99.5 15.5c54 0 102.167 -7.66699 144.5 -23s82.166 -38 119.499 -68l-67 -93c-65.333 50 -131.666 75 -198.999 75c-38.667 0 -68.834 -8.5 -90.501 -25.5s-32.5 -38.167 -32.5 -63.5v-2c0 -14.667 2.5 -27.5 7.5 -38.5s14.167 -21 27.5 -30
s31.333 -17.5 54 -25.5s52 -16 88 -24c38.667 -9.33301 72.5 -20 101.5 -32s53.333 -26.333 73 -43s34.334 -36.167 44.001 -58.5s14.5 -48.5 14.5 -78.5v-2c0 -34 -6.33301 -64.333 -19 -91s-30.5 -49.167 -53.5 -67.5s-50.167 -32.5 -81.5 -42.5s-66 -15 -104 -15z" />
    <glyph glyph-name="S" unicode="&#x15a;" horiz-adv-x="674" 
d="M353 -10c-56.667 0 -110.335 9.50488 -161.002 28.5049s-98 48.167 -142 87.5l74 88c35.333 -30.667 71.333 -54.167 108 -70.5s78 -24.5 124 -24.5c40.667 0 73 8.66699 97 26s36 40.333 36 69v2c0 13.333 -2.33301 25.166 -7 35.499s-13.167 20 -25.5 29
s-29.333 17.5 -51 25.5s-49.5 16 -83.5 24c-39.333 9.33301 -74.166 19.666 -104.499 30.999s-55.666 25.166 -75.999 41.499s-35.833 36.166 -46.5 59.499s-16 51.666 -16 84.999v2c0 30.667 6.16699 58.834 18.5 84.501s29.333 47.667 51 66s47.667 32.666 78 42.999
s63.5 15.5 99.5 15.5c54 0 102.167 -7.66699 144.5 -23s82.166 -38 119.499 -68l-67 -93c-65.333 50 -131.666 75 -198.999 75c-38.667 0 -68.834 -8.5 -90.501 -25.5s-32.5 -38.167 -32.5 -63.5v-2c0 -14.667 2.5 -27.5 7.5 -38.5s14.167 -21 27.5 -30
s31.333 -17.5 54 -25.5s52 -16 88 -24c38.667 -9.33301 72.5 -20 101.5 -32s53.333 -26.333 73 -43s34.334 -36.167 44.001 -58.5s14.5 -48.5 14.5 -78.5v-2c0 -34 -6.33301 -64.333 -19 -91s-30.5 -49.167 -53.5 -67.5s-50.167 -32.5 -81.5 -42.5s-66 -15 -104 -15z" />
    <glyph glyph-name="T" unicode="T" horiz-adv-x="678" 
d="M278 615h-233v113h588v-113h-232v-615h-123v615z" />
    <glyph glyph-name="T" unicode="&#x21a;" horiz-adv-x="678" 
d="M278 615h-233v113h588v-113h-232v-615h-123v615z" />
    <glyph glyph-name="T" unicode="&#x164;" horiz-adv-x="678" 
d="M278 615h-233v113h588v-113h-232v-615h-123v615z" />
    <glyph glyph-name="T" unicode="&#x162;" horiz-adv-x="678" 
d="M278 615h-233v113h588v-113h-232v-615h-123v615z" />
    <glyph glyph-name="U" unicode="U" horiz-adv-x="796" 
d="M396 -11c-47.333 0 -90 6.83203 -128 20.499s-70.333 33.834 -97 60.501s-47.334 60 -62.001 100s-22 86.333 -22 139v419h123v-415c0 -68.667 16.667 -121 50 -157s79.666 -54 138.999 -54c58 0 103.5 17.167 136.5 51.5s49.5 85.833 49.5 154.5v420h123v-414
c0 -54 -7.33301 -101.333 -22 -142s-35.667 -74.5 -63 -101.5s-60.166 -47.333 -98.499 -61s-81.166 -20.5 -128.499 -20.5z" />
    <glyph glyph-name="U" unicode="&#x172;" horiz-adv-x="796" 
d="M396 -11c-47.333 0 -90 6.83203 -128 20.499s-70.333 33.834 -97 60.501s-47.334 60 -62.001 100s-22 86.333 -22 139v419h123v-415c0 -68.667 16.667 -121 50 -157s79.666 -54 138.999 -54c58 0 103.5 17.167 136.5 51.5s49.5 85.833 49.5 154.5v420h123v-414
c0 -54 -7.33301 -101.333 -22 -142s-35.667 -74.5 -63 -101.5s-60.166 -47.333 -98.499 -61s-81.166 -20.5 -128.499 -20.5z" />
    <glyph glyph-name="U" unicode="&#x170;" horiz-adv-x="796" 
d="M396 -11c-47.333 0 -90 6.83203 -128 20.499s-70.333 33.834 -97 60.501s-47.334 60 -62.001 100s-22 86.333 -22 139v419h123v-415c0 -68.667 16.667 -121 50 -157s79.666 -54 138.999 -54c58 0 103.5 17.167 136.5 51.5s49.5 85.833 49.5 154.5v420h123v-414
c0 -54 -7.33301 -101.333 -22 -142s-35.667 -74.5 -63 -101.5s-60.166 -47.333 -98.499 -61s-81.166 -20.5 -128.499 -20.5z" />
    <glyph glyph-name="U" unicode="&#x16e;" horiz-adv-x="796" 
d="M396 -11c-47.333 0 -90 6.83203 -128 20.499s-70.333 33.834 -97 60.501s-47.334 60 -62.001 100s-22 86.333 -22 139v419h123v-415c0 -68.667 16.667 -121 50 -157s79.666 -54 138.999 -54c58 0 103.5 17.167 136.5 51.5s49.5 85.833 49.5 154.5v420h123v-414
c0 -54 -7.33301 -101.333 -22 -142s-35.667 -74.5 -63 -101.5s-60.166 -47.333 -98.499 -61s-81.166 -20.5 -128.499 -20.5z" />
    <glyph glyph-name="U" unicode="&#x16c;" horiz-adv-x="796" 
d="M396 -11c-47.333 0 -90 6.83203 -128 20.499s-70.333 33.834 -97 60.501s-47.334 60 -62.001 100s-22 86.333 -22 139v419h123v-415c0 -68.667 16.667 -121 50 -157s79.666 -54 138.999 -54c58 0 103.5 17.167 136.5 51.5s49.5 85.833 49.5 154.5v420h123v-414
c0 -54 -7.33301 -101.333 -22 -142s-35.667 -74.5 -63 -101.5s-60.166 -47.333 -98.499 -61s-81.166 -20.5 -128.499 -20.5z" />
    <glyph glyph-name="U" unicode="&#x16a;" horiz-adv-x="796" 
d="M396 -11c-47.333 0 -90 6.83203 -128 20.499s-70.333 33.834 -97 60.501s-47.334 60 -62.001 100s-22 86.333 -22 139v419h123v-415c0 -68.667 16.667 -121 50 -157s79.666 -54 138.999 -54c58 0 103.5 17.167 136.5 51.5s49.5 85.833 49.5 154.5v420h123v-414
c0 -54 -7.33301 -101.333 -22 -142s-35.667 -74.5 -63 -101.5s-60.166 -47.333 -98.499 -61s-81.166 -20.5 -128.499 -20.5z" />
    <glyph glyph-name="V" unicode="V" horiz-adv-x="788" 
d="M36 728h136l224 -568l224 568h132l-304 -733h-108z" />
    <glyph glyph-name="W" unicode="W" horiz-adv-x="1168" 
d="M42 728h133l178 -547l181 549h104l181 -549l178 547h128l-254 -733h-106l-181 531l-182 -531h-105z" />
    <glyph glyph-name="W" unicode="&#x1e84;" horiz-adv-x="1168" 
d="M42 728h133l178 -547l181 549h104l181 -549l178 547h128l-254 -733h-106l-181 531l-182 -531h-105z" />
    <glyph glyph-name="W" unicode="&#x1e82;" horiz-adv-x="1168" 
d="M42 728h133l178 -547l181 549h104l181 -549l178 547h128l-254 -733h-106l-181 531l-182 -531h-105z" />
    <glyph glyph-name="W" unicode="&#x1e80;" horiz-adv-x="1168" 
d="M42 728h133l178 -547l181 549h104l181 -549l178 547h128l-254 -733h-106l-181 531l-182 -531h-105z" />
    <glyph glyph-name="W" unicode="&#x174;" horiz-adv-x="1168" 
d="M42 728h133l178 -547l181 549h104l181 -549l178 547h128l-254 -733h-106l-181 531l-182 -531h-105z" />
    <glyph glyph-name="X" unicode="X" horiz-adv-x="766" 
d="M712 728l-256 -356l266 -372h-144l-197 282l-197 -282h-140l265 370l-255 358h144l186 -267l187 267h141z" />
    <glyph glyph-name="Y" unicode="Y" horiz-adv-x="753" 
d="M315 287l-291 441h145l208 -327l211 327h141l-291 -438v-290h-123v287z" />
    <glyph glyph-name="Y" unicode="&#x1ef2;" horiz-adv-x="753" 
d="M315 287l-291 441h145l208 -327l211 327h141l-291 -438v-290h-123v287z" />
    <glyph glyph-name="Y" unicode="&#x176;" horiz-adv-x="753" 
d="M315 287l-291 441h145l208 -327l211 327h141l-291 -438v-290h-123v287z" />
    <glyph glyph-name="Z" unicode="Z" horiz-adv-x="737" 
d="M71 90l435 530h-420v108h581v-90l-435 -530h435v-108h-596v90z" />
    <glyph glyph-name="Z" unicode="&#x17b;" horiz-adv-x="737" 
d="M71 90l435 530h-420v108h581v-90l-435 -530h435v-108h-596v90z" />
    <glyph glyph-name="Z" unicode="&#x179;" horiz-adv-x="737" 
d="M71 90l435 530h-420v108h581v-90l-435 -530h435v-108h-596v90z" />
    <glyph glyph-name="bracketleft" unicode="[" horiz-adv-x="479" 
d="M96 728h318v-94h-203v-675h203v-94h-318v863z" />
    <glyph glyph-name="backslash" unicode="\" horiz-adv-x="548" 
d="M-7 830h105l472 -963h-105z" />
    <glyph glyph-name="bracketright" unicode="]" horiz-adv-x="479" 
d="M65 -41h203v675h-203v94h318v-863h-318v94z" />
    <glyph glyph-name="underscore" unicode="_" horiz-adv-x="632" 
d="M2 -72h628v-94h-628v94z" />
    <glyph glyph-name="grave" unicode="`" 
d="M136 737l110 50l107 -168h-91z" />
    <glyph glyph-name="a" unicode="a" horiz-adv-x="617" 
d="M243 -11c-26 0 -50.834 3.66895 -74.501 11.002s-44.5 18.166 -62.5 32.499s-32.333 32 -43 53s-16 45.167 -16 72.5v2c0 29.333 5.5 55 16.5 77s26.5 40.333 46.5 55s44 25.667 72 33s58.667 11 92 11c31.333 0 58.833 -2 82.5 -6s46.167 -9.66699 67.5 -17v14
c0 40 -11.833 70.5 -35.5 91.5s-58.167 31.5 -103.5 31.5c-31.333 0 -59.166 -3 -83.499 -9s-49.166 -14.333 -74.499 -25l-32 94c30 13.333 61 24.166 93 32.499s69.667 12.5 113 12.5c40.667 0 76.167 -5.33301 106.5 -16s55.166 -25.667 74.499 -45
c20 -19.333 34.667 -43.166 44 -71.499s14 -60.5 14 -96.5v-326h-117v70c-18.667 -22.667 -42.667 -41.834 -72 -57.501s-65.333 -23.5 -108 -23.5zM274.999 77.002c21.333 0 41.167 3 59.5 9s34.333 14.167 48 24.5s24.334 22.833 32.001 37.5s11.5 31 11.5 49v40
c-16.667 6 -35.834 11.167 -57.501 15.5s-45.5 6.5 -71.5 6.5c-42 0 -74.5 -8.33301 -97.5 -25s-34.5 -39.667 -34.5 -69v-2c0 -28 10.667 -49.333 32 -64s47.333 -22 78 -22z" />
    <glyph glyph-name="a" unicode="&#x1fb;" horiz-adv-x="617" 
d="M243 -11c-26 0 -50.834 3.66895 -74.501 11.002s-44.5 18.166 -62.5 32.499s-32.333 32 -43 53s-16 45.167 -16 72.5v2c0 29.333 5.5 55 16.5 77s26.5 40.333 46.5 55s44 25.667 72 33s58.667 11 92 11c31.333 0 58.833 -2 82.5 -6s46.167 -9.66699 67.5 -17v14
c0 40 -11.833 70.5 -35.5 91.5s-58.167 31.5 -103.5 31.5c-31.333 0 -59.166 -3 -83.499 -9s-49.166 -14.333 -74.499 -25l-32 94c30 13.333 61 24.166 93 32.499s69.667 12.5 113 12.5c40.667 0 76.167 -5.33301 106.5 -16s55.166 -25.667 74.499 -45
c20 -19.333 34.667 -43.166 44 -71.499s14 -60.5 14 -96.5v-326h-117v70c-18.667 -22.667 -42.667 -41.834 -72 -57.501s-65.333 -23.5 -108 -23.5zM274.999 77.002c21.333 0 41.167 3 59.5 9s34.333 14.167 48 24.5s24.334 22.833 32.001 37.5s11.5 31 11.5 49v40
c-16.667 6 -35.834 11.167 -57.501 15.5s-45.5 6.5 -71.5 6.5c-42 0 -74.5 -8.33301 -97.5 -25s-34.5 -39.667 -34.5 -69v-2c0 -28 10.667 -49.333 32 -64s47.333 -22 78 -22z" />
    <glyph glyph-name="a" unicode="&#x105;" horiz-adv-x="617" 
d="M243 -11c-26 0 -50.834 3.66895 -74.501 11.002s-44.5 18.166 -62.5 32.499s-32.333 32 -43 53s-16 45.167 -16 72.5v2c0 29.333 5.5 55 16.5 77s26.5 40.333 46.5 55s44 25.667 72 33s58.667 11 92 11c31.333 0 58.833 -2 82.5 -6s46.167 -9.66699 67.5 -17v14
c0 40 -11.833 70.5 -35.5 91.5s-58.167 31.5 -103.5 31.5c-31.333 0 -59.166 -3 -83.499 -9s-49.166 -14.333 -74.499 -25l-32 94c30 13.333 61 24.166 93 32.499s69.667 12.5 113 12.5c40.667 0 76.167 -5.33301 106.5 -16s55.166 -25.667 74.499 -45
c20 -19.333 34.667 -43.166 44 -71.499s14 -60.5 14 -96.5v-326h-117v70c-18.667 -22.667 -42.667 -41.834 -72 -57.501s-65.333 -23.5 -108 -23.5zM274.999 77.002c21.333 0 41.167 3 59.5 9s34.333 14.167 48 24.5s24.334 22.833 32.001 37.5s11.5 31 11.5 49v40
c-16.667 6 -35.834 11.167 -57.501 15.5s-45.5 6.5 -71.5 6.5c-42 0 -74.5 -8.33301 -97.5 -25s-34.5 -39.667 -34.5 -69v-2c0 -28 10.667 -49.333 32 -64s47.333 -22 78 -22z" />
    <glyph glyph-name="a" unicode="&#x103;" horiz-adv-x="617" 
d="M243 -11c-26 0 -50.834 3.66895 -74.501 11.002s-44.5 18.166 -62.5 32.499s-32.333 32 -43 53s-16 45.167 -16 72.5v2c0 29.333 5.5 55 16.5 77s26.5 40.333 46.5 55s44 25.667 72 33s58.667 11 92 11c31.333 0 58.833 -2 82.5 -6s46.167 -9.66699 67.5 -17v14
c0 40 -11.833 70.5 -35.5 91.5s-58.167 31.5 -103.5 31.5c-31.333 0 -59.166 -3 -83.499 -9s-49.166 -14.333 -74.499 -25l-32 94c30 13.333 61 24.166 93 32.499s69.667 12.5 113 12.5c40.667 0 76.167 -5.33301 106.5 -16s55.166 -25.667 74.499 -45
c20 -19.333 34.667 -43.166 44 -71.499s14 -60.5 14 -96.5v-326h-117v70c-18.667 -22.667 -42.667 -41.834 -72 -57.501s-65.333 -23.5 -108 -23.5zM274.999 77.002c21.333 0 41.167 3 59.5 9s34.333 14.167 48 24.5s24.334 22.833 32.001 37.5s11.5 31 11.5 49v40
c-16.667 6 -35.834 11.167 -57.501 15.5s-45.5 6.5 -71.5 6.5c-42 0 -74.5 -8.33301 -97.5 -25s-34.5 -39.667 -34.5 -69v-2c0 -28 10.667 -49.333 32 -64s47.333 -22 78 -22z" />
    <glyph glyph-name="a" unicode="&#x101;" horiz-adv-x="617" 
d="M243 -11c-26 0 -50.834 3.66895 -74.501 11.002s-44.5 18.166 -62.5 32.499s-32.333 32 -43 53s-16 45.167 -16 72.5v2c0 29.333 5.5 55 16.5 77s26.5 40.333 46.5 55s44 25.667 72 33s58.667 11 92 11c31.333 0 58.833 -2 82.5 -6s46.167 -9.66699 67.5 -17v14
c0 40 -11.833 70.5 -35.5 91.5s-58.167 31.5 -103.5 31.5c-31.333 0 -59.166 -3 -83.499 -9s-49.166 -14.333 -74.499 -25l-32 94c30 13.333 61 24.166 93 32.499s69.667 12.5 113 12.5c40.667 0 76.167 -5.33301 106.5 -16s55.166 -25.667 74.499 -45
c20 -19.333 34.667 -43.166 44 -71.499s14 -60.5 14 -96.5v-326h-117v70c-18.667 -22.667 -42.667 -41.834 -72 -57.501s-65.333 -23.5 -108 -23.5zM274.999 77.002c21.333 0 41.167 3 59.5 9s34.333 14.167 48 24.5s24.334 22.833 32.001 37.5s11.5 31 11.5 49v40
c-16.667 6 -35.834 11.167 -57.501 15.5s-45.5 6.5 -71.5 6.5c-42 0 -74.5 -8.33301 -97.5 -25s-34.5 -39.667 -34.5 -69v-2c0 -28 10.667 -49.333 32 -64s47.333 -22 78 -22z" />
    <glyph glyph-name="b" unicode="b" horiz-adv-x="705" 
d="M394 -11c-46 0 -84.1641 9.83203 -114.497 29.499s-55.5 42.5 -75.5 68.5v-87h-120v759h120v-305c20.667 29.333 46.167 54.166 76.5 74.499s68.166 30.5 113.499 30.5c32 0 63.333 -6.33301 94 -19s58 -31 82 -55s43.167 -53.667 57.5 -89s21.5 -75.666 21.5 -120.999
v-2c0 -45.333 -7.16699 -85.666 -21.5 -120.999s-33.333 -65 -57 -89s-50.834 -42.333 -81.501 -55s-62.334 -19 -95.001 -19zM366.003 92.999c22 0 42.834 4.16797 62.501 12.501s36.667 20.333 51 36s25.833 34.5 34.5 56.5s13 47 13 75v2c0 27.333 -4.33301 52 -13 74
s-20.334 40.833 -35.001 56.5s-31.667 27.834 -51 36.501s-40 13 -62 13s-42.833 -4.33301 -62.5 -13s-37 -20.834 -52 -36.501s-27 -34.667 -36 -57s-13.5 -46.833 -13.5 -73.5v-2c0 -27.333 4.5 -52 13.5 -74s21 -40.833 36 -56.5s32.333 -27.834 52 -36.501
s40.5 -13 62.5 -13z" />
    <glyph glyph-name="c" unicode="c" horiz-adv-x="602" 
d="M337 -12c-40.667 0 -78.334 7.49707 -113.001 22.4971s-64.5 35.333 -89.5 61s-44.667 55.667 -59 90s-21.5 70.833 -21.5 109.5v2c0 38.667 7.16699 75.334 21.5 110.001s34 65 59 91s54.833 46.667 89.5 62s72.667 23 114 23c51.333 0 94.333 -8.83301 129 -26.5
s64.667 -40.5 90 -68.5l-76 -81c-19.333 20.667 -40.166 37.667 -62.499 51s-49.5 20 -81.5 20c-23.333 0 -45 -4.66699 -65 -14s-37.333 -22.166 -52 -38.499s-26 -35.333 -34 -57s-12 -44.834 -12 -69.501v-2c0 -25.333 4.16699 -48.833 12.5 -70.5s20 -40.667 35 -57
s32.833 -29.166 53.5 -38.499s43.334 -14 68.001 -14c30 0 56.5 6.33301 79.5 19s44.833 29.334 65.5 50.001l73 -71c-27.333 -30 -58.333 -54.667 -93 -74s-78.334 -29 -131.001 -29z" />
    <glyph glyph-name="c" unicode="&#x10d;" horiz-adv-x="602" 
d="M337 -12c-40.667 0 -78.334 7.49707 -113.001 22.4971s-64.5 35.333 -89.5 61s-44.667 55.667 -59 90s-21.5 70.833 -21.5 109.5v2c0 38.667 7.16699 75.334 21.5 110.001s34 65 59 91s54.833 46.667 89.5 62s72.667 23 114 23c51.333 0 94.333 -8.83301 129 -26.5
s64.667 -40.5 90 -68.5l-76 -81c-19.333 20.667 -40.166 37.667 -62.499 51s-49.5 20 -81.5 20c-23.333 0 -45 -4.66699 -65 -14s-37.333 -22.166 -52 -38.499s-26 -35.333 -34 -57s-12 -44.834 -12 -69.501v-2c0 -25.333 4.16699 -48.833 12.5 -70.5s20 -40.667 35 -57
s32.833 -29.166 53.5 -38.499s43.334 -14 68.001 -14c30 0 56.5 6.33301 79.5 19s44.833 29.334 65.5 50.001l73 -71c-27.333 -30 -58.333 -54.667 -93 -74s-78.334 -29 -131.001 -29z" />
    <glyph glyph-name="c" unicode="&#x10b;" horiz-adv-x="602" 
d="M337 -12c-40.667 0 -78.334 7.49707 -113.001 22.4971s-64.5 35.333 -89.5 61s-44.667 55.667 -59 90s-21.5 70.833 -21.5 109.5v2c0 38.667 7.16699 75.334 21.5 110.001s34 65 59 91s54.833 46.667 89.5 62s72.667 23 114 23c51.333 0 94.333 -8.83301 129 -26.5
s64.667 -40.5 90 -68.5l-76 -81c-19.333 20.667 -40.166 37.667 -62.499 51s-49.5 20 -81.5 20c-23.333 0 -45 -4.66699 -65 -14s-37.333 -22.166 -52 -38.499s-26 -35.333 -34 -57s-12 -44.834 -12 -69.501v-2c0 -25.333 4.16699 -48.833 12.5 -70.5s20 -40.667 35 -57
s32.833 -29.166 53.5 -38.499s43.334 -14 68.001 -14c30 0 56.5 6.33301 79.5 19s44.833 29.334 65.5 50.001l73 -71c-27.333 -30 -58.333 -54.667 -93 -74s-78.334 -29 -131.001 -29z" />
    <glyph glyph-name="c" unicode="&#x107;" horiz-adv-x="602" 
d="M337 -12c-40.667 0 -78.334 7.49707 -113.001 22.4971s-64.5 35.333 -89.5 61s-44.667 55.667 -59 90s-21.5 70.833 -21.5 109.5v2c0 38.667 7.16699 75.334 21.5 110.001s34 65 59 91s54.833 46.667 89.5 62s72.667 23 114 23c51.333 0 94.333 -8.83301 129 -26.5
s64.667 -40.5 90 -68.5l-76 -81c-19.333 20.667 -40.166 37.667 -62.499 51s-49.5 20 -81.5 20c-23.333 0 -45 -4.66699 -65 -14s-37.333 -22.166 -52 -38.499s-26 -35.333 -34 -57s-12 -44.834 -12 -69.501v-2c0 -25.333 4.16699 -48.833 12.5 -70.5s20 -40.667 35 -57
s32.833 -29.166 53.5 -38.499s43.334 -14 68.001 -14c30 0 56.5 6.33301 79.5 19s44.833 29.334 65.5 50.001l73 -71c-27.333 -30 -58.333 -54.667 -93 -74s-78.334 -29 -131.001 -29z" />
    <glyph glyph-name="d" unicode="d" horiz-adv-x="705" 
d="M311 -11c-32 0 -63.333 6.33691 -94 19.0039s-58 31 -82 55s-43.167 53.667 -57.5 89s-21.5 75.666 -21.5 120.999v2c0 45.333 7.16699 85.666 21.5 120.999s33.333 65 57 89s50.834 42.333 81.501 55s62.334 19 95.001 19c46 0 84.167 -9.83301 114.5 -29.5
s55.166 -42.5 74.499 -68.5v298h121v-759h-121v94c-10 -14.667 -21.333 -28.334 -34 -41.001s-26.667 -23.834 -42 -33.501s-32.333 -17.167 -51 -22.5s-39.334 -8 -62.001 -8zM339 93.0039c22 0 42.832 4.33203 62.499 12.999s37 20.834 52 36.501s27 34.5 36 56.5
s13.5 46.667 13.5 74v2c0 26.667 -4.5 51.167 -13.5 73.5s-21 41.333 -36 57s-32.333 27.834 -52 36.501s-40.5 13 -62.5 13s-42.833 -4.16699 -62.5 -12.5s-36.667 -20.333 -51 -36s-25.833 -34.5 -34.5 -56.5s-13 -47 -13 -75v-2c0 -27.333 4.33301 -52 13 -74
s20.334 -40.833 35.001 -56.5s31.667 -27.834 51 -36.501s40 -13 62 -13z" />
    <glyph glyph-name="e" unicode="e" horiz-adv-x="635" 
d="M334 -12c-39.333 0 -76.167 6.83301 -110.5 20.5s-64 33 -89 58s-44.667 55 -59 90s-21.5 73.5 -21.5 115.5v2c0 39.333 6.66699 76.333 20 111s31.666 64.834 54.999 90.501s51.333 46 84 61s68.667 22.5 108 22.5c43.333 0 81.333 -7.83301 114 -23.5
s59.834 -37 81.501 -64s38 -58.333 49 -94s16.5 -73.167 16.5 -112.5v-16.5c0 -5.66699 -0.333008 -11.5 -1 -17.5h-406c6.66699 -46.667 24.667 -82.334 54 -107.001s65 -37 107 -37c32 0 59.833 5.66699 83.5 17s46.167 27.666 67.5 48.999l72 -63
c-26.667 -31.333 -58.167 -56.166 -94.5 -74.499s-79.833 -27.5 -130.5 -27.5zM462.999 311c-2 20.667 -6.66699 40.168 -14 58.501s-17 34.166 -29 47.499s-26.333 23.833 -43 31.5s-35.667 11.5 -57 11.5c-40 0 -73 -13.833 -99 -41.5s-42 -63.5 -48 -107.5h290z" />
    <glyph glyph-name="e" unicode="&#x11b;" horiz-adv-x="635" 
d="M334 -12c-39.333 0 -76.167 6.83301 -110.5 20.5s-64 33 -89 58s-44.667 55 -59 90s-21.5 73.5 -21.5 115.5v2c0 39.333 6.66699 76.333 20 111s31.666 64.834 54.999 90.501s51.333 46 84 61s68.667 22.5 108 22.5c43.333 0 81.333 -7.83301 114 -23.5
s59.834 -37 81.501 -64s38 -58.333 49 -94s16.5 -73.167 16.5 -112.5v-16.5c0 -5.66699 -0.333008 -11.5 -1 -17.5h-406c6.66699 -46.667 24.667 -82.334 54 -107.001s65 -37 107 -37c32 0 59.833 5.66699 83.5 17s46.167 27.666 67.5 48.999l72 -63
c-26.667 -31.333 -58.167 -56.166 -94.5 -74.499s-79.833 -27.5 -130.5 -27.5zM462.999 311c-2 20.667 -6.66699 40.168 -14 58.501s-17 34.166 -29 47.499s-26.333 23.833 -43 31.5s-35.667 11.5 -57 11.5c-40 0 -73 -13.833 -99 -41.5s-42 -63.5 -48 -107.5h290z" />
    <glyph glyph-name="e" unicode="&#x119;" horiz-adv-x="635" 
d="M334 -12c-39.333 0 -76.167 6.83301 -110.5 20.5s-64 33 -89 58s-44.667 55 -59 90s-21.5 73.5 -21.5 115.5v2c0 39.333 6.66699 76.333 20 111s31.666 64.834 54.999 90.501s51.333 46 84 61s68.667 22.5 108 22.5c43.333 0 81.333 -7.83301 114 -23.5
s59.834 -37 81.501 -64s38 -58.333 49 -94s16.5 -73.167 16.5 -112.5v-16.5c0 -5.66699 -0.333008 -11.5 -1 -17.5h-406c6.66699 -46.667 24.667 -82.334 54 -107.001s65 -37 107 -37c32 0 59.833 5.66699 83.5 17s46.167 27.666 67.5 48.999l72 -63
c-26.667 -31.333 -58.167 -56.166 -94.5 -74.499s-79.833 -27.5 -130.5 -27.5zM462.999 311c-2 20.667 -6.66699 40.168 -14 58.501s-17 34.166 -29 47.499s-26.333 23.833 -43 31.5s-35.667 11.5 -57 11.5c-40 0 -73 -13.833 -99 -41.5s-42 -63.5 -48 -107.5h290z" />
    <glyph glyph-name="e" unicode="&#x117;" horiz-adv-x="635" 
d="M334 -12c-39.333 0 -76.167 6.83301 -110.5 20.5s-64 33 -89 58s-44.667 55 -59 90s-21.5 73.5 -21.5 115.5v2c0 39.333 6.66699 76.333 20 111s31.666 64.834 54.999 90.501s51.333 46 84 61s68.667 22.5 108 22.5c43.333 0 81.333 -7.83301 114 -23.5
s59.834 -37 81.501 -64s38 -58.333 49 -94s16.5 -73.167 16.5 -112.5v-16.5c0 -5.66699 -0.333008 -11.5 -1 -17.5h-406c6.66699 -46.667 24.667 -82.334 54 -107.001s65 -37 107 -37c32 0 59.833 5.66699 83.5 17s46.167 27.666 67.5 48.999l72 -63
c-26.667 -31.333 -58.167 -56.166 -94.5 -74.499s-79.833 -27.5 -130.5 -27.5zM462.999 311c-2 20.667 -6.66699 40.168 -14 58.501s-17 34.166 -29 47.499s-26.333 23.833 -43 31.5s-35.667 11.5 -57 11.5c-40 0 -73 -13.833 -99 -41.5s-42 -63.5 -48 -107.5h290z" />
    <glyph glyph-name="e" unicode="&#x115;" horiz-adv-x="635" 
d="M334 -12c-39.333 0 -76.167 6.83301 -110.5 20.5s-64 33 -89 58s-44.667 55 -59 90s-21.5 73.5 -21.5 115.5v2c0 39.333 6.66699 76.333 20 111s31.666 64.834 54.999 90.501s51.333 46 84 61s68.667 22.5 108 22.5c43.333 0 81.333 -7.83301 114 -23.5
s59.834 -37 81.501 -64s38 -58.333 49 -94s16.5 -73.167 16.5 -112.5v-16.5c0 -5.66699 -0.333008 -11.5 -1 -17.5h-406c6.66699 -46.667 24.667 -82.334 54 -107.001s65 -37 107 -37c32 0 59.833 5.66699 83.5 17s46.167 27.666 67.5 48.999l72 -63
c-26.667 -31.333 -58.167 -56.166 -94.5 -74.499s-79.833 -27.5 -130.5 -27.5zM462.999 311c-2 20.667 -6.66699 40.168 -14 58.501s-17 34.166 -29 47.499s-26.333 23.833 -43 31.5s-35.667 11.5 -57 11.5c-40 0 -73 -13.833 -99 -41.5s-42 -63.5 -48 -107.5h290z" />
    <glyph glyph-name="e" unicode="&#x113;" horiz-adv-x="635" 
d="M334 -12c-39.333 0 -76.167 6.83301 -110.5 20.5s-64 33 -89 58s-44.667 55 -59 90s-21.5 73.5 -21.5 115.5v2c0 39.333 6.66699 76.333 20 111s31.666 64.834 54.999 90.501s51.333 46 84 61s68.667 22.5 108 22.5c43.333 0 81.333 -7.83301 114 -23.5
s59.834 -37 81.501 -64s38 -58.333 49 -94s16.5 -73.167 16.5 -112.5v-16.5c0 -5.66699 -0.333008 -11.5 -1 -17.5h-406c6.66699 -46.667 24.667 -82.334 54 -107.001s65 -37 107 -37c32 0 59.833 5.66699 83.5 17s46.167 27.666 67.5 48.999l72 -63
c-26.667 -31.333 -58.167 -56.166 -94.5 -74.499s-79.833 -27.5 -130.5 -27.5zM462.999 311c-2 20.667 -6.66699 40.168 -14 58.501s-17 34.166 -29 47.499s-26.333 23.833 -43 31.5s-35.667 11.5 -57 11.5c-40 0 -73 -13.833 -99 -41.5s-42 -63.5 -48 -107.5h290z" />
    <glyph glyph-name="f" unicode="f" horiz-adv-x="398" 
d="M112 444l-69.001 0.000976562v101h69v41c0 61.333 15.333 106.666 46 135.999c28.667 28.667 69.334 43 122.001 43c22 0 40.833 -1.16699 56.5 -3.5s30.5 -5.83301 44.5 -10.5v-102c-13.333 4 -25.833 7.16699 -37.5 9.5s-24.167 3.5 -37.5 3.5
c-49.333 0 -74 -28.667 -74 -86v-32h147v-100h-146v-444h-121v444z" />
    <glyph glyph-name="g" unicode="g" horiz-adv-x="705" 
d="M328 -168c-45.333 0 -88.6699 5.66602 -130.003 16.999s-80 27.666 -116 48.999l46 91c30 -19.333 60.833 -34 92.5 -44s66.5 -15 104.5 -15c56.667 0 100.167 14.333 130.5 43s45.5 71.334 45.5 128.001v44c-11.333 -14.667 -23.666 -28.167 -36.999 -40.5
s-27.833 -23 -43.5 -32s-33 -16 -52 -21s-39.833 -7.5 -62.5 -7.5c-32.667 0 -64 5.83301 -94 17.5s-56.5 28.5 -79.5 50.5s-41.5 48.833 -55.5 80.5s-21 67.5 -21 107.5v2c0 40.667 7 76.834 21 108.501s32.667 58.5 56 80.5s50 38.833 80 50.5s61 17.5 93 17.5
c46.667 0 85.334 -9.33301 116.001 -28s56.667 -41 78 -67v84h121v-437c0 -46 -6 -86.167 -18 -120.5s-29.333 -62.833 -52 -85.5c-25.333 -25.333 -56.666 -43.833 -93.999 -55.5s-80.333 -17.5 -129 -17.5zM336.996 145.999c22 0 43.167 3.83301 63.5 11.5
s38 18.167 53 31.5s27 29.5 36 48.5s13.5 39.833 13.5 62.5v2c0 23.333 -4.5 44.5 -13.5 63.5s-21 35.333 -36 49s-32.667 24.167 -53 31.5s-41.5 11 -63.5 11s-42.667 -3.66699 -62 -11s-36.166 -17.833 -50.499 -31.5s-25.666 -30 -33.999 -49s-12.5 -39.833 -12.5 -62.5
v-2c0 -23.333 4.16699 -44.5 12.5 -63.5s19.666 -35.167 33.999 -48.5s31.166 -23.833 50.499 -31.5s40 -11.5 62 -11.5z" />
    <glyph glyph-name="g" unicode="&#x123;" horiz-adv-x="705" 
d="M328 -168c-45.333 0 -88.6699 5.66602 -130.003 16.999s-80 27.666 -116 48.999l46 91c30 -19.333 60.833 -34 92.5 -44s66.5 -15 104.5 -15c56.667 0 100.167 14.333 130.5 43s45.5 71.334 45.5 128.001v44c-11.333 -14.667 -23.666 -28.167 -36.999 -40.5
s-27.833 -23 -43.5 -32s-33 -16 -52 -21s-39.833 -7.5 -62.5 -7.5c-32.667 0 -64 5.83301 -94 17.5s-56.5 28.5 -79.5 50.5s-41.5 48.833 -55.5 80.5s-21 67.5 -21 107.5v2c0 40.667 7 76.834 21 108.501s32.667 58.5 56 80.5s50 38.833 80 50.5s61 17.5 93 17.5
c46.667 0 85.334 -9.33301 116.001 -28s56.667 -41 78 -67v84h121v-437c0 -46 -6 -86.167 -18 -120.5s-29.333 -62.833 -52 -85.5c-25.333 -25.333 -56.666 -43.833 -93.999 -55.5s-80.333 -17.5 -129 -17.5zM336.996 145.999c22 0 43.167 3.83301 63.5 11.5
s38 18.167 53 31.5s27 29.5 36 48.5s13.5 39.833 13.5 62.5v2c0 23.333 -4.5 44.5 -13.5 63.5s-21 35.333 -36 49s-32.667 24.167 -53 31.5s-41.5 11 -63.5 11s-42.667 -3.66699 -62 -11s-36.166 -17.833 -50.499 -31.5s-25.666 -30 -33.999 -49s-12.5 -39.833 -12.5 -62.5
v-2c0 -23.333 4.16699 -44.5 12.5 -63.5s19.666 -35.167 33.999 -48.5s31.166 -23.833 50.499 -31.5s40 -11.5 62 -11.5z" />
    <glyph glyph-name="g" unicode="&#x121;" horiz-adv-x="705" 
d="M328 -168c-45.333 0 -88.6699 5.66602 -130.003 16.999s-80 27.666 -116 48.999l46 91c30 -19.333 60.833 -34 92.5 -44s66.5 -15 104.5 -15c56.667 0 100.167 14.333 130.5 43s45.5 71.334 45.5 128.001v44c-11.333 -14.667 -23.666 -28.167 -36.999 -40.5
s-27.833 -23 -43.5 -32s-33 -16 -52 -21s-39.833 -7.5 -62.5 -7.5c-32.667 0 -64 5.83301 -94 17.5s-56.5 28.5 -79.5 50.5s-41.5 48.833 -55.5 80.5s-21 67.5 -21 107.5v2c0 40.667 7 76.834 21 108.501s32.667 58.5 56 80.5s50 38.833 80 50.5s61 17.5 93 17.5
c46.667 0 85.334 -9.33301 116.001 -28s56.667 -41 78 -67v84h121v-437c0 -46 -6 -86.167 -18 -120.5s-29.333 -62.833 -52 -85.5c-25.333 -25.333 -56.666 -43.833 -93.999 -55.5s-80.333 -17.5 -129 -17.5zM336.996 145.999c22 0 43.167 3.83301 63.5 11.5
s38 18.167 53 31.5s27 29.5 36 48.5s13.5 39.833 13.5 62.5v2c0 23.333 -4.5 44.5 -13.5 63.5s-21 35.333 -36 49s-32.667 24.167 -53 31.5s-41.5 11 -63.5 11s-42.667 -3.66699 -62 -11s-36.166 -17.833 -50.499 -31.5s-25.666 -30 -33.999 -49s-12.5 -39.833 -12.5 -62.5
v-2c0 -23.333 4.16699 -44.5 12.5 -63.5s19.666 -35.167 33.999 -48.5s31.166 -23.833 50.499 -31.5s40 -11.5 62 -11.5z" />
    <glyph glyph-name="g" unicode="&#x11f;" horiz-adv-x="705" 
d="M328 -168c-45.333 0 -88.6699 5.66602 -130.003 16.999s-80 27.666 -116 48.999l46 91c30 -19.333 60.833 -34 92.5 -44s66.5 -15 104.5 -15c56.667 0 100.167 14.333 130.5 43s45.5 71.334 45.5 128.001v44c-11.333 -14.667 -23.666 -28.167 -36.999 -40.5
s-27.833 -23 -43.5 -32s-33 -16 -52 -21s-39.833 -7.5 -62.5 -7.5c-32.667 0 -64 5.83301 -94 17.5s-56.5 28.5 -79.5 50.5s-41.5 48.833 -55.5 80.5s-21 67.5 -21 107.5v2c0 40.667 7 76.834 21 108.501s32.667 58.5 56 80.5s50 38.833 80 50.5s61 17.5 93 17.5
c46.667 0 85.334 -9.33301 116.001 -28s56.667 -41 78 -67v84h121v-437c0 -46 -6 -86.167 -18 -120.5s-29.333 -62.833 -52 -85.5c-25.333 -25.333 -56.666 -43.833 -93.999 -55.5s-80.333 -17.5 -129 -17.5zM336.996 145.999c22 0 43.167 3.83301 63.5 11.5
s38 18.167 53 31.5s27 29.5 36 48.5s13.5 39.833 13.5 62.5v2c0 23.333 -4.5 44.5 -13.5 63.5s-21 35.333 -36 49s-32.667 24.167 -53 31.5s-41.5 11 -63.5 11s-42.667 -3.66699 -62 -11s-36.166 -17.833 -50.499 -31.5s-25.666 -30 -33.999 -49s-12.5 -39.833 -12.5 -62.5
v-2c0 -23.333 4.16699 -44.5 12.5 -63.5s19.666 -35.167 33.999 -48.5s31.166 -23.833 50.499 -31.5s40 -11.5 62 -11.5z" />
    <glyph glyph-name="h" unicode="h" horiz-adv-x="652" 
d="M84 759h120v-297c8.66699 12.667 18.667 25 30 37s24 22.333 38 31s29.833 15.667 47.5 21s37.167 8 58.5 8c62 0 110.333 -19.167 145 -57.5s52 -89.5 52 -153.5v-348h-121v312c0 44 -10.5 77.833 -31.5 101.5s-50.833 35.5 -89.5 35.5c-38 0 -69 -12.167 -93 -36.5
s-36 -58.5 -36 -102.5v-310h-120v759z" />
    <glyph glyph-name="h" unicode="&#x127;" horiz-adv-x="652" 
d="M84 759h120v-297c8.66699 12.667 18.667 25 30 37s24 22.333 38 31s29.833 15.667 47.5 21s37.167 8 58.5 8c62 0 110.333 -19.167 145 -57.5s52 -89.5 52 -153.5v-348h-121v312c0 44 -10.5 77.833 -31.5 101.5s-50.833 35.5 -89.5 35.5c-38 0 -69 -12.167 -93 -36.5
s-36 -58.5 -36 -102.5v-310h-120v759z" />
    <glyph glyph-name="i" unicode="i" horiz-adv-x="303" 
d="M86 752h131v-116h-131v116zM91 548h121v-548h-121v548z" />
    <glyph glyph-name="i" unicode="&#x12f;" horiz-adv-x="303" 
d="M86 752h131v-116h-131v116zM91 548h121v-548h-121v548z" />
    <glyph glyph-name="i" unicode="&#x12d;" horiz-adv-x="303" 
d="M86 752h131v-116h-131v116zM91 548h121v-548h-121v548z" />
    <glyph glyph-name="i" unicode="&#x12b;" horiz-adv-x="303" 
d="M86 752h131v-116h-131v116zM91 548h121v-548h-121v548z" />
    <glyph glyph-name="j" unicode="j" horiz-adv-x="303" 
d="M86 752h131v-116h-131v116zM56 -170c-12 0 -22.5 0.5 -31.5 1.5s-18.5 2.5 -28.5 4.5v96c12.667 -2 24.667 -3 36 -3c17.333 0 31.5 5.33301 42.5 16s16.5 28 16.5 52v551h121v-558c0 -54.667 -13.5 -95 -40.5 -121s-65.5 -39 -115.5 -39z" />
    <glyph glyph-name="k" unicode="k" horiz-adv-x="612" 
d="M84 759h120v-462l236 251h146l-219 -225l227 -323h-142l-166 239l-82 -84v-155h-120v759z" />
    <glyph glyph-name="k" unicode="&#x137;" horiz-adv-x="612" 
d="M84 759h120v-462l236 251h146l-219 -225l227 -323h-142l-166 239l-82 -84v-155h-120v759z" />
    <glyph glyph-name="l" unicode="l" horiz-adv-x="303" 
d="M91 759h121v-759h-121v759z" />
    <glyph glyph-name="l" unicode="&#x140;" horiz-adv-x="303" 
d="M91 759h121v-759h-121v759z" />
    <glyph glyph-name="l" unicode="&#x13e;" horiz-adv-x="303" 
d="M91 759h121v-759h-121v759z" />
    <glyph glyph-name="l" unicode="&#x13c;" horiz-adv-x="303" 
d="M91 759h121v-759h-121v759z" />
    <glyph glyph-name="l" unicode="&#x13a;" horiz-adv-x="303" 
d="M91 759h121v-759h-121v759z" />
    <glyph glyph-name="m" unicode="m" horiz-adv-x="996" 
d="M84 548h119.998v-85c8.66699 12.667 18.5 24.667 29.5 36s23.167 21.5 36.5 30.5s28.5 16.167 45.5 21.5s36.167 8 57.5 8c40 0 73.833 -8.83301 101.5 -26.5s48.834 -41.167 63.501 -70.5c22 29.333 47.833 52.833 77.5 70.5s65.834 26.5 108.501 26.5
c60.667 0 108 -18.333 142 -55s51 -88.667 51 -156v-348h-120v312c0 44.667 -10.167 78.667 -30.5 102s-48.5 35 -84.5 35c-35.333 0 -64.333 -11.833 -87 -35.5s-34 -58.167 -34 -103.5v-310h-121v314c0 44 -10 77.5 -30 100.5s-48 34.5 -84 34.5s-65.333 -12.5 -88 -37.5
s-34 -59.167 -34 -102.5v-309h-120v548z" />
    <glyph glyph-name="n" unicode="n" horiz-adv-x="652" 
d="M84 548h120v-86c8.66699 12.667 18.667 25 30 37s24 22.333 38 31s29.833 15.667 47.5 21s37.167 8 58.5 8c62 0 110.333 -19.167 145 -57.5s52 -89.5 52 -153.5v-348h-121v312c0 44 -10.5 77.833 -31.5 101.5s-50.833 35.5 -89.5 35.5c-38 0 -69 -12.167 -93 -36.5
s-36 -58.5 -36 -102.5v-310h-120v548z" />
    <glyph glyph-name="n" unicode="&#x148;" horiz-adv-x="652" 
d="M84 548h120v-86c8.66699 12.667 18.667 25 30 37s24 22.333 38 31s29.833 15.667 47.5 21s37.167 8 58.5 8c62 0 110.333 -19.167 145 -57.5s52 -89.5 52 -153.5v-348h-121v312c0 44 -10.5 77.833 -31.5 101.5s-50.833 35.5 -89.5 35.5c-38 0 -69 -12.167 -93 -36.5
s-36 -58.5 -36 -102.5v-310h-120v548z" />
    <glyph glyph-name="n" unicode="&#x146;" horiz-adv-x="652" 
d="M84 548h120v-86c8.66699 12.667 18.667 25 30 37s24 22.333 38 31s29.833 15.667 47.5 21s37.167 8 58.5 8c62 0 110.333 -19.167 145 -57.5s52 -89.5 52 -153.5v-348h-121v312c0 44 -10.5 77.833 -31.5 101.5s-50.833 35.5 -89.5 35.5c-38 0 -69 -12.167 -93 -36.5
s-36 -58.5 -36 -102.5v-310h-120v548z" />
    <glyph glyph-name="n" unicode="&#x144;" horiz-adv-x="652" 
d="M84 548h120v-86c8.66699 12.667 18.667 25 30 37s24 22.333 38 31s29.833 15.667 47.5 21s37.167 8 58.5 8c62 0 110.333 -19.167 145 -57.5s52 -89.5 52 -153.5v-348h-121v312c0 44 -10.5 77.833 -31.5 101.5s-50.833 35.5 -89.5 35.5c-38 0 -69 -12.167 -93 -36.5
s-36 -58.5 -36 -102.5v-310h-120v548z" />
    <glyph glyph-name="o" unicode="o" horiz-adv-x="690" 
d="M344 -12c-42 0 -80.667 7.49902 -116 22.499s-65.833 35.167 -91.5 60.5s-45.834 55.166 -60.501 89.499s-22 71.166 -22 110.499v2c0 38.667 7.33301 75.334 22 110.001s35 65 61 91s56.833 46.667 92.5 62s74.5 23 116.5 23s80.667 -7.5 116 -22.5
s65.833 -35.333 91.5 -61s45.834 -55.667 60.501 -90s22 -71.166 22 -110.499v-2c0 -39.333 -7.33301 -76.166 -22 -110.499s-35 -64.5 -61 -90.5s-56.833 -46.5 -92.5 -61.5s-74.5 -22.5 -116.5 -22.5zM346 92.999c26 0 49.333 4.66602 70 13.999s38.5 22.166 53.5 38.499
s26.5 35.333 34.5 57s12 44.5 12 68.5v2c0 24.667 -4.33301 47.834 -13 69.501s-20.5 40.834 -35.5 57.501s-33.167 29.834 -54.5 39.501s-44.333 14.5 -69 14.5c-26 0 -49.333 -4.83301 -70 -14.5s-38.5 -22.667 -53.5 -39s-26.5 -35.333 -34.5 -57s-12 -44.5 -12 -68.5v-2
c0 -24.667 4.33301 -47.834 13 -69.501s20.5 -40.667 35.5 -57s33 -29.333 54 -39s44.167 -14.5 69.5 -14.5z" />
    <glyph glyph-name="o" unicode="&#x1ff;" horiz-adv-x="690" 
d="M344 -12c-42 0 -80.667 7.49902 -116 22.499s-65.833 35.167 -91.5 60.5s-45.834 55.166 -60.501 89.499s-22 71.166 -22 110.499v2c0 38.667 7.33301 75.334 22 110.001s35 65 61 91s56.833 46.667 92.5 62s74.5 23 116.5 23s80.667 -7.5 116 -22.5
s65.833 -35.333 91.5 -61s45.834 -55.667 60.501 -90s22 -71.166 22 -110.499v-2c0 -39.333 -7.33301 -76.166 -22 -110.499s-35 -64.5 -61 -90.5s-56.833 -46.5 -92.5 -61.5s-74.5 -22.5 -116.5 -22.5zM346 92.999c26 0 49.333 4.66602 70 13.999s38.5 22.166 53.5 38.499
s26.5 35.333 34.5 57s12 44.5 12 68.5v2c0 24.667 -4.33301 47.834 -13 69.501s-20.5 40.834 -35.5 57.501s-33.167 29.834 -54.5 39.501s-44.333 14.5 -69 14.5c-26 0 -49.333 -4.83301 -70 -14.5s-38.5 -22.667 -53.5 -39s-26.5 -35.333 -34.5 -57s-12 -44.5 -12 -68.5v-2
c0 -24.667 4.33301 -47.834 13 -69.501s20.5 -40.667 35.5 -57s33 -29.333 54 -39s44.167 -14.5 69.5 -14.5z" />
    <glyph glyph-name="o" unicode="&#x151;" horiz-adv-x="690" 
d="M344 -12c-42 0 -80.667 7.49902 -116 22.499s-65.833 35.167 -91.5 60.5s-45.834 55.166 -60.501 89.499s-22 71.166 -22 110.499v2c0 38.667 7.33301 75.334 22 110.001s35 65 61 91s56.833 46.667 92.5 62s74.5 23 116.5 23s80.667 -7.5 116 -22.5
s65.833 -35.333 91.5 -61s45.834 -55.667 60.501 -90s22 -71.166 22 -110.499v-2c0 -39.333 -7.33301 -76.166 -22 -110.499s-35 -64.5 -61 -90.5s-56.833 -46.5 -92.5 -61.5s-74.5 -22.5 -116.5 -22.5zM346 92.999c26 0 49.333 4.66602 70 13.999s38.5 22.166 53.5 38.499
s26.5 35.333 34.5 57s12 44.5 12 68.5v2c0 24.667 -4.33301 47.834 -13 69.501s-20.5 40.834 -35.5 57.501s-33.167 29.834 -54.5 39.501s-44.333 14.5 -69 14.5c-26 0 -49.333 -4.83301 -70 -14.5s-38.5 -22.667 -53.5 -39s-26.5 -35.333 -34.5 -57s-12 -44.5 -12 -68.5v-2
c0 -24.667 4.33301 -47.834 13 -69.501s20.5 -40.667 35.5 -57s33 -29.333 54 -39s44.167 -14.5 69.5 -14.5z" />
    <glyph glyph-name="o" unicode="&#x14f;" horiz-adv-x="690" 
d="M344 -12c-42 0 -80.667 7.49902 -116 22.499s-65.833 35.167 -91.5 60.5s-45.834 55.166 -60.501 89.499s-22 71.166 -22 110.499v2c0 38.667 7.33301 75.334 22 110.001s35 65 61 91s56.833 46.667 92.5 62s74.5 23 116.5 23s80.667 -7.5 116 -22.5
s65.833 -35.333 91.5 -61s45.834 -55.667 60.501 -90s22 -71.166 22 -110.499v-2c0 -39.333 -7.33301 -76.166 -22 -110.499s-35 -64.5 -61 -90.5s-56.833 -46.5 -92.5 -61.5s-74.5 -22.5 -116.5 -22.5zM346 92.999c26 0 49.333 4.66602 70 13.999s38.5 22.166 53.5 38.499
s26.5 35.333 34.5 57s12 44.5 12 68.5v2c0 24.667 -4.33301 47.834 -13 69.501s-20.5 40.834 -35.5 57.501s-33.167 29.834 -54.5 39.501s-44.333 14.5 -69 14.5c-26 0 -49.333 -4.83301 -70 -14.5s-38.5 -22.667 -53.5 -39s-26.5 -35.333 -34.5 -57s-12 -44.5 -12 -68.5v-2
c0 -24.667 4.33301 -47.834 13 -69.501s20.5 -40.667 35.5 -57s33 -29.333 54 -39s44.167 -14.5 69.5 -14.5z" />
    <glyph glyph-name="o" unicode="&#x14d;" horiz-adv-x="690" 
d="M344 -12c-42 0 -80.667 7.49902 -116 22.499s-65.833 35.167 -91.5 60.5s-45.834 55.166 -60.501 89.499s-22 71.166 -22 110.499v2c0 38.667 7.33301 75.334 22 110.001s35 65 61 91s56.833 46.667 92.5 62s74.5 23 116.5 23s80.667 -7.5 116 -22.5
s65.833 -35.333 91.5 -61s45.834 -55.667 60.501 -90s22 -71.166 22 -110.499v-2c0 -39.333 -7.33301 -76.166 -22 -110.499s-35 -64.5 -61 -90.5s-56.833 -46.5 -92.5 -61.5s-74.5 -22.5 -116.5 -22.5zM346 92.999c26 0 49.333 4.66602 70 13.999s38.5 22.166 53.5 38.499
s26.5 35.333 34.5 57s12 44.5 12 68.5v2c0 24.667 -4.33301 47.834 -13 69.501s-20.5 40.834 -35.5 57.501s-33.167 29.834 -54.5 39.501s-44.333 14.5 -69 14.5c-26 0 -49.333 -4.83301 -70 -14.5s-38.5 -22.667 -53.5 -39s-26.5 -35.333 -34.5 -57s-12 -44.5 -12 -68.5v-2
c0 -24.667 4.33301 -47.834 13 -69.501s20.5 -40.667 35.5 -57s33 -29.333 54 -39s44.167 -14.5 69.5 -14.5z" />
    <glyph glyph-name="p" unicode="p" horiz-adv-x="705" 
d="M84 548l120.003 -0.000976562v-94c20.667 29.333 46.167 54.166 76.5 74.499s68.166 30.5 113.499 30.5c32 0 63.333 -6.33301 94 -19s58 -31 82 -55s43.167 -53.667 57.5 -89s21.5 -75.666 21.5 -120.999v-2c0 -45.333 -7.16699 -85.666 -21.5 -120.999
s-33.333 -65 -57 -89s-50.834 -42.333 -81.501 -55s-62.334 -19 -95.001 -19c-46 0 -84.167 9.83301 -114.5 29.5s-55.5 42.5 -75.5 68.5v-253h-120v714zM366.003 92.999c22 0 42.834 4.16797 62.501 12.501s36.667 20.333 51 36s25.833 34.5 34.5 56.5s13 47 13 75v2
c0 27.333 -4.33301 52 -13 74s-20.334 40.833 -35.001 56.5s-31.667 27.834 -51 36.501s-40 13 -62 13s-42.833 -4.33301 -62.5 -13s-37 -20.834 -52 -36.501s-27 -34.667 -36 -57s-13.5 -46.833 -13.5 -73.5v-2c0 -27.333 4.5 -52 13.5 -74s21 -40.833 36 -56.5
s32.333 -27.834 52 -36.501s40.5 -13 62.5 -13z" />
    <glyph glyph-name="q" unicode="q" horiz-adv-x="705" 
d="M500 94c-10 -14.667 -21.333 -28.3301 -34 -40.9971s-26.667 -23.834 -42 -33.501s-32.333 -17.167 -51 -22.5s-39.334 -8 -62.001 -8c-32 0 -63.333 6.33301 -94 19s-58 31 -82 55s-43.167 53.667 -57.5 89s-21.5 75.666 -21.5 120.999v2
c0 45.333 7.16699 85.666 21.5 120.999s33.333 65 57 89s50.834 42.333 81.501 55s62.334 19 95.001 19c46 0 84.167 -9.83301 114.5 -29.5s55.166 -42.5 74.499 -68.5v87h121v-714h-121v260zM339 93.0039c22 0 42.832 4.33203 62.499 12.999s37 20.834 52 36.501
s27 34.5 36 56.5s13.5 46.667 13.5 74v2c0 26.667 -4.5 51.167 -13.5 73.5s-21 41.333 -36 57s-32.333 27.834 -52 36.501s-40.5 13 -62.5 13s-42.833 -4.16699 -62.5 -12.5s-36.667 -20.333 -51 -36s-25.833 -34.5 -34.5 -56.5s-13 -47 -13 -75v-2
c0 -27.333 4.33301 -52 13 -74s20.334 -40.833 35.001 -56.5s31.667 -27.834 51 -36.501s40 -13 62 -13z" />
    <glyph glyph-name="r" unicode="r" horiz-adv-x="436" 
d="M84 548h119.999v-126c18 42 43.333 75.667 76 101s73.334 37 122.001 35v-127h-7c-28 0 -53.667 -4.66699 -77 -14s-43.5 -23.166 -60.5 -41.499s-30.167 -41.333 -39.5 -69s-14 -59.834 -14 -96.501v-210h-120v548z" />
    <glyph glyph-name="s" unicode="s" 
d="M271 -10c-39.333 0 -79.3291 6.66797 -119.996 20.001s-78 33.666 -112 60.999l55 82c30 -22 60.333 -38.833 91 -50.5s60.667 -17.5 90 -17.5c28 0 49.667 5.66699 65 17s23 26.666 23 45.999v2c0 10.667 -3.33301 20 -10 28s-15.834 14.833 -27.501 20.5
s-25 10.834 -40 15.501s-30.5 9.66699 -46.5 15c-20 6 -40.333 12.833 -61 20.5s-39.167 17.5 -55.5 29.5s-29.666 26.833 -39.999 44.5s-15.5 39.5 -15.5 65.5v2c0 26 5 49.167 15 69.5s23.667 37.666 41 51.999s37.666 25.333 60.999 33s48.666 11.5 75.999 11.5
c34.667 0 69.667 -5.5 105 -16.5s67.333 -26.167 96 -45.5l-48 -86c-26.667 16 -53.334 28.667 -80.001 38s-51.667 14 -75 14c-25.333 0 -45 -5.33301 -59 -16s-21 -24.334 -21 -41.001v-2c0 -10 3.33301 -18.833 10 -26.5s15.834 -14.5 27.501 -20.5s25 -11.667 40 -17
s30.833 -10.666 47.5 -15.999c20 -6 40.167 -13.167 60.5 -21.5s38.666 -18.5 54.999 -30.5s29.666 -26.667 39.999 -44s15.5 -38.333 15.5 -63v-2c0 -28.667 -5.16699 -53.667 -15.5 -75s-24.666 -39.166 -42.999 -53.499s-39.833 -25 -64.5 -32
s-51.334 -10.5 -80.001 -10.5z" />
    <glyph glyph-name="t" unicode="t" horiz-adv-x="434" 
d="M268 -9c-23.333 0 -44.501 2.66797 -63.501 8.00098s-35.5 14.333 -49.5 27s-24.833 29 -32.5 49s-11.5 45 -11.5 75v294h-71v104h71v152h120v-152h150v-104h-150v-275c0 -25.333 6.16699 -43.5 18.5 -54.5s29.5 -16.5 51.5 -16.5c14 0 27.333 1.66699 40 5
s25.334 8 38.001 14v-99c-15.333 -8.66699 -31.833 -15.334 -49.5 -20.001s-38.167 -7 -61.5 -7z" />
    <glyph glyph-name="t" unicode="&#x21b;" horiz-adv-x="434" 
d="M268 -9c-23.333 0 -44.501 2.66797 -63.501 8.00098s-35.5 14.333 -49.5 27s-24.833 29 -32.5 49s-11.5 45 -11.5 75v294h-71v104h71v152h120v-152h150v-104h-150v-275c0 -25.333 6.16699 -43.5 18.5 -54.5s29.5 -16.5 51.5 -16.5c14 0 27.333 1.66699 40 5
s25.334 8 38.001 14v-99c-15.333 -8.66699 -31.833 -15.334 -49.5 -20.001s-38.167 -7 -61.5 -7z" />
    <glyph glyph-name="t" unicode="&#x165;" horiz-adv-x="434" 
d="M268 -9c-23.333 0 -44.501 2.66797 -63.501 8.00098s-35.5 14.333 -49.5 27s-24.833 29 -32.5 49s-11.5 45 -11.5 75v294h-71v104h71v152h120v-152h150v-104h-150v-275c0 -25.333 6.16699 -43.5 18.5 -54.5s29.5 -16.5 51.5 -16.5c14 0 27.333 1.66699 40 5
s25.334 8 38.001 14v-99c-15.333 -8.66699 -31.833 -15.334 -49.5 -20.001s-38.167 -7 -61.5 -7z" />
    <glyph glyph-name="t" unicode="&#x163;" horiz-adv-x="434" 
d="M268 -9c-23.333 0 -44.501 2.66797 -63.501 8.00098s-35.5 14.333 -49.5 27s-24.833 29 -32.5 49s-11.5 45 -11.5 75v294h-71v104h71v152h120v-152h150v-104h-150v-275c0 -25.333 6.16699 -43.5 18.5 -54.5s29.5 -16.5 51.5 -16.5c14 0 27.333 1.66699 40 5
s25.334 8 38.001 14v-99c-15.333 -8.66699 -31.833 -15.334 -49.5 -20.001s-38.167 -7 -61.5 -7z" />
    <glyph glyph-name="u" unicode="u" horiz-adv-x="652" 
d="M275 -11c-62.667 0 -111.333 19.167 -146 57.5s-52 89.5 -52 153.5v348h121v-312c0 -44 10.667 -77.833 32 -101.5s51 -35.5 89 -35.5s69 12.167 93 36.5s36 58.5 36 102.5v310h120v-548h-120v86c-18 -26 -40.667 -48.667 -68 -68s-62.333 -29 -105 -29z" />
    <glyph glyph-name="v" unicode="v" horiz-adv-x="625" 
d="M32 548h130l151 -408l153 408h127l-226 -552h-109z" />
    <glyph glyph-name="w" unicode="w" horiz-adv-x="903" 
d="M38 548h124l114 -383l125 385h102l125 -385l116 383h121l-181 -552h-107l-125 381l-127 -381h-107z" />
    <glyph glyph-name="x" unicode="x" horiz-adv-x="610" 
d="M306 361l131 187h129l-195 -267l203 -281h-132l-139 198l-138 -198h-129l202 279l-194 269h132z" />
    <glyph glyph-name="y" unicode="y" horiz-adv-x="628" 
d="M467 548l126 -0.000976562l-219 -563c-11.333 -28 -22.833 -51.833 -34.5 -71.5s-24.834 -35.667 -39.501 -48s-30.667 -21.333 -48 -27s-37 -8.5 -59 -8.5c-25.333 0 -48.166 2.83301 -68.499 8.5s-40.166 13.834 -59.499 24.501l41 91
c11.333 -6.66699 23.333 -12 36 -16s25.667 -6 39 -6c18.667 0 34.167 5 46.5 15s24.166 27.667 35.499 53l-231 548h129l160 -413z" />
    <glyph glyph-name="y" unicode="&#x1ef3;" horiz-adv-x="628" 
d="M467 548l126 -0.000976562l-219 -563c-11.333 -28 -22.833 -51.833 -34.5 -71.5s-24.834 -35.667 -39.501 -48s-30.667 -21.333 -48 -27s-37 -8.5 -59 -8.5c-25.333 0 -48.166 2.83301 -68.499 8.5s-40.166 13.834 -59.499 24.501l41 91
c11.333 -6.66699 23.333 -12 36 -16s25.667 -6 39 -6c18.667 0 34.167 5 46.5 15s24.166 27.667 35.499 53l-231 548h129l160 -413z" />
    <glyph glyph-name="y" unicode="&#x177;" horiz-adv-x="628" 
d="M467 548l126 -0.000976562l-219 -563c-11.333 -28 -22.833 -51.833 -34.5 -71.5s-24.834 -35.667 -39.501 -48s-30.667 -21.333 -48 -27s-37 -8.5 -59 -8.5c-25.333 0 -48.166 2.83301 -68.499 8.5s-40.166 13.834 -59.499 24.501l41 91
c11.333 -6.66699 23.333 -12 36 -16s25.667 -6 39 -6c18.667 0 34.167 5 46.5 15s24.166 27.667 35.499 53l-231 548h129l160 -413z" />
    <glyph glyph-name="z" unicode="z" horiz-adv-x="590" 
d="M59 83l321 366h-310v99h464v-83l-321 -366h321v-99h-475v83z" />
    <glyph glyph-name="braceleft" unicode="{" horiz-adv-x="514" 
d="M437 -147c-47.333 8.66699 -86.1641 19.3291 -116.497 31.9961s-54.333 27.5 -72 44.5s-29.834 36.5 -36.501 58.5s-10 46.333 -10 73c0 4 0.166992 9.33301 0.5 16s0.5 13.667 0.5 21s0.166992 14.5 0.5 21.5s0.5 12.833 0.5 17.5c0 40.667 -8.66699 70 -26 88
s-48 27 -92 27h-27v93h27c44 0 74.667 9 92 27s26 47.333 26 88c0 4.66699 -0.166992 10.5 -0.5 17.5s-0.5 14.167 -0.5 21.5s-0.166992 14.333 -0.5 21s-0.5 12 -0.5 16c0 26.667 3.33301 51 10 73s18.834 41.5 36.501 58.5s41.667 31.833 72 44.5
s69.166 23.334 116.499 32.001l20 -80c-32 -8.66699 -57.5 -17.5 -76.5 -26.5s-33.5 -19 -43.5 -30s-16.5 -23.667 -19.5 -38s-4.5 -31.166 -4.5 -50.499c0 -10.667 0.333008 -23.5 1 -38.5s1 -28.167 1 -39.5c0 -40.667 -9.33301 -71.834 -28 -93.501
s-45.334 -38.167 -80.001 -49.5c35.333 -11.333 62.166 -27.666 80.499 -48.999s27.5 -52.666 27.5 -93.999c0 -10.667 -0.333008 -23.5 -1 -38.5s-1 -27.833 -1 -38.5c0 -19.333 1.5 -36.166 4.5 -50.499s9.5 -27 19.5 -38s24.5 -21 43.5 -30s44.5 -17.833 76.5 -26.5
l-20 -80v0z" />
    <glyph glyph-name="bar" unicode="|" horiz-adv-x="349" 
d="M126 830h97v-963h-97v963z" />
    <glyph glyph-name="braceright" unicode="}" horiz-adv-x="514" 
d="M57 -67c32 8.66699 57.5 17.502 76.5 26.502s33.5 19 43.5 30s16.5 23.667 19.5 38s4.5 31.166 4.5 50.499c0 10.667 -0.5 23.5 -1.5 38.5s-1.5 27.833 -1.5 38.5c0 41.333 9.5 72.833 28.5 94.5s45.833 37.834 80.5 48.501c-35.333 11.333 -62.333 27.833 -81 49.5
s-28 52.834 -28 93.501c0 11.333 0.5 24.5 1.5 39.5s1.5 27.833 1.5 38.5c0 19.333 -1.5 36.166 -4.5 50.499s-9.5 27 -19.5 38s-24.5 21 -43.5 30s-44.5 17.833 -76.5 26.5l20 80c47.333 -8.66699 86.166 -19.334 116.499 -32.001s54.333 -27.5 72 -44.5
s29.834 -36.5 36.501 -58.5s10 -46.333 10 -73c0 -4 -0.166992 -9.33301 -0.5 -16s-0.5 -13.667 -0.5 -21s-0.166992 -14.5 -0.5 -21.5s-0.5 -12.833 -0.5 -17.5c0 -40.667 8.66699 -70 26 -88s48 -27 92 -27h27v-93h-27c-44 0 -74.667 -9 -92 -27s-26 -47.333 -26 -88
c0 -4.66699 0.166992 -10.5 0.5 -17.5s0.5 -14.167 0.5 -21.5s0.166992 -14.333 0.5 -21s0.5 -12 0.5 -16c0 -26.667 -3.33301 -51 -10 -73s-18.834 -41.5 -36.501 -58.5s-41.667 -31.833 -72 -44.5s-69.166 -23.334 -116.499 -32.001z" />
    <glyph glyph-name="exclamdown" unicode="&#xa1;" horiz-adv-x="319" 
d="M93 728h133v-139h-133v139zM89 39l37 462h67l37 -462v-39h-141v39z" />
    <glyph glyph-name="cent" unicode="&#xa2;" horiz-adv-x="612" 
d="M438 641c46.667 -14 88 -41.001 124 -81.001l-74 -79c-24 25.333 -49 43.333 -75 54l-68 -346h1c29.333 0 56.166 6.33301 80.499 19s46.5 29.334 66.5 50.001l70 -70c-27.333 -30.667 -58.833 -55.834 -94.5 -75.501s-79.167 -29.5 -130.5 -29.5h-10l-17 -89h-88l20 105
c-27.333 10 -52.166 23.833 -74.499 41.5s-41.833 38 -58.5 61s-29.5 48.5 -38.5 76.5s-13.5 57.667 -13.5 89v2c0 38.667 7.16699 75.334 21.5 110.001s34.166 65 59.499 91s55.333 46.667 90 62s72.334 23 113.001 23h9l16 79h89zM177 368.999c0 -36 8 -68.334 24 -97.001
s38 -50.334 66 -65.001l69 343h-1c-22.667 -0.666992 -43.667 -5.66699 -63 -15s-36 -22.166 -50 -38.499s-25 -35.166 -33 -56.499s-12 -44.333 -12 -69v-2z" />
    <glyph glyph-name="sterling" unicode="&#xa3;" horiz-adv-x="678" 
d="M70 77l82.9971 24.999v190h-83v103h83v98c0 38 5.33301 72.333 16 103s26.667 56.667 48 78c20.667 20.667 45.5 36.5 74.5 47.5s62.167 16.5 99.5 16.5c28.667 0 54.334 -3 77.001 -9s43.334 -14.167 62.001 -24.5s35.334 -22.5 50.001 -36.5s28 -29.333 40 -46l-94 -75
c-19.333 24.667 -39 43.834 -59 57.501s-45 20.5 -75 20.5c-17.333 0 -32.333 -2.66699 -45 -8s-24 -13 -34 -23c-24 -24 -36 -58.667 -36 -104v-95h262v-103h-262v-185h341v-107h-548v77z" />
    <glyph glyph-name="yen" unicode="&#xa5;" horiz-adv-x="721" 
d="M100 364h167l-242 364h143l194 -311l196 311h138l-243 -364h169v-89h-202v-78h202v-89h-202v-108h-118v108h-202v89h202v78h-202v89z" />
    <glyph glyph-name="dieresis" unicode="&#xa8;" 
d="M302 739h124v-120h-124v120zM102 739h124v-120h-124v120z" />
    <glyph glyph-name="copyright" unicode="&#xa9;" horiz-adv-x="871" 
d="M435 -12c-53.333 0 -102.834 9.83301 -148.501 29.5s-85.334 46.5 -119.001 80.5s-60.167 73.667 -79.5 119s-29 93.666 -29 144.999v2c0 51.333 9.83301 99.833 29.5 145.5s46.5 85.5 80.5 119.5s74 61 120 81s95.333 30 148 30s101.834 -9.83301 147.501 -29.5
s85.334 -46.5 119.001 -80.5s60.167 -73.667 79.5 -119s29 -93.666 29 -144.999v-2c0 -51.333 -9.66699 -99.833 -29 -145.5s-46 -85.5 -80 -119.5s-74 -61 -120 -81s-95.333 -30 -148 -30zM434.999 25c48 0 92.665 8.99707 133.998 26.9971s77 42.333 107 73
s53.667 66.5 71 107.5s26 84.833 26 131.5v2c0 46.667 -8.5 90.334 -25.5 131.001s-40.5 76.334 -70.5 107.001s-65.5 54.834 -106.5 72.501s-85.5 26.5 -133.5 26.5s-92.667 -9 -134 -27s-77.166 -42.333 -107.499 -73s-54.166 -66.5 -71.499 -107.5
s-26 -84.833 -26 -131.5v-2c0 -46.667 8.5 -90.5 25.5 -131.5s40.667 -76.667 71 -107s66 -54.333 107 -72s85.5 -26.5 133.5 -26.5zM439.997 165.997c-28.667 0 -55.165 5.33203 -79.498 15.999s-45.5 25 -63.5 43s-32 39.167 -42 63.5s-15 50.5 -15 78.5v3
c0 27.333 5 53.333 15 78s24 46.167 42 64.5s39.333 33 64 44s51.667 16.5 81 16.5c36.667 0 66.667 -5.83301 90 -17.5s44.666 -26.5 63.999 -44.5l-48 -55c-15.333 14 -31.5 25.5 -48.5 34.5s-36.167 13.5 -57.5 13.5c-18 0 -34.667 -3.5 -50 -10.5
s-28.5 -16.5 -39.5 -28.5s-19.667 -26.167 -26 -42.5s-9.5 -33.5 -9.5 -51.5v-2c0 -18 3.16699 -35.167 9.5 -51.5s15 -30.666 26 -42.999s24.167 -22 39.5 -29s32 -10.5 50 -10.5c23.333 0 43.166 4.33301 59.499 13s32.833 20.667 49.5 36l48 -48
c-20.667 -21.333 -43.167 -38.333 -67.5 -51s-54.833 -19 -91.5 -19z" />
    <glyph glyph-name="ordfeminine" unicode="&#xaa;" horiz-adv-x="414" 
d="M171 419c-14 0 -27.499 1.99902 -40.499 5.99902s-24.5 10 -34.5 18s-18 17.833 -24 29.5s-9 25.167 -9 40.5v2c0 32.667 11.667 57 35 73s53.333 24 90 24c16.667 0 31.167 -1.16699 43.5 -3.5s24.166 -5.16602 35.499 -8.49902v5c0 43.333 -24.333 65 -73 65
c-16.667 0 -31.667 -1.83301 -45 -5.5s-27.333 -8.5 -42 -14.5l-19 55c17.333 8 34.833 14.333 52.5 19s38.5 7 62.5 7c44 0 77.333 -11.333 100 -34c21.333 -21.333 32 -52 32 -92v-179h-68v36c-11.333 -13.333 -24.833 -23.833 -40.5 -31.5s-34.167 -11.5 -55.5 -11.5z
M188.001 471.999c22.667 0 41.666 5.83105 56.999 17.498s23 26.834 23 45.501v20c-9.33301 3.33301 -19.5 6 -30.5 8s-23.167 3 -36.5 3c-21.333 0 -38.166 -4.16699 -50.499 -12.5s-18.5 -20.166 -18.5 -35.499v-2c0 -14 5.33301 -24.833 16 -32.5s24 -11.5 40 -11.5z
M60 352.997h279v-59h-279v59z" />
    <glyph glyph-name="guillemotleft" unicode="&#xab;" horiz-adv-x="631" 
d="M308 270v8l179 226l85 -44l-131 -185l131 -186l-85 -45zM50 270v8l179 226l85 -44l-131 -185l131 -186l-85 -45z" />
    <glyph glyph-name="registered" unicode="&#xae;" horiz-adv-x="408" 
d="M204 374c-25.333 0 -49 4.83301 -71 14.5s-41.167 22.667 -57.5 39s-29.166 35.5 -38.499 57.5s-14 45.333 -14 70v1c0 24.667 4.66699 48 14 70s22.166 41.333 38.499 58s35.5 29.834 57.5 39.501s45.667 14.5 71 14.5s49 -4.83301 71 -14.5s41.167 -22.667 57.5 -39
s29.166 -35.5 38.499 -57.5s14 -45.333 14 -70v-1c0 -24.667 -4.66699 -48 -14 -70s-22.166 -41.333 -38.499 -58s-35.5 -29.834 -57.5 -39.501s-45.667 -14.5 -71 -14.5zM204 394c22.667 0 43.8311 4.33008 63.498 12.9971s36.667 20.334 51 35.001
s25.5 31.834 33.5 51.501s12 40.5 12 62.5v1c0 22 -4 42.833 -12 62.5s-19.167 36.834 -33.5 51.501s-31.333 26.334 -51 35.001s-40.834 13 -63.501 13s-43.667 -4.33301 -63 -13s-36.166 -20.334 -50.499 -35.001s-25.666 -32 -33.999 -52s-12.5 -41 -12.5 -63v-1
c0 -22 4 -42.833 12 -62.5s19.167 -36.667 33.5 -51s31.333 -25.833 51 -34.5s40.834 -13 63.501 -13zM128.997 653.997l88.001 -0.000976562c21.333 0 39.333 -5 54 -15s22 -25.667 22 -47v-1c0 -14 -3.83301 -26.167 -11.5 -36.5s-17.834 -17.166 -30.501 -20.499l48 -68
h-53l-41 60h-31v-60h-45v188zM213.998 561.996c10.667 0 18.834 2.5 24.501 7.5s8.5 11.5 8.5 19.5v1c0 7.33301 -2.83301 13.5 -8.5 18.5s-13.834 7.16699 -24.501 6.5h-40v-53h40z" />
    <glyph glyph-name="macron" unicode="&#xaf;" 
d="M89 720h350v-88h-350v88z" />
    <glyph glyph-name="degree" unicode="&#xb0;" horiz-adv-x="496" 
d="M248 399c-22.667 0 -44.334 4.5 -65.001 13.5s-39 21 -55 36s-28.667 32.667 -38 53s-14 41.5 -14 63.5v3c0 22 4.66699 43.167 14 63.5s22 38 38 53s34.333 27 55 36s42.334 13.5 65.001 13.5s44.334 -4.5 65.001 -13.5s39 -21 55 -36s28.667 -32.667 38 -53
s14 -41.5 14 -63.5v-3c0 -22 -4.66699 -43.167 -14 -63.5s-22 -38 -38 -53s-34.333 -27 -55 -36s-42.334 -13.5 -65.001 -13.5zM248 465c14 0 27.167 2.66699 39.5 8s22.833 12.666 31.5 21.999s15.5 20 20.5 32s7.5 24.667 7.5 38v3c0 13.333 -2.5 26 -7.5 38
s-11.833 22.667 -20.5 32s-19.167 16.666 -31.5 21.999s-25.5 8 -39.5 8s-27.167 -2.66699 -39.5 -8s-22.833 -12.666 -31.5 -21.999s-15.5 -20 -20.5 -32s-7.5 -24.667 -7.5 -38v-3c0 -13.333 2.5 -26 7.5 -38s11.833 -22.667 20.5 -32s19.167 -16.666 31.5 -21.999
s25.5 -8 39.5 -8z" />
    <glyph glyph-name="acute" unicode="&#xb4;" 
d="M282 787l110 -50l-126 -118h-91z" />
    <glyph glyph-name="periodcentered" unicode="&#xb7;" horiz-adv-x="285" 
d="M76 387h133v-139h-133v139z" />
    <glyph glyph-name="cedilla" unicode="&#xb8;" 
d="M143 -126l97 143h90l-81 -188z" />
    <glyph glyph-name="ordmasculine" unicode="&#xba;" horiz-adv-x="414" 
d="M206 419c-22.667 0 -43.501 4.00098 -62.501 12.001s-35.5 19 -49.5 33s-24.833 30.5 -32.5 49.5s-11.5 39.167 -11.5 60.5v2c0 21.333 4 41.5 12 60.5s19 35.667 33 50s30.667 25.666 50 33.999s40.333 12.5 63 12.5s43.5 -4 62.5 -12s35.333 -19 49 -33
s24.334 -30.5 32.001 -49.5s11.5 -39.167 11.5 -60.5v-2c0 -22 -4 -42.5 -12 -61.5s-19 -35.5 -33 -49.5s-30.5 -25.167 -49.5 -33.5s-39.833 -12.5 -62.5 -12.5zM56.999 353.001h300v-59h-300v59zM207.999 482.001c25.333 0 45.668 9 61.001 27s23 39.667 23 65v2
c0 25.333 -8 47.333 -24 66s-36.667 28 -62 28s-45.833 -9 -61.5 -27s-23.5 -39.667 -23.5 -65v-2c0 -25.333 8.16699 -47.333 24.5 -66s37.166 -28 62.499 -28z" />
    <glyph glyph-name="guillemotright" unicode="&#xbb;" horiz-adv-x="631" 
d="M318 88l130 185l-130 186l85 45l178 -226v-8l-178 -226zM59 88l131 185l-131 186l86 45l178 -226v-8l-178 -226z" />
    <glyph glyph-name="questiondown" unicode="&#xbf;" horiz-adv-x="570" 
d="M245 728h133v-139h-133v139zM291 -9c-36.667 0 -69.832 5.00195 -99.499 15.002s-55.167 24.167 -76.5 42.5s-37.833 40.5 -49.5 66.5s-17.5 55 -17.5 87v2c0 32.667 5.5 61 16.5 85s26 44.5 45 61.5s41.167 30.5 66.5 40.5s52.666 17.667 81.999 23l11 87h81l20 -169
l-5 -5c-67.333 -2.66699 -116.5 -14.334 -147.5 -35.001s-46.5 -49 -46.5 -85v-2c0 -30 10.833 -54.667 32.5 -74s51.5 -29 89.5 -29c34 0 64.833 7.16699 92.5 21.5s54.167 35.166 79.5 62.499l75 -79c-30 -34.667 -65 -62.667 -105 -84s-88 -32 -144 -32z" />
    <glyph glyph-name="Agrave" unicode="&#xc0;" horiz-adv-x="830" 
d="M358 733h114l321 -733h-129l-76 177h-350l-76 -177h-126zM543 287l-130 300l-130 -300h260zM369 799l-131 100l110 49l116 -149h-95z" />
    <glyph glyph-name="Aacute" unicode="&#xc1;" horiz-adv-x="830" 
d="M358 733h114l321 -733h-129l-76 177h-350l-76 -177h-126zM543 287l-130 300l-130 -300h260zM481 948l110 -49l-131 -100h-94z" />
    <glyph glyph-name="Acircumflex" unicode="&#xc2;" horiz-adv-x="830" 
d="M358 733h114l321 -733h-129l-76 177h-350l-76 -177h-126zM543 287l-130 300l-130 -300h260zM358 934h114l124 -138h-102l-80 60l-80 -60h-100z" />
    <glyph glyph-name="Atilde" unicode="&#xc3;" horiz-adv-x="830" 
d="M358 733h114l321 -733h-129l-76 177h-350l-76 -177h-126zM543 287l-130 300l-130 -300h260zM500 799c-15.333 0 -30.666 2.5 -45.999 7.5s-30.333 10.167 -45 15.5c-11.333 4.66699 -22.166 8.66699 -32.499 12s-19.5 5 -27.5 5c-15.333 0 -27 -4 -35 -12
s-15.667 -20.667 -23 -38l-68 20c11.333 40 25.5 71 42.5 93s41.167 33 72.5 33c15.333 0 30.666 -2.5 45.999 -7.5s30.333 -10.5 45 -16.5c11.333 -4.66699 22.166 -8.66699 32.499 -12s19.5 -5 27.5 -5c15.333 0 26.833 4 34.5 12s15.167 20.667 22.5 38l68 -20
c-11.333 -40 -25.5 -70.833 -42.5 -92.5s-40.833 -32.5 -71.5 -32.5z" />
    <glyph glyph-name="Adieresis" unicode="&#xc4;" horiz-adv-x="830" 
d="M358 733h114l321 -733h-129l-76 177h-350l-76 -177h-126zM543 287l-130 300l-130 -300h260zM458 912h125v-113h-125v113zM246 912h126v-113h-126v113z" />
    <glyph glyph-name="Aring" unicode="&#xc5;" horiz-adv-x="830" 
d="M338 690c-14 9.33301 -25.168 21.332 -33.501 35.999s-12.5 31.334 -12.5 50.001c0 16 3.33301 30.667 10 44s15.5 24.833 26.5 34.5s24 17.167 39 22.5s30.833 8 47.5 8s32.334 -2.66699 47.001 -8s27.5 -12.833 38.5 -22.5s19.833 -21.167 26.5 -34.5s10 -28 10 -44
c0 -18 -4.16699 -34.333 -12.5 -49s-19.5 -27 -33.5 -37l302 -690h-129l-76 177h-350l-76 -177h-126zM542.999 286.999l-130 300l-130 -300h260zM414.999 714.999c19.333 0 35.333 5.83301 48 17.5s19 26.167 19 43.5s-6.33301 31.666 -19 42.999s-28.667 17 -48 17
c-20 0 -36.333 -5.66699 -49 -17s-19 -25.666 -19 -42.999s6.33301 -31.833 19 -43.5s29 -17.5 49 -17.5z" />
    <glyph glyph-name="AE" unicode="&#xc6;" horiz-adv-x="1095" 
d="M427 728h600v-110h-394v-196h347v-110h-347v-202h399v-110h-521v177h-268l-99 -177h-127zM511 287v334h-22l-187 -334h209z" />
    <glyph glyph-name="AE" unicode="&#x1fc;" horiz-adv-x="1095" 
d="M427 728h600v-110h-394v-196h347v-110h-347v-202h399v-110h-521v177h-268l-99 -177h-127zM511 287v334h-22l-187 -334h209z" />
    <glyph glyph-name="Ccedilla" unicode="&#xc7;" horiz-adv-x="777" 
d="M284 -126l81.0059 121.001c-44 8 -84.167 22.833 -120.5 44.5s-67.833 48.667 -94.5 81s-47.334 69.166 -62.001 110.499s-22 85 -22 131v2c0 52 9.33301 100.833 28 146.5s44.5 85.5 77.5 119.5s72.5 60.833 118.5 80.5s96.333 29.5 151 29.5
c33.333 0 63.666 -2.66699 90.999 -8s52.5 -13 75.5 -23s44.167 -22 63.5 -36s37.666 -29.333 54.999 -46l-80 -91c-29.333 28 -60.333 50.167 -93 66.5s-70.334 24.5 -113.001 24.5c-35.333 0 -68 -6.83301 -98 -20.5s-55.833 -32.167 -77.5 -55.5s-38.667 -51 -51 -83
s-18.5 -66 -18.5 -102v-2c0 -36.667 6.16699 -71 18.5 -103s29.333 -59.833 51 -83.5s47.5 -42.334 77.5 -56.001s62.667 -20.5 98 -20.5c45.333 0 84.166 8.33301 116.499 25s64.166 40 95.499 70l79 -80c-36 -37.333 -75.167 -67.166 -117.5 -89.499
s-93.833 -34.833 -154.5 -37.5l-69 -160z" />
    <glyph glyph-name="Egrave" unicode="&#xc8;" horiz-adv-x="705" 
d="M324 789l-131 100l110 49l116 -149h-95zM99 728h538v-110h-416v-196h369v-110h-369v-202h421v-110h-543v728z" />
    <glyph glyph-name="Eacute" unicode="&#xc9;" horiz-adv-x="705" 
d="M436 938l110 -49l-131 -100h-94zM99 728h538v-110h-416v-196h369v-110h-369v-202h421v-110h-543v728z" />
    <glyph glyph-name="Ecircumflex" unicode="&#xca;" horiz-adv-x="705" 
d="M99 728h538v-110h-416v-196h369v-110h-369v-202h421v-110h-543v728zM313 927h114l124 -138h-102l-80 60l-80 -60h-100z" />
    <glyph glyph-name="Edieresis" unicode="&#xcb;" horiz-adv-x="705" 
d="M413 902h125v-113h-125v113zM201 902h126v-113h-126v113zM99 728h538v-110h-416v-196h369v-110h-369v-202h421v-110h-543v728z" />
    <glyph glyph-name="Igrave" unicode="&#xcc;" horiz-adv-x="335" 
d="M106 728h123v-728h-123v728zM123 789l-131 100l110 49l116 -149h-95z" />
    <glyph glyph-name="Iacute" unicode="&#xcd;" horiz-adv-x="335" 
d="M106 728h123v-728h-123v728zM234 938l110 -49l-131 -100h-94z" />
    <glyph glyph-name="Icircumflex" unicode="&#xce;" horiz-adv-x="335" 
d="M106 728h123v-728h-123v728zM111 927h114l124 -138h-102l-80 60l-80 -60h-100z" />
    <glyph glyph-name="Idieresis" unicode="&#xcf;" horiz-adv-x="335" 
d="M106 728h123v-728h-123v728zM212 902h125v-113h-125v113zM0 902h126v-113h-126v113z" />
    <glyph glyph-name="Eth" unicode="&#xd0;" horiz-adv-x="852" 
d="M130 322h-78v89h78v317h269c57.333 0 109.666 -9.16699 156.999 -27.5s88 -43.833 122 -76.5s60.5 -71 79.5 -115s28.5 -91.667 28.5 -143v-2c0 -51.333 -9.5 -99.166 -28.5 -143.499s-45.5 -82.833 -79.5 -115.5s-74.667 -58.334 -122 -77.001s-99.666 -28 -156.999 -28
h-269v322zM253 322v-211h146c38.667 0 74 6.33301 106 19s59.333 30.167 82 52.5s40.167 48.833 52.5 79.5s18.5 64 18.5 100v2c0 36 -6.16699 69.5 -18.5 100.5s-29.833 57.667 -52.5 80s-50 40 -82 53s-67.333 19.5 -106 19.5h-146v-206h186v-89h-186z" />
    <glyph glyph-name="Ntilde" unicode="&#xd1;" horiz-adv-x="830" 
d="M500 788c-15.333 0 -30.666 2.5 -45.999 7.5s-30.333 10.167 -45 15.5c-11.333 4.66699 -22.166 8.66699 -32.499 12s-19.5 5 -27.5 5c-15.333 0 -27 -4 -35 -12s-15.667 -20.667 -23 -38l-68 20c11.333 40 25.5 71 42.5 93s41.167 33 72.5 33
c15.333 0 30.666 -2.5 45.999 -7.5s30.333 -10.5 45 -16.5c11.333 -4.66699 22.166 -8.66699 32.499 -12s19.5 -5 27.5 -5c15.333 0 26.833 4 34.5 12s15.167 20.667 22.5 38l68 -20c-11.333 -40 -25.5 -70.833 -42.5 -92.5s-40.833 -32.5 -71.5 -32.5zM99 728h113l398 -513
v513h121v-728h-103l-408 527v-527h-121v728z" />
    <glyph glyph-name="Ograve" unicode="&#xd2;" horiz-adv-x="892" 
d="M400 799l-131 100l110 49l116 -149h-95zM445 -12c-56 0 -107.167 9.83105 -153.5 29.498s-86.166 46.5 -119.499 80.5s-59.333 73.667 -78 119s-28 93.666 -28 144.999v2c0 50.667 9.33301 98.834 28 144.501s44.834 85.667 78.501 120s73.834 61.5 120.501 81.5
s98 30 154 30s107.167 -10 153.5 -30s86.166 -47 119.499 -81s59.333 -73.667 78 -119s28 -93.333 28 -144v-2c0 -51.333 -9.33301 -99.666 -28 -144.999s-44.834 -85.166 -78.501 -119.499s-73.834 -61.5 -120.501 -81.5s-98 -30 -154 -30zM447 100.998
c36.667 0 70.334 6.83301 101.001 20.5s57 32.334 79 56.001s39.167 51.334 51.5 83.001s18.5 65.5 18.5 101.5v2c0 36 -6.16699 70 -18.5 102s-29.666 59.833 -51.999 83.5s-49 42.5 -80 56.5s-64.833 21 -101.5 21s-70.334 -6.83301 -101.001 -20.5
s-57 -32.334 -79 -56.001s-39.167 -51.334 -51.5 -83.001s-18.5 -65.5 -18.5 -101.5v-2c0 -36 6.16699 -70 18.5 -102s29.666 -59.833 51.999 -83.5s49 -42.5 80 -56.5s64.833 -21 101.5 -21z" />
    <glyph glyph-name="Oacute" unicode="&#xd3;" horiz-adv-x="892" 
d="M512 948l110 -49l-131 -100h-94zM445 -12c-56 0 -107.167 9.83105 -153.5 29.498s-86.166 46.5 -119.499 80.5s-59.333 73.667 -78 119s-28 93.666 -28 144.999v2c0 50.667 9.33301 98.834 28 144.501s44.834 85.667 78.501 120s73.834 61.5 120.501 81.5s98 30 154 30
s107.167 -10 153.5 -30s86.166 -47 119.499 -81s59.333 -73.667 78 -119s28 -93.333 28 -144v-2c0 -51.333 -9.33301 -99.666 -28 -144.999s-44.834 -85.166 -78.501 -119.499s-73.834 -61.5 -120.501 -81.5s-98 -30 -154 -30zM447 100.998
c36.667 0 70.334 6.83301 101.001 20.5s57 32.334 79 56.001s39.167 51.334 51.5 83.001s18.5 65.5 18.5 101.5v2c0 36 -6.16699 70 -18.5 102s-29.666 59.833 -51.999 83.5s-49 42.5 -80 56.5s-64.833 21 -101.5 21s-70.334 -6.83301 -101.001 -20.5
s-57 -32.334 -79 -56.001s-39.167 -51.334 -51.5 -83.001s-18.5 -65.5 -18.5 -101.5v-2c0 -36 6.16699 -70 18.5 -102s29.666 -59.833 51.999 -83.5s49 -42.5 80 -56.5s64.833 -21 101.5 -21z" />
    <glyph glyph-name="Ocircumflex" unicode="&#xd4;" horiz-adv-x="892" 
d="M445 -12c-56 0 -107.167 9.83105 -153.5 29.498s-86.166 46.5 -119.499 80.5s-59.333 73.667 -78 119s-28 93.666 -28 144.999v2c0 50.667 9.33301 98.834 28 144.501s44.834 85.667 78.501 120s73.834 61.5 120.501 81.5s98 30 154 30s107.167 -10 153.5 -30
s86.166 -47 119.499 -81s59.333 -73.667 78 -119s28 -93.333 28 -144v-2c0 -51.333 -9.33301 -99.666 -28 -144.999s-44.834 -85.166 -78.501 -119.499s-73.834 -61.5 -120.501 -81.5s-98 -30 -154 -30zM447 100.998c36.667 0 70.334 6.83301 101.001 20.5
s57 32.334 79 56.001s39.167 51.334 51.5 83.001s18.5 65.5 18.5 101.5v2c0 36 -6.16699 70 -18.5 102s-29.666 59.833 -51.999 83.5s-49 42.5 -80 56.5s-64.833 21 -101.5 21s-70.334 -6.83301 -101.001 -20.5s-57 -32.334 -79 -56.001s-39.167 -51.334 -51.5 -83.001
s-18.5 -65.5 -18.5 -101.5v-2c0 -36 6.16699 -70 18.5 -102s29.666 -59.833 51.999 -83.5s49 -42.5 80 -56.5s64.833 -21 101.5 -21zM389 936.998h114l124 -138h-102l-80 60l-80 -60h-100z" />
    <glyph glyph-name="Otilde" unicode="&#xd5;" horiz-adv-x="892" 
d="M531 799c-15.333 0 -30.666 2.5 -45.999 7.5s-30.333 10.167 -45 15.5c-11.333 4.66699 -22.166 8.66699 -32.499 12s-19.5 5 -27.5 5c-15.333 0 -27 -4 -35 -12s-15.667 -20.667 -23 -38l-68 20c11.333 40 25.5 71 42.5 93s41.167 33 72.5 33
c15.333 0 30.666 -2.5 45.999 -7.5s30.333 -10.5 45 -16.5c11.333 -4.66699 22.166 -8.66699 32.499 -12s19.5 -5 27.5 -5c15.333 0 26.833 4 34.5 12s15.167 20.667 22.5 38l68 -20c-11.333 -40 -25.5 -70.833 -42.5 -92.5s-40.833 -32.5 -71.5 -32.5zM445 -12
c-56 0 -107.167 9.83105 -153.5 29.498s-86.166 46.5 -119.499 80.5s-59.333 73.667 -78 119s-28 93.666 -28 144.999v2c0 50.667 9.33301 98.834 28 144.501s44.834 85.667 78.501 120s73.834 61.5 120.501 81.5s98 30 154 30s107.167 -10 153.5 -30
s86.166 -47 119.499 -81s59.333 -73.667 78 -119s28 -93.333 28 -144v-2c0 -51.333 -9.33301 -99.666 -28 -144.999s-44.834 -85.166 -78.501 -119.499s-73.834 -61.5 -120.501 -81.5s-98 -30 -154 -30zM447 100.998c36.667 0 70.334 6.83301 101.001 20.5
s57 32.334 79 56.001s39.167 51.334 51.5 83.001s18.5 65.5 18.5 101.5v2c0 36 -6.16699 70 -18.5 102s-29.666 59.833 -51.999 83.5s-49 42.5 -80 56.5s-64.833 21 -101.5 21s-70.334 -6.83301 -101.001 -20.5s-57 -32.334 -79 -56.001s-39.167 -51.334 -51.5 -83.001
s-18.5 -65.5 -18.5 -101.5v-2c0 -36 6.16699 -70 18.5 -102s29.666 -59.833 51.999 -83.5s49 -42.5 80 -56.5s64.833 -21 101.5 -21z" />
    <glyph glyph-name="Odieresis" unicode="&#xd6;" horiz-adv-x="892" 
d="M489 912h125v-113h-125v113zM277 912h126v-113h-126v113zM445 -12c-56 0 -107.167 9.83105 -153.5 29.498s-86.166 46.5 -119.499 80.5s-59.333 73.667 -78 119s-28 93.666 -28 144.999v2c0 50.667 9.33301 98.834 28 144.501s44.834 85.667 78.501 120
s73.834 61.5 120.501 81.5s98 30 154 30s107.167 -10 153.5 -30s86.166 -47 119.499 -81s59.333 -73.667 78 -119s28 -93.333 28 -144v-2c0 -51.333 -9.33301 -99.666 -28 -144.999s-44.834 -85.166 -78.501 -119.499s-73.834 -61.5 -120.501 -81.5s-98 -30 -154 -30z
M447 100.998c36.667 0 70.334 6.83301 101.001 20.5s57 32.334 79 56.001s39.167 51.334 51.5 83.001s18.5 65.5 18.5 101.5v2c0 36 -6.16699 70 -18.5 102s-29.666 59.833 -51.999 83.5s-49 42.5 -80 56.5s-64.833 21 -101.5 21s-70.334 -6.83301 -101.001 -20.5
s-57 -32.334 -79 -56.001s-39.167 -51.334 -51.5 -83.001s-18.5 -65.5 -18.5 -101.5v-2c0 -36 6.16699 -70 18.5 -102s29.666 -59.833 51.999 -83.5s49 -42.5 80 -56.5s64.833 -21 101.5 -21z" />
    <glyph glyph-name="Oslash" unicode="&#xd8;" horiz-adv-x="892" 
d="M834 733l-103 -116.003c30 -34 53.333 -72.333 70 -115s25 -88 25 -136v-2c0 -51.333 -9.33301 -99.666 -28 -144.999s-44.834 -85.166 -78.501 -119.499s-73.834 -61.5 -120.501 -81.5s-98 -30 -154 -30c-42 0 -80.833 5.5 -116.5 16.5s-68.5 26.167 -98.5 45.5l-51 -55
h-121l102 116c-30 33.333 -53.167 71.5 -69.5 114.5s-24.5 88.5 -24.5 136.5v2c0 50.667 9.33301 98.834 28 144.501s44.834 85.667 78.501 120s73.834 61.5 120.501 81.5s98 30 154 30c41.333 0 80 -5.5 116 -16.5s69 -26.5 99 -46.5l51 56h121zM193 364.997
c0 -30.667 4.33203 -59.666 12.999 -86.999s21 -52.333 37 -75l342 385c-20 13.333 -41.667 23.666 -65 30.999s-48.333 11 -75 11c-37.333 0 -71.333 -7 -102 -21s-57.167 -33 -79.5 -57s-39.666 -52 -51.999 -84s-18.5 -66 -18.5 -102v-1zM446.999 97.998
c36.667 0 70.499 6.99902 101.499 20.999s57.833 33 80.5 57s40.167 52 52.5 84s18.5 66 18.5 102v1c0 30.667 -4.5 59.667 -13.5 87s-21.5 52.333 -37.5 75l-342 -385c19.333 -13.333 40.833 -23.666 64.5 -30.999s48.834 -11 75.501 -11z" />
    <glyph glyph-name="Ugrave" unicode="&#xd9;" horiz-adv-x="796" 
d="M352 788l-131 100l110 49l116 -149h-95zM396 -11c-47.333 0 -90 6.83203 -128 20.499s-70.333 33.834 -97 60.501s-47.334 60 -62.001 100s-22 86.333 -22 139v419h123v-415c0 -68.667 16.667 -121 50 -157s79.666 -54 138.999 -54c58 0 103.5 17.167 136.5 51.5
s49.5 85.833 49.5 154.5v420h123v-414c0 -54 -7.33301 -101.333 -22 -142s-35.667 -74.5 -63 -101.5s-60.166 -47.333 -98.499 -61s-81.166 -20.5 -128.499 -20.5z" />
    <glyph glyph-name="Uacute" unicode="&#xda;" horiz-adv-x="796" 
d="M464 937l110 -49l-131 -100h-94zM396 -11c-47.333 0 -90 6.83203 -128 20.499s-70.333 33.834 -97 60.501s-47.334 60 -62.001 100s-22 86.333 -22 139v419h123v-415c0 -68.667 16.667 -121 50 -157s79.666 -54 138.999 -54c58 0 103.5 17.167 136.5 51.5
s49.5 85.833 49.5 154.5v420h123v-414c0 -54 -7.33301 -101.333 -22 -142s-35.667 -74.5 -63 -101.5s-60.166 -47.333 -98.499 -61s-81.166 -20.5 -128.499 -20.5z" />
    <glyph glyph-name="Ucircumflex" unicode="&#xdb;" horiz-adv-x="796" 
d="M396 -11c-47.333 0 -90 6.83203 -128 20.499s-70.333 33.834 -97 60.501s-47.334 60 -62.001 100s-22 86.333 -22 139v419h123v-415c0 -68.667 16.667 -121 50 -157s79.666 -54 138.999 -54c58 0 103.5 17.167 136.5 51.5s49.5 85.833 49.5 154.5v420h123v-414
c0 -54 -7.33301 -101.333 -22 -142s-35.667 -74.5 -63 -101.5s-60.166 -47.333 -98.499 -61s-81.166 -20.5 -128.499 -20.5zM341 925.999h114l124 -138h-102l-80 60l-80 -60h-100z" />
    <glyph glyph-name="Udieresis" unicode="&#xdc;" horiz-adv-x="796" 
d="M441 901h125v-113h-125v113zM229 901h126v-113h-126v113zM396 -11c-47.333 0 -90 6.83203 -128 20.499s-70.333 33.834 -97 60.501s-47.334 60 -62.001 100s-22 86.333 -22 139v419h123v-415c0 -68.667 16.667 -121 50 -157s79.666 -54 138.999 -54
c58 0 103.5 17.167 136.5 51.5s49.5 85.833 49.5 154.5v420h123v-414c0 -54 -7.33301 -101.333 -22 -142s-35.667 -74.5 -63 -101.5s-60.166 -47.333 -98.499 -61s-81.166 -20.5 -128.499 -20.5z" />
    <glyph glyph-name="Yacute" unicode="&#xdd;" horiz-adv-x="753" 
d="M315 287l-291 441h145l208 -327l211 327h141l-291 -438v-290h-123v287zM442 937l110 -49l-131 -100h-94z" />
    <glyph glyph-name="Thorn" unicode="&#xde;" horiz-adv-x="708" 
d="M99 728l122.999 0.00195312v-115h162c42 0 80 -5.83301 114 -17.5s63 -28 87 -49s42.5 -46.333 55.5 -76s19.5 -62.834 19.5 -99.501v-2c0 -40.667 -7.66699 -76.5 -23 -107.5s-36.166 -56.833 -62.499 -77.5s-57 -36.334 -92 -47.001s-72.5 -16 -112.5 -16h-148v-121
h-123v728zM373.999 232.002c50 0 89.499 12.5 118.499 37.5s43.5 57.167 43.5 96.5v2c0 44 -14.667 77.167 -44 99.5s-68.666 33.5 -117.999 33.5h-152v-269h152z" />
    <glyph glyph-name="germandbls" unicode="&#xdf;" horiz-adv-x="653" 
d="M311 91c52 1.33301 92.498 11.6709 121.498 31.0039s43.5 47.333 43.5 84v2c0 34.667 -15.167 62 -45.5 82s-70.166 33 -119.499 39v83c17.333 8 33.333 16.833 48 26.5s27.5 20.5 38.5 32.5s19.667 25.333 26 40s9.5 30.667 9.5 48v2
c0 31.333 -9.83301 56.166 -29.5 74.499s-46.167 27.5 -79.5 27.5c-35.333 0 -64.166 -12.333 -86.499 -37s-33.5 -58 -33.5 -100v-526h-120v522c0 38 5.83301 72 17.5 102s28.167 55.5 49.5 76.5s47.166 37.167 77.499 48.5s64.166 17 101.499 17
c35.333 0 66.833 -5 94.5 -15s51 -23.667 70 -41s33.5 -37.833 43.5 -61.5s15 -49.167 15 -76.5v-2c0 -23.333 -3.16699 -44.333 -9.5 -63s-15 -35.334 -26 -50.001s-23.667 -27.5 -38 -38.5s-29.166 -20.5 -44.499 -28.5c20.667 -6.66699 40.834 -15 60.501 -25
s37 -22.5 52 -37.5s27 -32.667 36 -53s13.5 -43.5 13.5 -69.5v-2c0 -33.333 -6.66699 -63 -20 -89s-32.5 -47.833 -57.5 -65.5s-55 -30.834 -90 -39.501s-74.5 -12.334 -118.5 -11.001v93z" />
    <glyph glyph-name="agrave" unicode="&#xe0;" horiz-adv-x="617" 
d="M243 -11c-26 0 -50.834 3.66895 -74.501 11.002s-44.5 18.166 -62.5 32.499s-32.333 32 -43 53s-16 45.167 -16 72.5v2c0 29.333 5.5 55 16.5 77s26.5 40.333 46.5 55s44 25.667 72 33s58.667 11 92 11c31.333 0 58.833 -2 82.5 -6s46.167 -9.66699 67.5 -17v14
c0 40 -11.833 70.5 -35.5 91.5s-58.167 31.5 -103.5 31.5c-31.333 0 -59.166 -3 -83.499 -9s-49.166 -14.333 -74.499 -25l-32 94c30 13.333 61 24.166 93 32.499s69.667 12.5 113 12.5c40.667 0 76.167 -5.33301 106.5 -16s55.166 -25.667 74.499 -45
c20 -19.333 34.667 -43.166 44 -71.499s14 -60.5 14 -96.5v-326h-117v70c-18.667 -22.667 -42.667 -41.834 -72 -57.501s-65.333 -23.5 -108 -23.5zM274.999 77.002c21.333 0 41.167 3 59.5 9s34.333 14.167 48 24.5s24.334 22.833 32.001 37.5s11.5 31 11.5 49v40
c-16.667 6 -35.834 11.167 -57.501 15.5s-45.5 6.5 -71.5 6.5c-42 0 -74.5 -8.33301 -97.5 -25s-34.5 -39.667 -34.5 -69v-2c0 -28 10.667 -49.333 32 -64s47.333 -22 78 -22zM141 737.002l110 50l107 -168h-91z" />
    <glyph glyph-name="aacute" unicode="&#xe1;" horiz-adv-x="617" 
d="M243 -11c-26 0 -50.834 3.66895 -74.501 11.002s-44.5 18.166 -62.5 32.499s-32.333 32 -43 53s-16 45.167 -16 72.5v2c0 29.333 5.5 55 16.5 77s26.5 40.333 46.5 55s44 25.667 72 33s58.667 11 92 11c31.333 0 58.833 -2 82.5 -6s46.167 -9.66699 67.5 -17v14
c0 40 -11.833 70.5 -35.5 91.5s-58.167 31.5 -103.5 31.5c-31.333 0 -59.166 -3 -83.499 -9s-49.166 -14.333 -74.499 -25l-32 94c30 13.333 61 24.166 93 32.499s69.667 12.5 113 12.5c40.667 0 76.167 -5.33301 106.5 -16s55.166 -25.667 74.499 -45
c20 -19.333 34.667 -43.166 44 -71.499s14 -60.5 14 -96.5v-326h-117v70c-18.667 -22.667 -42.667 -41.834 -72 -57.501s-65.333 -23.5 -108 -23.5zM274.999 77.002c21.333 0 41.167 3 59.5 9s34.333 14.167 48 24.5s24.334 22.833 32.001 37.5s11.5 31 11.5 49v40
c-16.667 6 -35.834 11.167 -57.501 15.5s-45.5 6.5 -71.5 6.5c-42 0 -74.5 -8.33301 -97.5 -25s-34.5 -39.667 -34.5 -69v-2c0 -28 10.667 -49.333 32 -64s47.333 -22 78 -22zM369 787.002l110 -50l-126 -118h-91z" />
    <glyph glyph-name="acircumflex" unicode="&#xe2;" horiz-adv-x="617" 
d="M243 -11c-26 0 -50.834 3.66895 -74.501 11.002s-44.5 18.166 -62.5 32.499s-32.333 32 -43 53s-16 45.167 -16 72.5v2c0 29.333 5.5 55 16.5 77s26.5 40.333 46.5 55s44 25.667 72 33s58.667 11 92 11c31.333 0 58.833 -2 82.5 -6s46.167 -9.66699 67.5 -17v14
c0 40 -11.833 70.5 -35.5 91.5s-58.167 31.5 -103.5 31.5c-31.333 0 -59.166 -3 -83.499 -9s-49.166 -14.333 -74.499 -25l-32 94c30 13.333 61 24.166 93 32.499s69.667 12.5 113 12.5c40.667 0 76.167 -5.33301 106.5 -16s55.166 -25.667 74.499 -45
c20 -19.333 34.667 -43.166 44 -71.499s14 -60.5 14 -96.5v-326h-117v70c-18.667 -22.667 -42.667 -41.834 -72 -57.501s-65.333 -23.5 -108 -23.5zM274.999 77.002c21.333 0 41.167 3 59.5 9s34.333 14.167 48 24.5s24.334 22.833 32.001 37.5s11.5 31 11.5 49v40
c-16.667 6 -35.834 11.167 -57.501 15.5s-45.5 6.5 -71.5 6.5c-42 0 -74.5 -8.33301 -97.5 -25s-34.5 -39.667 -34.5 -69v-2c0 -28 10.667 -49.333 32 -64s47.333 -22 78 -22zM254 769.002h112l120 -150h-97l-80 69l-80 -69h-94z" />
    <glyph glyph-name="atilde" unicode="&#xe3;" horiz-adv-x="617" 
d="M243 -11c-26 0 -50.834 3.66895 -74.501 11.002s-44.5 18.166 -62.5 32.499s-32.333 32 -43 53s-16 45.167 -16 72.5v2c0 29.333 5.5 55 16.5 77s26.5 40.333 46.5 55s44 25.667 72 33s58.667 11 92 11c31.333 0 58.833 -2 82.5 -6s46.167 -9.66699 67.5 -17v14
c0 40 -11.833 70.5 -35.5 91.5s-58.167 31.5 -103.5 31.5c-31.333 0 -59.166 -3 -83.499 -9s-49.166 -14.333 -74.499 -25l-32 94c30 13.333 61 24.166 93 32.499s69.667 12.5 113 12.5c40.667 0 76.167 -5.33301 106.5 -16s55.166 -25.667 74.499 -45
c20 -19.333 34.667 -43.166 44 -71.499s14 -60.5 14 -96.5v-326h-117v70c-18.667 -22.667 -42.667 -41.834 -72 -57.501s-65.333 -23.5 -108 -23.5zM274.999 77.002c21.333 0 41.167 3 59.5 9s34.333 14.167 48 24.5s24.334 22.833 32.001 37.5s11.5 31 11.5 49v40
c-16.667 6 -35.834 11.167 -57.501 15.5s-45.5 6.5 -71.5 6.5c-42 0 -74.5 -8.33301 -97.5 -25s-34.5 -39.667 -34.5 -69v-2c0 -28 10.667 -49.333 32 -64s47.333 -22 78 -22zM393 619.002c-15.333 0 -30 2.33301 -44 7s-27.667 9.66699 -41 15
c-12 5.33301 -23.333 9.83301 -34 13.5s-20.334 5.5 -29.001 5.5c-15.333 0 -26.833 -4.16699 -34.5 -12.5s-15.167 -21.166 -22.5 -38.499l-67 20c11.333 42 25.333 73.667 42 95s40.667 32 72 32c15.333 0 30 -2.33301 44 -7s27.667 -9.66699 41 -15
c12 -5.33301 23.333 -9.83301 34 -13.5s20.334 -5.5 29.001 -5.5c15.333 0 26.833 4.16699 34.5 12.5s15.167 21.166 22.5 38.499l67 -20c-11.333 -42 -25.333 -73.667 -42 -95s-40.667 -32 -72 -32z" />
    <glyph glyph-name="adieresis" unicode="&#xe4;" horiz-adv-x="617" 
d="M243 -11c-26 0 -50.834 3.66895 -74.501 11.002s-44.5 18.166 -62.5 32.499s-32.333 32 -43 53s-16 45.167 -16 72.5v2c0 29.333 5.5 55 16.5 77s26.5 40.333 46.5 55s44 25.667 72 33s58.667 11 92 11c31.333 0 58.833 -2 82.5 -6s46.167 -9.66699 67.5 -17v14
c0 40 -11.833 70.5 -35.5 91.5s-58.167 31.5 -103.5 31.5c-31.333 0 -59.166 -3 -83.499 -9s-49.166 -14.333 -74.499 -25l-32 94c30 13.333 61 24.166 93 32.499s69.667 12.5 113 12.5c40.667 0 76.167 -5.33301 106.5 -16s55.166 -25.667 74.499 -45
c20 -19.333 34.667 -43.166 44 -71.499s14 -60.5 14 -96.5v-326h-117v70c-18.667 -22.667 -42.667 -41.834 -72 -57.501s-65.333 -23.5 -108 -23.5zM274.999 77.002c21.333 0 41.167 3 59.5 9s34.333 14.167 48 24.5s24.334 22.833 32.001 37.5s11.5 31 11.5 49v40
c-16.667 6 -35.834 11.167 -57.501 15.5s-45.5 6.5 -71.5 6.5c-42 0 -74.5 -8.33301 -97.5 -25s-34.5 -39.667 -34.5 -69v-2c0 -28 10.667 -49.333 32 -64s47.333 -22 78 -22zM348 739.002h124v-120h-124v120zM148 739.002h124v-120h-124v120z" />
    <glyph glyph-name="aring" unicode="&#xe5;" horiz-adv-x="617" 
d="M243 -11c-26 0 -50.834 3.66895 -74.501 11.002s-44.5 18.166 -62.5 32.499s-32.333 32 -43 53s-16 45.167 -16 72.5v2c0 29.333 5.5 55 16.5 77s26.5 40.333 46.5 55s44 25.667 72 33s58.667 11 92 11c31.333 0 58.833 -2 82.5 -6s46.167 -9.66699 67.5 -17v14
c0 40 -11.833 70.5 -35.5 91.5s-58.167 31.5 -103.5 31.5c-31.333 0 -59.166 -3 -83.499 -9s-49.166 -14.333 -74.499 -25l-32 94c30 13.333 61 24.166 93 32.499s69.667 12.5 113 12.5c40.667 0 76.167 -5.33301 106.5 -16s55.166 -25.667 74.499 -45
c20 -19.333 34.667 -43.166 44 -71.499s14 -60.5 14 -96.5v-326h-117v70c-18.667 -22.667 -42.667 -41.834 -72 -57.501s-65.333 -23.5 -108 -23.5zM274.999 77.002c21.333 0 41.167 3 59.5 9s34.333 14.167 48 24.5s24.334 22.833 32.001 37.5s11.5 31 11.5 49v40
c-16.667 6 -35.834 11.167 -57.501 15.5s-45.5 6.5 -71.5 6.5c-42 0 -74.5 -8.33301 -97.5 -25s-34.5 -39.667 -34.5 -69v-2c0 -28 10.667 -49.333 32 -64s47.333 -22 78 -22zM310 617.002c-16.667 0 -32.167 3 -46.5 9s-27 14.167 -38 24.5s-19.667 22.5 -26 36.5
s-9.5 29 -9.5 45s3.16699 31 9.5 45s15 26.333 26 37s23.667 19 38 25s29.833 9 46.5 9s32.167 -3 46.5 -9s27 -14.333 38 -25s19.667 -23 26 -37s9.5 -29 9.5 -45s-3.16699 -31 -9.5 -45s-15 -26.167 -26 -36.5s-23.667 -18.5 -38 -24.5s-29.833 -9 -46.5 -9zM310 662.002
c19.333 0 35.833 6.83301 49.5 20.5s20.5 30.167 20.5 49.5s-6.83301 35.833 -20.5 49.5s-30.167 20.5 -49.5 20.5s-35.833 -6.83301 -49.5 -20.5s-20.5 -30.167 -20.5 -49.5s6.83301 -35.833 20.5 -49.5s30.167 -20.5 49.5 -20.5z" />
    <glyph glyph-name="ae" unicode="&#xe6;" horiz-adv-x="998" 
d="M253 -11c-28 0 -54.498 3.66992 -79.498 11.0029s-46.833 18.166 -65.5 32.499s-33.5 32 -44.5 53s-16.5 45.167 -16.5 72.5v2c0 29.333 5.5 55 16.5 77s26.5 40.333 46.5 55s43.667 25.667 71 33s57.666 11 90.999 11c30.667 0 57.5 -2 80.5 -6
s45.167 -9.66699 66.5 -17v14c0 40 -11.667 70.5 -35 91.5s-57 31.5 -101 31.5c-30.667 0 -58 -3 -82 -9s-48.667 -14.333 -74 -25l-32 94c30 13.333 60.667 24.166 92 32.499s68.666 12.5 111.999 12.5c95.333 0 159.666 -31 192.999 -93c22 30 49.5 53.667 82.5 71
s70.5 26 112.5 26s79.167 -7.83301 111.5 -23.5s59.5 -37 81.5 -64s38.5 -58.333 49.5 -94s16.5 -73.167 16.5 -112.5c0 -5.33301 -0.166992 -10.833 -0.5 -16.5s-0.833008 -11.5 -1.5 -17.5h-406c6.66699 -46.667 24.834 -82.334 54.501 -107.001s65.167 -37 106.5 -37
c32 0 59.833 5.66699 83.5 17s46.5 27.666 68.5 48.999l71 -63c-26.667 -31.333 -58.167 -56.166 -94.5 -74.499s-79.833 -27.5 -130.5 -27.5c-43.333 0 -83.333 8.33301 -120 25s-67.667 40 -93 70c-30 -26.667 -64 -49 -102 -67s-81 -27 -129 -27zM826.002 311.003
c-2 20.667 -6.5 40.168 -13.5 58.501s-16.5 34.166 -28.5 47.499s-26.5 23.833 -43.5 31.5s-36.167 11.5 -57.5 11.5c-40 0 -73 -13.833 -99 -41.5s-42 -63.5 -48 -107.5h290zM273.002 78.0039c31.333 0 61.001 6.49902 89.001 19.499s54 30.833 78 53.5
c-11.333 27.333 -18.333 56.333 -21 87c-16.667 5.33301 -35.334 10.166 -56.001 14.499s-43 6.5 -67 6.5c-42 0 -74.333 -8.33301 -97 -25s-34 -39.667 -34 -69v-2c0 -13.333 2.83301 -25.166 8.5 -35.499s13.5 -19.166 23.5 -26.499s21.5 -13 34.5 -17s26.833 -6 41.5 -6z
" />
    <glyph glyph-name="ae" unicode="&#x1fd;" horiz-adv-x="998" 
d="M253 -11c-28 0 -54.498 3.66992 -79.498 11.0029s-46.833 18.166 -65.5 32.499s-33.5 32 -44.5 53s-16.5 45.167 -16.5 72.5v2c0 29.333 5.5 55 16.5 77s26.5 40.333 46.5 55s43.667 25.667 71 33s57.666 11 90.999 11c30.667 0 57.5 -2 80.5 -6
s45.167 -9.66699 66.5 -17v14c0 40 -11.667 70.5 -35 91.5s-57 31.5 -101 31.5c-30.667 0 -58 -3 -82 -9s-48.667 -14.333 -74 -25l-32 94c30 13.333 60.667 24.166 92 32.499s68.666 12.5 111.999 12.5c95.333 0 159.666 -31 192.999 -93c22 30 49.5 53.667 82.5 71
s70.5 26 112.5 26s79.167 -7.83301 111.5 -23.5s59.5 -37 81.5 -64s38.5 -58.333 49.5 -94s16.5 -73.167 16.5 -112.5c0 -5.33301 -0.166992 -10.833 -0.5 -16.5s-0.833008 -11.5 -1.5 -17.5h-406c6.66699 -46.667 24.834 -82.334 54.501 -107.001s65.167 -37 106.5 -37
c32 0 59.833 5.66699 83.5 17s46.5 27.666 68.5 48.999l71 -63c-26.667 -31.333 -58.167 -56.166 -94.5 -74.499s-79.833 -27.5 -130.5 -27.5c-43.333 0 -83.333 8.33301 -120 25s-67.667 40 -93 70c-30 -26.667 -64 -49 -102 -67s-81 -27 -129 -27zM826.002 311.003
c-2 20.667 -6.5 40.168 -13.5 58.501s-16.5 34.166 -28.5 47.499s-26.5 23.833 -43.5 31.5s-36.167 11.5 -57.5 11.5c-40 0 -73 -13.833 -99 -41.5s-42 -63.5 -48 -107.5h290zM273.002 78.0039c31.333 0 61.001 6.49902 89.001 19.499s54 30.833 78 53.5
c-11.333 27.333 -18.333 56.333 -21 87c-16.667 5.33301 -35.334 10.166 -56.001 14.499s-43 6.5 -67 6.5c-42 0 -74.333 -8.33301 -97 -25s-34 -39.667 -34 -69v-2c0 -13.333 2.83301 -25.166 8.5 -35.499s13.5 -19.166 23.5 -26.499s21.5 -13 34.5 -17s26.833 -6 41.5 -6z
" />
    <glyph glyph-name="ccedilla" unicode="&#xe7;" horiz-adv-x="602" 
d="M184 -126l82.998 122.999c-31.333 7.33301 -60.166 19.666 -86.499 36.999s-48.833 38 -67.5 62s-33.167 50.833 -43.5 80.5s-15.5 61.167 -15.5 94.5v2c0 38.667 7.16699 75.334 21.5 110.001s34 65 59 91s54.833 46.667 89.5 62s72.667 23 114 23
c51.333 0 94.333 -8.83301 129 -26.5s64.667 -40.5 90 -68.5l-76 -81c-19.333 20.667 -40.166 37.667 -62.499 51s-49.5 20 -81.5 20c-23.333 0 -45 -4.66699 -65 -14s-37.333 -22.166 -52 -38.499s-26 -35.333 -34 -57s-12 -44.834 -12 -69.501v-2
c0 -25.333 4.16699 -48.833 12.5 -70.5s20 -40.667 35 -57s32.833 -29.166 53.5 -38.499s43.334 -14 68.001 -14c30 0 56.5 6.33301 79.5 19s44.833 29.334 65.5 50.001l73 -71c-25.333 -28 -53.833 -51.333 -85.5 -70s-70.834 -29.334 -117.501 -32.001l-68 -160z" />
    <glyph glyph-name="egrave" unicode="&#xe8;" horiz-adv-x="635" 
d="M334 -12c-39.333 0 -76.167 6.83301 -110.5 20.5s-64 33 -89 58s-44.667 55 -59 90s-21.5 73.5 -21.5 115.5v2c0 39.333 6.66699 76.333 20 111s31.666 64.834 54.999 90.501s51.333 46 84 61s68.667 22.5 108 22.5c43.333 0 81.333 -7.83301 114 -23.5
s59.834 -37 81.501 -64s38 -58.333 49 -94s16.5 -73.167 16.5 -112.5v-16.5c0 -5.66699 -0.333008 -11.5 -1 -17.5h-406c6.66699 -46.667 24.667 -82.334 54 -107.001s65 -37 107 -37c32 0 59.833 5.66699 83.5 17s46.167 27.666 67.5 48.999l72 -63
c-26.667 -31.333 -58.167 -56.166 -94.5 -74.499s-79.833 -27.5 -130.5 -27.5zM462.999 311c-2 20.667 -6.66699 40.168 -14 58.501s-17 34.166 -29 47.499s-26.333 23.833 -43 31.5s-35.667 11.5 -57 11.5c-40 0 -73 -13.833 -99 -41.5s-42 -63.5 -48 -107.5h290z
M149.999 737.001l110 50l107 -168h-91z" />
    <glyph glyph-name="eacute" unicode="&#xe9;" horiz-adv-x="635" 
d="M379 787l110 -50l-126 -118h-91zM334 -12c-39.333 0 -76.167 6.83301 -110.5 20.5s-64 33 -89 58s-44.667 55 -59 90s-21.5 73.5 -21.5 115.5v2c0 39.333 6.66699 76.333 20 111s31.666 64.834 54.999 90.501s51.333 46 84 61s68.667 22.5 108 22.5
c43.333 0 81.333 -7.83301 114 -23.5s59.834 -37 81.501 -64s38 -58.333 49 -94s16.5 -73.167 16.5 -112.5v-16.5c0 -5.66699 -0.333008 -11.5 -1 -17.5h-406c6.66699 -46.667 24.667 -82.334 54 -107.001s65 -37 107 -37c32 0 59.833 5.66699 83.5 17
s46.167 27.666 67.5 48.999l72 -63c-26.667 -31.333 -58.167 -56.166 -94.5 -74.499s-79.833 -27.5 -130.5 -27.5zM462.999 311c-2 20.667 -6.66699 40.168 -14 58.501s-17 34.166 -29 47.499s-26.333 23.833 -43 31.5s-35.667 11.5 -57 11.5c-40 0 -73 -13.833 -99 -41.5
s-42 -63.5 -48 -107.5h290z" />
    <glyph glyph-name="ecircumflex" unicode="&#xea;" horiz-adv-x="635" 
d="M263 769h112l120 -150h-97l-80 69l-80 -69h-94zM334 -12c-39.333 0 -76.167 6.83301 -110.5 20.5s-64 33 -89 58s-44.667 55 -59 90s-21.5 73.5 -21.5 115.5v2c0 39.333 6.66699 76.333 20 111s31.666 64.834 54.999 90.501s51.333 46 84 61s68.667 22.5 108 22.5
c43.333 0 81.333 -7.83301 114 -23.5s59.834 -37 81.501 -64s38 -58.333 49 -94s16.5 -73.167 16.5 -112.5v-16.5c0 -5.66699 -0.333008 -11.5 -1 -17.5h-406c6.66699 -46.667 24.667 -82.334 54 -107.001s65 -37 107 -37c32 0 59.833 5.66699 83.5 17
s46.167 27.666 67.5 48.999l72 -63c-26.667 -31.333 -58.167 -56.166 -94.5 -74.499s-79.833 -27.5 -130.5 -27.5zM462.999 311c-2 20.667 -6.66699 40.168 -14 58.501s-17 34.166 -29 47.499s-26.333 23.833 -43 31.5s-35.667 11.5 -57 11.5c-40 0 -73 -13.833 -99 -41.5
s-42 -63.5 -48 -107.5h290z" />
    <glyph glyph-name="edieresis" unicode="&#xeb;" horiz-adv-x="635" 
d="M357 739h124v-120h-124v120zM157 739h124v-120h-124v120zM334 -12c-39.333 0 -76.167 6.83301 -110.5 20.5s-64 33 -89 58s-44.667 55 -59 90s-21.5 73.5 -21.5 115.5v2c0 39.333 6.66699 76.333 20 111s31.666 64.834 54.999 90.501s51.333 46 84 61
s68.667 22.5 108 22.5c43.333 0 81.333 -7.83301 114 -23.5s59.834 -37 81.501 -64s38 -58.333 49 -94s16.5 -73.167 16.5 -112.5v-16.5c0 -5.66699 -0.333008 -11.5 -1 -17.5h-406c6.66699 -46.667 24.667 -82.334 54 -107.001s65 -37 107 -37c32 0 59.833 5.66699 83.5 17
s46.167 27.666 67.5 48.999l72 -63c-26.667 -31.333 -58.167 -56.166 -94.5 -74.499s-79.833 -27.5 -130.5 -27.5zM462.999 311c-2 20.667 -6.66699 40.168 -14 58.501s-17 34.166 -29 47.499s-26.333 23.833 -43 31.5s-35.667 11.5 -57 11.5c-40 0 -73 -13.833 -99 -41.5
s-42 -63.5 -48 -107.5h290z" />
    <glyph glyph-name="igrave" unicode="&#xec;" horiz-adv-x="303" 
d="M91 548h121v-548h-121v548zM-17 737l110 50l107 -168h-91z" />
    <glyph glyph-name="iacute" unicode="&#xed;" horiz-adv-x="303" 
d="M211 787l110 -50l-126 -118h-91zM91 548h121v-548h-121v548z" />
    <glyph glyph-name="icircumflex" unicode="&#xee;" horiz-adv-x="303" 
d="M96 769h112l120 -150h-97l-80 69l-80 -69h-94zM91 548h121v-548h-121v548z" />
    <glyph glyph-name="idieresis" unicode="&#xef;" horiz-adv-x="303" 
d="M190 739h124v-120h-124v120zM-10 739h124v-120h-124v120zM91 548h121v-548h-121v548z" />
    <glyph glyph-name="eth" unicode="&#xf0;" horiz-adv-x="690" 
d="M457 668c25.333 -25.333 48.833 -52.1689 70.5 -80.502s40.5 -57.833 56.5 -88.5s28.5 -62.5 37.5 -95.5s13.5 -67.5 13.5 -103.5v-2c0 -43.333 -6.83301 -83.833 -20.5 -121.5s-33.167 -70.5 -58.5 -98.5s-56 -50 -92 -66s-76.667 -24 -122 -24
c-41.333 0 -79.5 7.5 -114.5 22.5s-65.333 35.5 -91 61.5s-45.834 56.5 -60.501 91.5s-22 72.833 -22 113.5v2c0 38.667 6.66699 74.334 20 107.001s31.333 61 54 85s49.167 42.667 79.5 56s62.5 20 96.5 20s63.167 -5.33301 87.5 -16s47.166 -23.667 68.499 -39
c-13.333 22.667 -29.833 45.834 -49.5 69.501s-41.5 47.167 -65.5 70.5l-124 -40l-26 67l89 28c-15.333 12.667 -30.666 25 -45.999 37s-30.666 23.667 -45.999 35h164l42 -35l118 38l25 -67zM346 92.9971c25.333 0 48.499 4.49805 69.499 13.498s38.833 21.5 53.5 37.5
s26 34.833 34 56.5s12 44.834 12 69.501v2c0 24 -4.16699 46.667 -12.5 68s-20.166 40 -35.499 56s-33.666 28.5 -54.999 37.5s-45 13.5 -71 13.5s-49.167 -4.5 -69.5 -13.5s-37.833 -21.333 -52.5 -37s-25.834 -34.167 -33.501 -55.5s-11.5 -44 -11.5 -68v-2
c0 -24 4.33301 -46.833 13 -68.5s20.5 -40.667 35.5 -57s33 -29.166 54 -38.499s44.167 -14 69.5 -14z" />
    <glyph glyph-name="ntilde" unicode="&#xf1;" horiz-adv-x="652" 
d="M84 548h120v-86c8.66699 12.667 18.667 25 30 37s24 22.333 38 31s29.833 15.667 47.5 21s37.167 8 58.5 8c62 0 110.333 -19.167 145 -57.5s52 -89.5 52 -153.5v-348h-121v312c0 44 -10.5 77.833 -31.5 101.5s-50.833 35.5 -89.5 35.5c-38 0 -69 -12.167 -93 -36.5
s-36 -58.5 -36 -102.5v-310h-120v548zM412 619c-15.333 0 -30 2.33301 -44 7s-27.667 9.66699 -41 15c-12 5.33301 -23.333 9.83301 -34 13.5s-20.334 5.5 -29.001 5.5c-15.333 0 -26.833 -4.16699 -34.5 -12.5s-15.167 -21.166 -22.5 -38.499l-67 20
c11.333 42 25.333 73.667 42 95s40.667 32 72 32c15.333 0 30 -2.33301 44 -7s27.667 -9.66699 41 -15c12 -5.33301 23.333 -9.83301 34 -13.5s20.334 -5.5 29.001 -5.5c15.333 0 26.833 4.16699 34.5 12.5s15.167 21.166 22.5 38.499l67 -20
c-11.333 -42 -25.333 -73.667 -42 -95s-40.667 -32 -72 -32z" />
    <glyph glyph-name="ograve" unicode="&#xf2;" horiz-adv-x="690" 
d="M344 -12c-42 0 -80.667 7.49902 -116 22.499s-65.833 35.167 -91.5 60.5s-45.834 55.166 -60.501 89.499s-22 71.166 -22 110.499v2c0 38.667 7.33301 75.334 22 110.001s35 65 61 91s56.833 46.667 92.5 62s74.5 23 116.5 23s80.667 -7.5 116 -22.5
s65.833 -35.333 91.5 -61s45.834 -55.667 60.501 -90s22 -71.166 22 -110.499v-2c0 -39.333 -7.33301 -76.166 -22 -110.499s-35 -64.5 -61 -90.5s-56.833 -46.5 -92.5 -61.5s-74.5 -22.5 -116.5 -22.5zM346 92.999c26 0 49.333 4.66602 70 13.999s38.5 22.166 53.5 38.499
s26.5 35.333 34.5 57s12 44.5 12 68.5v2c0 24.667 -4.33301 47.834 -13 69.501s-20.5 40.834 -35.5 57.501s-33.167 29.834 -54.5 39.501s-44.333 14.5 -69 14.5c-26 0 -49.333 -4.83301 -70 -14.5s-38.5 -22.667 -53.5 -39s-26.5 -35.333 -34.5 -57s-12 -44.5 -12 -68.5v-2
c0 -24.667 4.33301 -47.834 13 -69.501s20.5 -40.667 35.5 -57s33 -29.333 54 -39s44.167 -14.5 69.5 -14.5zM176 736.998l110 50l107 -168h-91z" />
    <glyph glyph-name="oacute" unicode="&#xf3;" horiz-adv-x="690" 
d="M404 787l110 -50l-126 -118h-91zM344 -12c-42 0 -80.667 7.49902 -116 22.499s-65.833 35.167 -91.5 60.5s-45.834 55.166 -60.501 89.499s-22 71.166 -22 110.499v2c0 38.667 7.33301 75.334 22 110.001s35 65 61 91s56.833 46.667 92.5 62s74.5 23 116.5 23
s80.667 -7.5 116 -22.5s65.833 -35.333 91.5 -61s45.834 -55.667 60.501 -90s22 -71.166 22 -110.499v-2c0 -39.333 -7.33301 -76.166 -22 -110.499s-35 -64.5 -61 -90.5s-56.833 -46.5 -92.5 -61.5s-74.5 -22.5 -116.5 -22.5zM346 92.999c26 0 49.333 4.66602 70 13.999
s38.5 22.166 53.5 38.499s26.5 35.333 34.5 57s12 44.5 12 68.5v2c0 24.667 -4.33301 47.834 -13 69.501s-20.5 40.834 -35.5 57.501s-33.167 29.834 -54.5 39.501s-44.333 14.5 -69 14.5c-26 0 -49.333 -4.83301 -70 -14.5s-38.5 -22.667 -53.5 -39
s-26.5 -35.333 -34.5 -57s-12 -44.5 -12 -68.5v-2c0 -24.667 4.33301 -47.834 13 -69.501s20.5 -40.667 35.5 -57s33 -29.333 54 -39s44.167 -14.5 69.5 -14.5z" />
    <glyph glyph-name="ocircumflex" unicode="&#xf4;" horiz-adv-x="690" 
d="M289 769h112l120 -150h-97l-80 69l-80 -69h-94zM344 -12c-42 0 -80.667 7.49902 -116 22.499s-65.833 35.167 -91.5 60.5s-45.834 55.166 -60.501 89.499s-22 71.166 -22 110.499v2c0 38.667 7.33301 75.334 22 110.001s35 65 61 91s56.833 46.667 92.5 62
s74.5 23 116.5 23s80.667 -7.5 116 -22.5s65.833 -35.333 91.5 -61s45.834 -55.667 60.501 -90s22 -71.166 22 -110.499v-2c0 -39.333 -7.33301 -76.166 -22 -110.499s-35 -64.5 -61 -90.5s-56.833 -46.5 -92.5 -61.5s-74.5 -22.5 -116.5 -22.5zM346 92.999
c26 0 49.333 4.66602 70 13.999s38.5 22.166 53.5 38.499s26.5 35.333 34.5 57s12 44.5 12 68.5v2c0 24.667 -4.33301 47.834 -13 69.501s-20.5 40.834 -35.5 57.501s-33.167 29.834 -54.5 39.501s-44.333 14.5 -69 14.5c-26 0 -49.333 -4.83301 -70 -14.5
s-38.5 -22.667 -53.5 -39s-26.5 -35.333 -34.5 -57s-12 -44.5 -12 -68.5v-2c0 -24.667 4.33301 -47.834 13 -69.501s20.5 -40.667 35.5 -57s33 -29.333 54 -39s44.167 -14.5 69.5 -14.5z" />
    <glyph glyph-name="otilde" unicode="&#xf5;" horiz-adv-x="690" 
d="M344 -12c-42 0 -80.667 7.49902 -116 22.499s-65.833 35.167 -91.5 60.5s-45.834 55.166 -60.501 89.499s-22 71.166 -22 110.499v2c0 38.667 7.33301 75.334 22 110.001s35 65 61 91s56.833 46.667 92.5 62s74.5 23 116.5 23s80.667 -7.5 116 -22.5
s65.833 -35.333 91.5 -61s45.834 -55.667 60.501 -90s22 -71.166 22 -110.499v-2c0 -39.333 -7.33301 -76.166 -22 -110.499s-35 -64.5 -61 -90.5s-56.833 -46.5 -92.5 -61.5s-74.5 -22.5 -116.5 -22.5zM346 92.999c26 0 49.333 4.66602 70 13.999s38.5 22.166 53.5 38.499
s26.5 35.333 34.5 57s12 44.5 12 68.5v2c0 24.667 -4.33301 47.834 -13 69.501s-20.5 40.834 -35.5 57.501s-33.167 29.834 -54.5 39.501s-44.333 14.5 -69 14.5c-26 0 -49.333 -4.83301 -70 -14.5s-38.5 -22.667 -53.5 -39s-26.5 -35.333 -34.5 -57s-12 -44.5 -12 -68.5v-2
c0 -24.667 4.33301 -47.834 13 -69.501s20.5 -40.667 35.5 -57s33 -29.333 54 -39s44.167 -14.5 69.5 -14.5zM428 618.998c-15.333 0 -30 2.33301 -44 7s-27.667 9.66699 -41 15c-12 5.33301 -23.333 9.83301 -34 13.5s-20.334 5.5 -29.001 5.5
c-15.333 0 -26.833 -4.16699 -34.5 -12.5s-15.167 -21.166 -22.5 -38.499l-67 20c11.333 42 25.333 73.667 42 95s40.667 32 72 32c15.333 0 30 -2.33301 44 -7s27.667 -9.66699 41 -15c12 -5.33301 23.333 -9.83301 34 -13.5s20.334 -5.5 29.001 -5.5
c15.333 0 26.833 4.16699 34.5 12.5s15.167 21.166 22.5 38.499l67 -20c-11.333 -42 -25.333 -73.667 -42 -95s-40.667 -32 -72 -32z" />
    <glyph glyph-name="odieresis" unicode="&#xf6;" horiz-adv-x="690" 
d="M383 739h124v-120h-124v120zM183 739h124v-120h-124v120zM344 -12c-42 0 -80.667 7.49902 -116 22.499s-65.833 35.167 -91.5 60.5s-45.834 55.166 -60.501 89.499s-22 71.166 -22 110.499v2c0 38.667 7.33301 75.334 22 110.001s35 65 61 91s56.833 46.667 92.5 62
s74.5 23 116.5 23s80.667 -7.5 116 -22.5s65.833 -35.333 91.5 -61s45.834 -55.667 60.501 -90s22 -71.166 22 -110.499v-2c0 -39.333 -7.33301 -76.166 -22 -110.499s-35 -64.5 -61 -90.5s-56.833 -46.5 -92.5 -61.5s-74.5 -22.5 -116.5 -22.5zM346 92.999
c26 0 49.333 4.66602 70 13.999s38.5 22.166 53.5 38.499s26.5 35.333 34.5 57s12 44.5 12 68.5v2c0 24.667 -4.33301 47.834 -13 69.501s-20.5 40.834 -35.5 57.501s-33.167 29.834 -54.5 39.501s-44.333 14.5 -69 14.5c-26 0 -49.333 -4.83301 -70 -14.5
s-38.5 -22.667 -53.5 -39s-26.5 -35.333 -34.5 -57s-12 -44.5 -12 -68.5v-2c0 -24.667 4.33301 -47.834 13 -69.501s20.5 -40.667 35.5 -57s33 -29.333 54 -39s44.167 -14.5 69.5 -14.5z" />
    <glyph glyph-name="oslash" unicode="&#xf8;" horiz-adv-x="690" 
d="M652 554l-84.001 -94.002c21.333 -24.667 38 -52.667 50 -84s18 -65 18 -101v-2c0 -39.333 -7.33301 -76.166 -22 -110.499s-35 -64.5 -61 -90.5s-56.833 -46.5 -92.5 -61.5s-74.5 -22.5 -116.5 -22.5c-30 0 -58.5 3.83301 -85.5 11.5s-51.833 18.5 -74.5 32.5l-35 -37
h-111l83 92c-21.333 25.333 -37.833 53.5 -49.5 84.5s-17.5 64.167 -17.5 99.5v2c0 38.667 7.33301 75.334 22 110.001s35 65 61 91s56.833 46.667 92.5 62s74.5 23 116.5 23c30 0 58.333 -4 85 -12s51.334 -19 74.001 -33l36 40h111zM345.999 89.998
c26 0 49.667 4.83203 71 14.499s39.5 22.667 54.5 39s26.667 35.5 35 57.5s12.5 45.333 12.5 70v2c0 37.333 -9.66699 71.333 -29 102l-234 -261c13.333 -7.33301 27.333 -13.166 42 -17.499s30.667 -6.5 48 -6.5zM170.999 273.997c0 -38 9.33301 -71.999 28 -101.999
l235 259c-13.333 8 -27.5 14.333 -42.5 19s-30.833 7 -47.5 7c-26 0 -49.667 -4.83301 -71 -14.5s-39.5 -22.834 -54.5 -39.501s-26.667 -36 -35 -58s-12.5 -45.333 -12.5 -70v-1z" />
    <glyph glyph-name="ugrave" unicode="&#xf9;" horiz-adv-x="652" 
d="M275 -11c-62.667 0 -111.333 19.167 -146 57.5s-52 89.5 -52 153.5v348h121v-312c0 -44 10.667 -77.833 32 -101.5s51 -35.5 89 -35.5s69 12.167 93 36.5s36 58.5 36 102.5v310h120v-548h-120v86c-18 -26 -40.667 -48.667 -68 -68s-62.333 -29 -105 -29zM153.001 737
l110 50l107 -168h-91z" />
    <glyph glyph-name="uacute" unicode="&#xfa;" horiz-adv-x="652" 
d="M382 787l110 -50l-126 -118h-91zM275 -11c-62.667 0 -111.333 19.167 -146 57.5s-52 89.5 -52 153.5v348h121v-312c0 -44 10.667 -77.833 32 -101.5s51 -35.5 89 -35.5s69 12.167 93 36.5s36 58.5 36 102.5v310h120v-548h-120v86c-18 -26 -40.667 -48.667 -68 -68
s-62.333 -29 -105 -29z" />
    <glyph glyph-name="ucircumflex" unicode="&#xfb;" horiz-adv-x="652" 
d="M266 769h112l120 -150h-97l-80 69l-80 -69h-94zM275 -11c-62.667 0 -111.333 19.167 -146 57.5s-52 89.5 -52 153.5v348h121v-312c0 -44 10.667 -77.833 32 -101.5s51 -35.5 89 -35.5s69 12.167 93 36.5s36 58.5 36 102.5v310h120v-548h-120v86
c-18 -26 -40.667 -48.667 -68 -68s-62.333 -29 -105 -29z" />
    <glyph glyph-name="udieresis" unicode="&#xfc;" horiz-adv-x="652" 
d="M360 739h124v-120h-124v120zM160 739h124v-120h-124v120zM275 -11c-62.667 0 -111.333 19.167 -146 57.5s-52 89.5 -52 153.5v348h121v-312c0 -44 10.667 -77.833 32 -101.5s51 -35.5 89 -35.5s69 12.167 93 36.5s36 58.5 36 102.5v310h120v-548h-120v86
c-18 -26 -40.667 -48.667 -68 -68s-62.333 -29 -105 -29z" />
    <glyph glyph-name="yacute" unicode="&#xfd;" horiz-adv-x="628" 
d="M467 548l126 -0.000976562l-219 -563c-11.333 -28 -22.833 -51.833 -34.5 -71.5s-24.834 -35.667 -39.501 -48s-30.667 -21.333 -48 -27s-37 -8.5 -59 -8.5c-25.333 0 -48.166 2.83301 -68.499 8.5s-40.166 13.834 -59.499 24.501l41 91
c11.333 -6.66699 23.333 -12 36 -16s25.667 -6 39 -6c18.667 0 34.167 5 46.5 15s24.166 27.667 35.499 53l-231 548h129l160 -413zM374 786.999l110 -50l-126 -118h-91z" />
    <glyph glyph-name="thorn" unicode="&#xfe;" horiz-adv-x="705" 
d="M84 759l120.003 -0.000976562v-305c20.667 29.333 46.167 54.166 76.5 74.499s68.166 30.5 113.499 30.5c32 0 63.333 -6.33301 94 -19s58 -31 82 -55s43.167 -53.667 57.5 -89s21.5 -75.666 21.5 -120.999v-2c0 -45.333 -7.16699 -85.666 -21.5 -120.999
s-33.333 -65 -57 -89s-50.834 -42.333 -81.501 -55s-62.334 -19 -95.001 -19c-46 0 -84.167 9.83301 -114.5 29.5s-55.5 42.5 -75.5 68.5v-253h-120v925zM366.003 92.999c22 0 42.834 4.16797 62.501 12.501s36.667 20.333 51 36s25.833 34.5 34.5 56.5s13 47 13 75v2
c0 27.333 -4.33301 52 -13 74s-20.334 40.833 -35.001 56.5s-31.667 27.834 -51 36.501s-40 13 -62 13s-42.833 -4.33301 -62.5 -13s-37 -20.834 -52 -36.501s-27 -34.667 -36 -57s-13.5 -46.833 -13.5 -73.5v-2c0 -27.333 4.5 -52 13.5 -74s21 -40.833 36 -56.5
s32.333 -27.834 52 -36.501s40.5 -13 62.5 -13z" />
    <glyph glyph-name="ydieresis" unicode="&#xff;" horiz-adv-x="628" 
d="M467 548l126 -0.000976562l-219 -563c-11.333 -28 -22.833 -51.833 -34.5 -71.5s-24.834 -35.667 -39.501 -48s-30.667 -21.333 -48 -27s-37 -8.5 -59 -8.5c-25.333 0 -48.166 2.83301 -68.499 8.5s-40.166 13.834 -59.499 24.501l41 91
c11.333 -6.66699 23.333 -12 36 -16s25.667 -6 39 -6c18.667 0 34.167 5 46.5 15s24.166 27.667 35.499 53l-231 548h129l160 -413zM353 738.999h124v-120h-124v120zM153 738.999h124v-120h-124v120z" />
    <glyph glyph-name="dotlessi" unicode="&#x131;" horiz-adv-x="303" 
d="M91 548h121v-548h-121v548z" />
    <glyph glyph-name="Lslash" unicode="&#x141;" horiz-adv-x="681" 
d="M251 326v-214h387v-112h-508v272l-78 -35v116l78 35v340h121v-285l170 77v-117z" />
    <glyph glyph-name="lslash" unicode="&#x142;" horiz-adv-x="365" 
d="M242 358v-358h-119v297l-79 -40v116l79 40v346h119v-285l79 41v-116z" />
    <glyph glyph-name="OE" unicode="&#x152;" horiz-adv-x="1154" 
d="M453 0c-57.333 0 -109.666 9.16699 -156.999 27.5s-88 43.833 -122 76.5s-60.5 71 -79.5 115s-28.5 91.667 -28.5 143v2c0 51.333 9.5 99.166 28.5 143.499s45.5 82.833 79.5 115.5s74.667 58.334 122 77.001s99.666 28 156.999 28h633v-110h-393v-196h346v-110h-346
v-202h398v-110h-638zM570 111v506h-117c-39.333 0 -74.833 -6.33301 -106.5 -19s-58.667 -30.167 -81 -52.5s-39.666 -48.833 -51.999 -79.5s-18.5 -64 -18.5 -100v-2c0 -36 6.16699 -69.5 18.5 -100.5s29.666 -57.667 51.999 -80s49.333 -40 81 -53
s67.167 -19.5 106.5 -19.5h117z" />
    <glyph glyph-name="oe" unicode="&#x153;" horiz-adv-x="1090" 
d="M337 -12c-39.333 0 -76.166 7.50098 -110.499 22.501s-64.333 35.167 -90 60.5s-45.834 55.166 -60.501 89.499s-22 71.166 -22 110.499v2c0 38.667 7.33301 75.334 22 110.001s35 65 61 91s56.5 46.667 91.5 62s72.833 23 113.5 23c48 0 91.167 -10.667 129.5 -32
s69.166 -49.666 92.499 -84.999c22.667 36 52.167 64.5 88.5 85.5s77.5 31.5 123.5 31.5c43.333 0 81.333 -7.83301 114 -23.5s60 -37 82 -64s38.5 -58.333 49.5 -94s16.5 -73.167 16.5 -112.5c0 -5.33301 -0.166992 -10.833 -0.5 -16.5s-0.833008 -11.5 -1.5 -17.5h-406
c6.66699 -46.667 24.834 -82.334 54.501 -107.001s65.167 -37 106.5 -37c32 0 59.833 5.66699 83.5 17s46.5 27.666 68.5 48.999l71 -63c-26.667 -31.333 -58.167 -56.166 -94.5 -74.499s-79.5 -27.5 -129.5 -27.5c-48 0 -91.833 10.333 -131.5 31s-71.5 49.667 -95.5 87
c-24 -36 -55.5 -64.667 -94.5 -86s-82.833 -32 -131.5 -32zM918 311.001c-2 20.667 -6.50195 40.168 -13.502 58.501s-16.5 34.166 -28.5 47.499s-26.5 23.833 -43.5 31.5s-36.167 11.5 -57.5 11.5c-39.333 0 -72.166 -13.833 -98.499 -41.5s-42.166 -63.5 -47.499 -107.5
h289zM342.998 93.002c24.667 0 47.3311 4.66602 67.998 13.999s38.167 22.166 52.5 38.499s25.5 35.333 33.5 57s12 44.5 12 68.5v2c0 24.667 -4.16699 47.834 -12.5 69.501s-20 40.834 -35 57.501s-32.833 29.834 -53.5 39.501s-43.334 14.5 -68.001 14.5
c-25.333 0 -48.166 -4.83301 -68.499 -14.5s-37.666 -22.667 -51.999 -39s-25.5 -35.333 -33.5 -57s-12 -44.5 -12 -68.5v-2c0 -24.667 4.16699 -47.834 12.5 -69.501s20 -40.667 35 -57s32.833 -29.333 53.5 -39s43.334 -14.5 68.001 -14.5z" />
    <glyph glyph-name="Scaron" unicode="&#x160;" horiz-adv-x="674" 
d="M353 -10c-56.667 0 -110.335 9.50488 -161.002 28.5049s-98 48.167 -142 87.5l74 88c35.333 -30.667 71.333 -54.167 108 -70.5s78 -24.5 124 -24.5c40.667 0 73 8.66699 97 26s36 40.333 36 69v2c0 13.333 -2.33301 25.166 -7 35.499s-13.167 20 -25.5 29
s-29.333 17.5 -51 25.5s-49.5 16 -83.5 24c-39.333 9.33301 -74.166 19.666 -104.499 30.999s-55.666 25.166 -75.999 41.499s-35.833 36.166 -46.5 59.499s-16 51.666 -16 84.999v2c0 30.667 6.16699 58.834 18.5 84.501s29.333 47.667 51 66s47.667 32.666 78 42.999
s63.5 15.5 99.5 15.5c54 0 102.167 -7.66699 144.5 -23s82.166 -38 119.499 -68l-67 -93c-65.333 50 -131.666 75 -198.999 75c-38.667 0 -68.834 -8.5 -90.501 -25.5s-32.5 -38.167 -32.5 -63.5v-2c0 -14.667 2.5 -27.5 7.5 -38.5s14.167 -21 27.5 -30
s31.333 -17.5 54 -25.5s52 -16 88 -24c38.667 -9.33301 72.5 -20 101.5 -32s53.333 -26.333 73 -43s34.334 -36.167 44.001 -58.5s14.5 -48.5 14.5 -78.5v-2c0 -34 -6.33301 -64.333 -19 -91s-30.5 -49.167 -53.5 -67.5s-50.167 -32.5 -81.5 -42.5s-66 -15 -104 -15z
M398.999 799.005h-114l-124 138h102l80 -60l80 60h100z" />
    <glyph glyph-name="scaron" unicode="&#x161;" 
d="M323 619h-112l-119 150h96l80 -69l80 69h95zM271 -10c-39.333 0 -79.3291 6.66797 -119.996 20.001s-78 33.666 -112 60.999l55 82c30 -22 60.333 -38.833 91 -50.5s60.667 -17.5 90 -17.5c28 0 49.667 5.66699 65 17s23 26.666 23 45.999v2c0 10.667 -3.33301 20 -10 28
s-15.834 14.833 -27.501 20.5s-25 10.834 -40 15.501s-30.5 9.66699 -46.5 15c-20 6 -40.333 12.833 -61 20.5s-39.167 17.5 -55.5 29.5s-29.666 26.833 -39.999 44.5s-15.5 39.5 -15.5 65.5v2c0 26 5 49.167 15 69.5s23.667 37.666 41 51.999s37.666 25.333 60.999 33
s48.666 11.5 75.999 11.5c34.667 0 69.667 -5.5 105 -16.5s67.333 -26.167 96 -45.5l-48 -86c-26.667 16 -53.334 28.667 -80.001 38s-51.667 14 -75 14c-25.333 0 -45 -5.33301 -59 -16s-21 -24.334 -21 -41.001v-2c0 -10 3.33301 -18.833 10 -26.5
s15.834 -14.5 27.501 -20.5s25 -11.667 40 -17s30.833 -10.666 47.5 -15.999c20 -6 40.167 -13.167 60.5 -21.5s38.666 -18.5 54.999 -30.5s29.666 -26.667 39.999 -44s15.5 -38.333 15.5 -63v-2c0 -28.667 -5.16699 -53.667 -15.5 -75s-24.666 -39.166 -42.999 -53.499
s-39.833 -25 -64.5 -32s-51.334 -10.5 -80.001 -10.5z" />
    <glyph glyph-name="Ydieresis" unicode="&#x178;" horiz-adv-x="753" 
d="M315 287l-291 441h145l208 -327l211 327h141l-291 -438v-290h-123v287zM420 901h125v-113h-125v113zM208 901h126v-113h-126v113z" />
    <glyph glyph-name="Zcaron" unicode="&#x17d;" horiz-adv-x="737" 
d="M433 789h-114l-124 138h102l80 -60l80 60h100zM71 90l435 530h-420v108h581v-90l-435 -530h435v-108h-596v90z" />
    <glyph glyph-name="zcaron" unicode="&#x17e;" horiz-adv-x="590" 
d="M354 619h-112l-119 150h96l80 -69l80 69h95zM59 83l321 366h-310v99h464v-83l-321 -366h321v-99h-475v83z" />
    <glyph glyph-name="circumflex" unicode="&#x2c6;" 
d="M208 769h112l120 -150h-97l-80 69l-80 -69h-94z" />
    <glyph glyph-name="caron" unicode="&#x2c7;" 
d="M320 619h-112l-119 150h96l80 -69l80 69h95z" />
    <glyph glyph-name="breve" unicode="&#x2d8;" 
d="M264 617c-50 0 -90.833 12.833 -122.5 38.5s-49.167 62.167 -52.5 109.5h83c6 -19.333 16.167 -34.833 30.5 -46.5s34.833 -17.5 61.5 -17.5s47.167 5.83301 61.5 17.5s24.5 27.167 30.5 46.5h84c-4 -47.333 -21.833 -83.833 -53.5 -109.5s-72.5 -38.5 -122.5 -38.5z" />
    <glyph glyph-name="dotaccent" unicode="&#x2d9;" 
d="M200 740h128v-121h-128v121z" />
    <glyph glyph-name="ring" unicode="&#x2da;" 
d="M264 617c-16.667 0 -32.167 3 -46.5 9s-27 14.167 -38 24.5s-19.667 22.5 -26 36.5s-9.5 29 -9.5 45s3.16699 31 9.5 45s15 26.333 26 37s23.667 19 38 25s29.833 9 46.5 9s32.167 -3 46.5 -9s27 -14.333 38 -25s19.667 -23 26 -37s9.5 -29 9.5 -45
s-3.16699 -31 -9.5 -45s-15 -26.167 -26 -36.5s-23.667 -18.5 -38 -24.5s-29.833 -9 -46.5 -9zM264 662c19.333 0 35.833 6.83301 49.5 20.5s20.5 30.167 20.5 49.5s-6.83301 35.833 -20.5 49.5s-30.167 20.5 -49.5 20.5s-35.833 -6.83301 -49.5 -20.5
s-20.5 -30.167 -20.5 -49.5s6.83301 -35.833 20.5 -49.5s30.167 -20.5 49.5 -20.5z" />
    <glyph glyph-name="ogonek" unicode="&#x2db;" 
d="M362 -171c-5.33301 -0.666992 -10.667 -1.16699 -16 -1.5s-10.333 -0.5 -15 -0.5c-44.667 1.33301 -78.5 10 -101.5 26s-34.5 36.667 -34.5 62c0 17.333 4.83301 33.833 14.5 49.5s23.167 31.834 40.5 48.501l81 -6c-16 -14.667 -27.333 -27.834 -34 -39.501
s-10 -23.167 -10 -34.5c0 -30 25 -45 75 -45v-59z" />
    <glyph glyph-name="tilde" unicode="&#x2dc;" 
d="M343 619c-15.333 0 -30 2.33301 -44 7s-27.667 9.66699 -41 15c-12 5.33301 -23.333 9.83301 -34 13.5s-20.334 5.5 -29.001 5.5c-15.333 0 -26.833 -4.16699 -34.5 -12.5s-15.167 -21.166 -22.5 -38.499l-67 20c11.333 42 25.333 73.667 42 95s40.667 32 72 32
c15.333 0 30 -2.33301 44 -7s27.667 -9.66699 41 -15c12 -5.33301 23.333 -9.83301 34 -13.5s20.334 -5.5 29.001 -5.5c15.333 0 26.833 4.16699 34.5 12.5s15.167 21.166 22.5 38.499l67 -20c-11.333 -42 -25.333 -73.667 -42 -95s-40.667 -32 -72 -32z" />
    <glyph glyph-name="hungarumlaut" unicode="&#x2dd;" 
d="M355 787l107 -49l-126 -119h-88zM179 787l107 -49l-125 -119h-88z" />
    <glyph glyph-name="endash" unicode="&#x2013;" horiz-adv-x="557" 
d="M63 375h431v-115h-431v115z" />
    <glyph glyph-name="emdash" unicode="&#x2014;" horiz-adv-x="942" 
d="M63 375h816v-115h-816v115z" />
    <glyph glyph-name="quoteleft" unicode="&#x2018;" horiz-adv-x="285" 
d="M71 564c0 56 13 96.833 39 122.5s64.667 41.167 116 46.5l13 -51c-62 -12.667 -91 -45 -87 -97h52v-139h-133v118z" />
    <glyph glyph-name="quoteright" unicode="&#x2019;" horiz-adv-x="285" 
d="M46 492c62 12.667 91 45 87 97h-52v139h133v-118c0 -56 -13 -97.167 -39 -123.5s-64.667 -41.833 -116 -46.5z" />
    <glyph glyph-name="quotesinglbase" unicode="&#x201a;" horiz-adv-x="285" 
d="M41 -97c62 12.667 91 45 87 97h-52v139h133v-118c0 -56 -13.167 -97 -39.5 -123s-64.833 -41.333 -115.5 -46z" />
    <glyph glyph-name="quotedblleft" unicode="&#x201c;" horiz-adv-x="522" 
d="M308 564c0 56 13 96.832 39 122.499s64.667 41.167 116 46.5l13 -51c-62 -13.333 -90.667 -45.666 -86 -96.999h51v-139h-133v118zM71 563.999c0 56 13 96.833 39 122.5s64.667 41.167 116 46.5l13 -51c-62 -12.667 -91 -45 -87 -97h52v-139h-133v118z" />
    <glyph glyph-name="quotedblright" unicode="&#x201d;" horiz-adv-x="522" 
d="M283 492c62 12.667 90.999 45 86.999 97h-52v139h134v-118c0 -56 -13.167 -97.167 -39.5 -123.5s-65.166 -41.833 -116.499 -46.5zM45.999 492c62 12.667 91 45 87 97h-52v139h133v-118c0 -56 -13 -97.167 -39 -123.5s-64.667 -41.833 -116 -46.5z" />
    <glyph glyph-name="quotedblbase" unicode="&#x201e;" horiz-adv-x="522" 
d="M278 -97c62 12.667 90.999 45 86.999 97h-52v139h134v-118c0 -56 -13.167 -97 -39.5 -123s-65.166 -41.333 -116.499 -46zM40.999 -97c62 12.667 91 45 87 97h-52v139h133v-118c0 -56 -13.167 -97 -39.5 -123s-64.833 -41.333 -115.5 -46z" />
    <glyph glyph-name="bullet" unicode="&#x2022;" horiz-adv-x="517" 
d="M259 220c-20 0 -39 3.83301 -57 11.5s-33.5 18 -46.5 31s-23.333 28.333 -31 46s-11.5 36.5 -11.5 56.5v2c0 20 3.83301 38.833 11.5 56.5s18.167 33 31.5 46s28.833 23.333 46.5 31s36.5 11.5 56.5 11.5c19.333 0 37.833 -3.83301 55.5 -11.5s33.167 -18 46.5 -31
s23.833 -28.333 31.5 -46s11.5 -36.5 11.5 -56.5v-2c0 -20 -3.83301 -38.833 -11.5 -56.5s-18 -33 -31 -46s-28.333 -23.333 -46 -31s-36.5 -11.5 -56.5 -11.5z" />
    <glyph glyph-name="ellipsis" unicode="&#x2026;" horiz-adv-x="823" 
d="M617 136h131v-136h-131v136zM347 136h130v-136h-130v136zM76 136h130v-136h-130v136z" />
    <glyph glyph-name="guilsinglleft" unicode="&#x2039;" horiz-adv-x="373" 
d="M50 270v8l179 226l85 -44l-131 -185l131 -186l-85 -45z" />
    <glyph glyph-name="guilsinglright" unicode="&#x203a;" horiz-adv-x="373" 
d="M59 88l131 185l-131 186l86 45l178 -226v-8l-178 -226z" />
    <glyph glyph-name="Euro" unicode="&#x20ac;" horiz-adv-x="757" 
d="M611 534c-22.667 32 -46.1641 56.165 -70.4971 72.498s-55.166 24.5 -92.499 24.5c-38.667 0 -72.167 -12 -100.5 -36s-50.166 -56.333 -65.499 -97h230v-86h-248c-1.33301 -7.33301 -2 -15.166 -2 -23.499v-23.5v-1v-21c0 -6.66699 0.333008 -13.667 1 -21h249v-86h-232
c14.667 -43.333 37.167 -77.5 67.5 -102.5s66.5 -37.167 108.5 -36.5c35.333 0 65.333 9 90 27s48.667 43 72 75l88 -64c-29.333 -43.333 -63.833 -78.666 -103.5 -105.999s-88.834 -41 -147.501 -41c-38 0 -73.333 6 -106 18s-61.834 28.833 -87.501 50.5
s-47.667 47.667 -66 78s-32.5 64.166 -42.5 101.499h-94v86h80c-0.666992 6.66699 -1 13.334 -1 20.001v21v1v23.5c0 8.33301 0.666992 16.5 2 24.5h-81v86h97c10 34.667 24.167 67 42.5 97s40 55.667 65 77s53.167 38 84.5 50s65.666 18 102.999 18
c31.333 0 59.666 -3.5 84.999 -10.5s48.166 -16.5 68.499 -28.5s38.5 -26.333 54.5 -43s31 -35 45 -55z" />
    <glyph glyph-name="trademark" unicode="&#x2122;" horiz-adv-x="726" 
d="M358 728h64l98 -154l99 154h62v-320h-58v230l-101 -156h-5l-101 156v-230h-58v320zM130 674h-99v54h258v-54h-99v-266h-60v266z" />
    <glyph glyph-name=".null" horiz-adv-x="0" 
 />
    <glyph glyph-name="nonmarkingreturn" horiz-adv-x="320" 
 />
    <glyph glyph-name="acute.cap" 
d="M285 938l110 -49l-131 -100h-94z" />
    <glyph glyph-name="hungarumlaut.cap" 
d="M181 938l107 -49l-131 -100h-91zM361 938l106 -49l-131 -100h-91z" />
    <glyph glyph-name="grave.cap" 
d="M262 789l-131 100l110 49l116 -149h-95z" />
    <glyph glyph-name="circumflex.cap" 
d="M207 927h114l124 -138h-102l-80 60l-80 -60h-100z" />
    <glyph glyph-name="caron.cap" 
d="M321 789h-114l-124 138h102l80 -60l80 60h100z" />
    <glyph glyph-name="breve.cap" 
d="M264 787c-50 0 -91 11.833 -123 35.5s-50 57.5 -54 101.5h86c6.66699 -16.667 17 -29.5 31 -38.5s34 -13.5 60 -13.5s46 4.5 60 13.5s24.333 21.833 31 38.5h86c-4 -44 -22 -77.833 -54 -101.5s-73 -35.5 -123 -35.5z" />
    <glyph glyph-name="tilde.cap" 
d="M345 789c-15.333 0 -30.666 2.5 -45.999 7.5s-30.333 10.167 -45 15.5c-11.333 4.66699 -22.166 8.66699 -32.499 12s-19.5 5 -27.5 5c-15.333 0 -27 -4 -35 -12s-15.667 -20.667 -23 -38l-68 20c11.333 40 25.5 71 42.5 93s41.167 33 72.5 33
c15.333 0 30.666 -2.5 45.999 -7.5s30.333 -10.5 45 -16.5c11.333 -4.66699 22.166 -8.66699 32.499 -12s19.5 -5 27.5 -5c15.333 0 26.833 4 34.5 12s15.167 20.667 22.5 38l68 -20c-11.333 -40 -25.5 -70.833 -42.5 -92.5s-40.833 -32.5 -71.5 -32.5z" />
    <glyph glyph-name="macron.cap" 
d="M79 892h370v-90h-370v90z" />
    <glyph glyph-name="dieresis.cap" 
d="M307 902h125v-113h-125v113zM95 902h126v-113h-126v113z" />
    <glyph glyph-name="dotaccent.cap" 
d="M199 902h130v-113h-130v113z" />
    <glyph glyph-name="ring.cap" 
d="M264 787c-16.667 0 -32.334 2.66699 -47.001 8s-27.5 12.833 -38.5 22.5s-19.833 21.167 -26.5 34.5s-10 28 -10 44s3.33301 30.667 10 44s15.5 24.833 26.5 34.5s23.833 17.167 38.5 22.5s30.334 8 47.001 8s32.334 -2.66699 47.001 -8s27.5 -12.833 38.5 -22.5
s19.833 -21.167 26.5 -34.5s10 -28 10 -44s-3.33301 -30.667 -10 -44s-15.5 -24.833 -26.5 -34.5s-23.833 -17.167 -38.5 -22.5s-30.334 -8 -47.001 -8zM264 835c20 0 36.167 5.83301 48.5 17.5s18.5 26.167 18.5 43.5s-6.16699 31.666 -18.5 42.999s-28.5 17 -48.5 17
s-36.167 -5.66699 -48.5 -17s-18.5 -25.666 -18.5 -42.999s6.16699 -31.833 18.5 -43.5s28.5 -17.5 48.5 -17.5z" />
    <glyph glyph-name="hcoslug" horiz-adv-x="694" 
d="M273 18c1.33301 14.667 -5 22.001 -19 22.001c-6 0 -10.833 -1.83301 -14.5 -5.5s-5.5 -8.83398 -5.5 -15.501c0.666992 -13.333 7.66699 -20 21 -20c10 0 16 4.66699 18 14h-7c-1.33301 -4.66699 -4.33301 -7 -9 -7c-6.66699 0 -10 4 -10 12h26zM254 35.001
c4.66699 0 7 -4 7 -12h-14c0 8 2.33301 12 7 12zM195 78.001c-5.33301 0 -8 5.33301 -8 16c0 10 2.66699 15 8 15s8 -5 8 -15c0 -10.667 -2.66699 -16 -8 -16zM210 4.00098c-5.33301 0 -8 5.33301 -8 16c0 10 2.66699 15 8 15s8 -5 8 -15c0 -10.667 -2.66699 -16 -8 -16z
M210 -0.999023c6 0 11 2.00098 15 6.00098s6 9 6 15s-2 10.833 -6 14.5s-9 5.5 -15 5.5s-11 -1.83301 -15 -5.5s-6 -8.5 -6 -14.5c0 -6.66699 2 -11.834 6 -15.501s9 -5.5 15 -5.5zM546 4.00195c-5.33301 0 -8 5.33301 -8 16c0 10 2.66699 15 8 15s8 -5 8 -15
c0 -10.667 -2.66699 -16 -8 -16zM546 -0.998047c6 0 11 2.00098 15 6.00098s6 9 6 15s-2 10.833 -6 14.5s-9 5.5 -15 5.5s-11 -1.83301 -15 -5.5s-6 -8.5 -6 -14.5c0 -6.66699 2 -11.834 6 -15.501s9 -5.5 15 -5.5zM125 74.0029h30.002v7h-10v16h4
c3.33301 0 5.33301 -2.66699 6 -8h7v23h-7c-0.666992 -5.33301 -2.66699 -8 -6 -8h-4v18h12c3.33301 0 5.66602 -0.833008 6.99902 -2.5s2.66602 -5.16699 3.99902 -10.5h8v20h-51v-7h7v-41h-7v-7zM195.002 73.0029c6 0 11 2.00098 15 6.00098s6 9 6 15s-2 10.833 -6 14.5
s-9 5.5 -15 5.5s-11 -1.83301 -15 -5.5s-6 -8.5 -6 -14.5c0 -6.66699 2 -11.834 6 -15.501s9 -5.5 15 -5.5zM644.002 -99.9961h-594v800h594v-800zM498.002 -0.996094c14.667 0 22.666 7.66602 23.999 22.999h-8c-1.33301 -10.667 -6 -16 -14 -16
c-10.667 0 -16 7.33301 -16 22s4.66699 22 14 22c6.66699 0 11.667 -5.33301 15 -16h8v22h-8l-1 -6c-4.66699 4.66699 -10 7 -16 7c-7.33301 0 -13.666 -2.66699 -18.999 -8s-8 -12.666 -8 -21.999c0 -18.667 9.66699 -28 29 -28zM372.001 80.0029
c-5.33301 0 -8 4.33301 -8 13s2.66699 13 8 13c4.66699 0 7 -4.33301 7 -13s-2.33301 -13 -7 -13zM276.001 0.00292969h23v7h-5v25h14v-25h-5v-7h23v7h-6v52l-10 -2c-2.66699 1.33301 -5.66699 2 -9 2c-5.33301 0 -9.83301 -1.5 -13.5 -4.5s-5.5 -7.83301 -5.5 -14.5v-1h-7
v-7h7v-25h-6v-7zM368.001 0.00292969h26v7h-8v16c2.66699 6 5 9 7 9v-1c0 -4 2 -6 6 -6c4.66699 0 7 2.33301 7 7c0 5.33301 -2.66699 8 -8 8s-9.33301 -3.66699 -12 -11v10h-18v-7h6v-25h-6v-7zM352.001 73.0029l6 -0.000976562l4 8c3.33301 -5.33301 8 -8 14 -8
s10.167 2.33301 12.5 7s3.5 9.33398 3.5 14.001c0 13.333 -5 20 -15 20c-6.66699 0 -11 -3 -13 -9v27h-18v-7h6v-52zM400.001 75.002c-4.66699 0 -6.99902 -2.33398 -6.99902 -7.00098c0 -6 3.66699 -9 11 -9c8 0 14 5.33301 18 16l13 31h5v7h-17v-7h5l-8 -20l-9 20h6v7h-25
v-7h5c1.33301 -3.33301 3.33301 -7.66602 6 -12.999l5.5 -11l4.5 -9c-1.33301 -5.33301 -4 -8 -8 -8c1.33301 1.33301 1.66602 3.33301 0.999023 6s-2.66699 4 -6 4zM247.002 428.001c0 8.66699 2.49902 15.6689 7.49902 21.002s11.5 8 19.5 8
c8.66699 0 15.667 -3.5 21 -10.5s8 -16.167 8 -27.5c0 -8.66699 -1.66699 -17 -5 -25s-7.66602 -16.333 -12.999 -25c-11.333 11.333 -20.5 21.166 -27.5 29.499s-10.5 18.166 -10.5 29.499zM302.001 74.0029l7.00098 -0.00292969l1 4c1.33301 -1.33301 3 -2.5 5 -3.5
s4.66699 -1.5 8 -1.5c9.33301 0 14 4.33301 14 13c0 4 -1.33301 6.83301 -4 8.5s-5.5 2.83398 -8.5 3.50098s-5.66699 1.33398 -8 2.00098s-3.5 2 -3.5 4c0 2.66699 1.66699 4 5 4s6.66602 -2.33301 9.99902 -7h7v13h-6l-2 -5c-2 3.33301 -5.66699 5 -11 5
c-4.66699 0 -8.16699 -1.16699 -10.5 -3.5s-3.5 -5.16602 -3.5 -8.49902c0 -4 1.16699 -6.83301 3.5 -8.5s5 -3 8 -4s5.83301 -1.83301 8.5 -2.5s4 -2 4 -4c0 -2.66699 -1.66699 -4 -5 -4c-4 0 -8 3 -12 9h-7v-14zM261.002 219c-15.333 0 -27.833 5.16699 -37.5 15.5
s-14.5 23.166 -14.5 38.499c0 16 5.33301 29.333 16 40c9.33301 -8.66699 20.5 -20.167 33.5 -34.5s26.5 -30.166 40.5 -47.499c-10 -8 -22.667 -12 -38 -12zM274.002 122l0.000976562 -9h-7v-7h7v-20c0 -8.66699 4 -13 12 -13c7.33301 0 12 4.33301 14 13l-5 2
c-0.666992 -4.66699 -2.33398 -7 -5.00098 -7s-4 1.66699 -4 5v20h13v7h-13v11zM428.003 306c4.66699 -7.33301 10.6699 -13.3359 18.0029 -18.0029s15.666 -7 24.999 -7c14 0 25.833 5.16699 35.5 15.5s14.5 23.166 14.5 38.499s-4.83301 27.833 -14.5 37.5
s-21.5 14.5 -35.5 14.5c-23.333 0 -43.333 -12.667 -60 -38c-1.33301 13.333 -6.5 23 -15.5 29s-20.167 8.66699 -33.5 8c6 10 9 21.333 9 34c0 8.66699 -2 17.5 -6 26.5s-10 17 -18 24s-18 12.667 -30 17s-25.667 6.5 -41 6.5c-16.667 0 -31.667 -2.33301 -45 -7
s-24.833 -11 -34.5 -19s-17 -17.167 -22 -27.5s-7.5 -20.833 -7.5 -31.5c0 -14.667 2.5 -27 7.5 -37s12.833 -20.667 23.5 -32c-54.667 -18.667 -82 -49 -82 -91c0 -13.333 2.83301 -25.666 8.5 -36.999s13.5 -21.166 23.5 -29.499s21.5 -14.833 34.5 -19.5
s27.167 -7 42.5 -7c42 0 76.667 15 104 45c16.667 -17.333 31.167 -29.166 43.5 -35.499s26.166 -9.5 41.499 -9.5c21.333 0 39.666 8.33301 54.999 25s23.666 39.667 24.999 69l-7 2c-5.33301 -8.66699 -11.166 -15.667 -17.499 -21s-14.833 -8 -25.5 -8
c-10 0 -19.667 3.16699 -29 9.5s-20.333 16.833 -33 31.5c7.33301 10 15 18.333 23 25s15.667 12.334 23 17.001zM219.006 73.9971h22v7h-4v15c0 6.66699 2.33301 10 7 10c4 0 6 -2.33301 6 -7v-18h-4v-7h22v7h-6v19c0 9.33301 -4 14 -12 14c-6 0 -10.667 -3.66699 -14 -11
v10h-17v-7h6v-25h-6v-7zM446.006 32.9971l0.00195312 -6.99902h6c-1.33301 -3.33301 -3.33301 -6.33301 -6 -9c-2 2 -3.83301 4 -5.5 6s-3.83398 4.33301 -6.50098 7c7.33301 3.33301 11 7.33301 11 12c0 3.33301 -1.16699 6.16602 -3.5 8.49902s-5.83301 3.5 -10.5 3.5
c-5.33301 0 -9.5 -1.33301 -12.5 -4s-4.5 -6 -4.5 -10s2 -8 6 -12c-8.66699 -2.66699 -13 -7.66699 -13 -15c0 -9.33301 6 -14 18 -14c6 0 11 2 15 6c3.33301 -4 7.33301 -6 12 -6c6.66699 0 11 4 13 12l-5 1c-0.666992 -3.33301 -2 -5 -4 -5s-4 1.66699 -6 5
c2 2 3.66699 4 5 6s2.66602 4.66699 3.99902 8h5v7h-18zM429.008 5.99805c-6.66699 0 -9.99902 3.33203 -9.99902 9.99902c0 3.33301 1.33301 6.33301 4 9c2.66699 -2.66699 5 -5.16699 7 -7.5s4.33301 -5.16602 7 -8.49902c-2.66699 -2 -5.33398 -3 -8.00098 -3z
M294.009 41.9971c0 4.66699 0.5 7.83203 1.5 9.49902s2.5 2.5 4.5 2.5c1.33301 0 2.33301 -0.333008 3 -1c-0.666992 -1.33301 -1 -2.66602 -1 -3.99902c0 -3.33301 2 -5 6 -5v-5h-14v3zM425.009 42.9951c0 3.33301 1.66699 5 5 5c4 0 6 -2 6 -6s-1.66699 -7 -5 -9
c-4 4 -6 7.33301 -6 10zM312.009 341.995c20 13.333 33.999 24.668 41.999 34.001c11.333 -11.333 16.333 -23.333 15 -36s-6.66602 -27.334 -15.999 -44.001c-6.66699 7.33301 -13.167 14.833 -19.5 22.5s-13.5 15.5 -21.5 23.5zM366.008 17.9971
c1.33301 14.667 -5 22 -19 22c-5.33301 0 -10 -2 -14 -6s-6 -9 -6 -15c0 -13.333 7 -20 21 -20c9.33301 0 15.333 4.66699 18 14h-7c-0.666992 -4.66699 -3.66699 -7 -9 -7c-6.66699 0 -10 4 -10 12h26zM347.008 34.9971c4.66699 0 7 -4 7 -12h-14c0 8 2.33301 12 7 12z
M124.008 -0.00292969h29v7h-8v18h22v-18h-8v-7h29v7h-8v41h8v7h-29v-7h8v-16h-22v16h8v7h-29v-7h8v-41h-8v-7zM576.008 12.9971c-4.66699 0 -7 -2.33301 -7 -7s2.33301 -7 7 -7s7 2.33301 7 7s-2.33301 7 -7 7z" />
    <glyph glyph-name="cedilla.cap" 
d="M143 -126l97 143h90l-81 -188z" />
    <glyph glyph-name="ogonek.cap" 
d="M362 -171c-5.33301 -0.666992 -10.667 -1.16699 -16 -1.5s-10.333 -0.5 -15 -0.5c-44.667 1.33301 -78.5 10 -101.5 26s-34.5 36.667 -34.5 62c0 17.333 4.83301 33.833 14.5 49.5s23.167 31.834 40.5 48.501l81 -6c-16 -14.667 -27.333 -27.834 -34 -39.501
s-10 -23.167 -10 -34.5c0 -30 25 -45 75 -45v-59z" />
    <glyph glyph-name="commaaccent.cap" 
d="M187 -239c50.667 6 74.667 29 72 69h-55v103h120v-88c0 -42 -11 -72.667 -33 -92s-54 -30 -96 -32z" />
    <glyph glyph-name="caron.alt.cap" 
d="M228 807h96v-4l-58 -191h-51z" />
    <glyph glyph-name="tonos.cap.cap" 
d="M172 728h121l-71 -202h-64z" />
    </font>
</defs>
</svg>
